<svg id="Layer_1" data-name="Layer 1" xmlns="http://www.w3.org/2000/svg" viewBox="0 0 1920 1080"><defs><style>.cls-1{opacity:0.03;}.cls-2{fill:#19292b;}.cls-3{fill:#f05663;}</style></defs><title>Artboard 16</title><g class="cls-1"><path class="cls-2" d="M1008.84,201.6l-1.72,1.29-1.61-2.51-.28-3.8,1-.57,2.29,3.06.71.42Zm34.29,643.64-.57,2.55-1.55,2.42-.59.15.67-.88.5-1.28-.21-1.26-.82-.69-1.09.16-4.38,1.64.25-1.84,3-3.16,1.7-1.16.74-.16,1.44.26.8,1.4ZM976.06,328.68l-1.22.88-1.1-.42-.81-.84-.58-1.41-.21-1.69-.57-2.81-.88-3.23.54-.88,1.77,2.1.88,1.4.88,1.26,1.38,2.95Zm210-132.11,8,7.38,4.42,1.48-1.13,2.18-1.36,1.05-1.11,1.47-.4,3.41.93,0h.31l.07,1.41-1.77,1.77.51.68,1,1.77.5.54-1,2.17,1.26.22,3.23-1,3.68.66,1.57-.88-.11,1.13-.12,2.55-.09,1.13,8.69-.44,1.66.48,1.57,1.47,1,2.07-.1,2,.07,1.41,2.14,6.24-3.41,7.38-2,2.93-2.65,2.54,1.42,3.18,1-1.33,1.14.65,1.34,1.2,3.08,1.25.39,1.53-.27,2.56-.57,3.13,1.49,1.19,6.71-.07,3.18-1.72,1.1.22.51,1.1,1,1.49h.4l.51-.45.82-1,.33,2.38.68,1.94,1,1.35,2.65,1.12,2.9,2.95,3.09,2.2,2,3,1.9,1.87,2.05-2.1-.76-.38-.31-.41-.33-.83,1.55-1.36,1.05-2.46.53-3.7v-4.38l-.64-4.62-.58-3.21.5-2.15,2.57-1.7,11.25-.67,6.25-2.78.41-1.72,0-2.11.41-1.72,6.19-4.76.88-2.73.42-3.54,1.35-2.77,3.29-4,2.32-1.84,7.71-1.92,2.18.42,3.69,2.72,2.21.88,17.11-4.14-3.94,5.22-15.64,8.54-6.85,6-8.23,2.65-2.73,2.57-2,4.22,2.29.7,1.18,1.05.57,1.77.51.39,2.25,4,.43,1,.73,1.22-.26,2.7-.88,3.87-.63,1.77-8.25,9-1.49.94-5.65.63-2.28,2.4-1.38,5.17,3,2.08,1.43.48,5.48.09,1.27,1.62.79,4.33-.88.76-1.58,1.77-1.06.88,2,1.29,10.43-.23,6.19,2.42,4.15-.69,7.08-7.39,4.67-.88,2.13,1,2,2,1.51,3.28.88,5.17.78,2.65,1.34.75,1.34.19.63.8.42,2.65,1.26,5,.28,2.38-.19,1-1.12,1.21-.36,1v1.13l.31,2.38v1l-1.77,5.77-.24,1.57-1,1.05-5.5,7.85-6.5,5.66-1.89,2.8.43,3.93-1.63,3.54-4.34,5.37,2.76-.32,2.35-2.13,3.94-6.05-1.13,4.73-2.33,5.24-.83,4.15,3.41,1.47,3.3-1.07,7-4.85,19.6-6.87,6.9-4.42,3.73-1.26,3.21,3-3.31,9.84-2.14,2.56.36,1.77.8,1.92.47.81.48.53,2.22,1.39,6.19,3.64,1.9,2.11-5,1.92-2.57,2.31-1.86,6.07-4.42,6.11-1.57,4.92-6.52,9.08-1.22,3.05-.88,3.45-.26,3.83,1.07-1.91,1.66-5.06.95-1.05,1-.78,2.91-3.46.88-1.48,1.45-3.78,10.3-18.41,1.93-1.56,2.57.37,7.85,5.06-1.65-2.13-2.89-2.75-1.19-2.31L1383,395.14l2.65.21,10.06-3.49,1.77.14,1.19,1,.88,2.65.3,2.24-.39,1.77-1.19.52.11,1.41,2.92-.38,1.34.31,1,1.34.21,1.54-.06,2.12-.22,2.71.78,1.63.88,1.19,1.81,1.41,3.82-7,2.27-1.88,2.87.47.57.95.24,1.39.09,1.41.18.69.59.09,1.33-.54.57.24,3.63,3.37.68,1.07.59,4.9-1.06,3.34-1.57,2.26-.81,2.19.34,1.25,1.45,4.25.19,2-.54.88-3,2.65,1.08,1.32.11,1.69-.14,2.13.24,2.52-3,2.65-8.69-.69-3.54,2.41,2.48,1.77,7.58,2.06.61,3.77-1.93,2.71-2.92,1.51-4.69.52-2,.73-3.76,2.85-7.81,2.18-2.32,1.77,1.66,2,14.56-6.83,4.62,0,9-3.15,2.92.6,5,2.83,2.65,2.32,1.09,2.31.61,1.22-2.11,2-3.33,6.5-2,1.44-11.76,4.1-12.7,1-5.43,1.85-5.84.46,3.1,2.16,10.9-3.27,14.76.49,6.4-2.23,3.54-.3,1,.76-.34,1.58-1.26,2.65-.11,1.42.19,1.11.07.88-.42,1-3.46,2-3.15.69-2.92,1.37.14,1.68,7.25-2.17,1.84,1.4.11,1.41-.88.36-.77.77-.68,1-.64,1.33,3-.25,1,.48.82.88.65.94.42.39.88-.79,1.25-3.21.73-.77.13-.88,2.31-5.71,3.54-5,.56,3.34.35,4.78.11,4.65-.33,2.72.15,1.68,1.89,1.25.69,2.06-.39,2.72-1.38,3.37-1.77,1.86L1435,520.4l-1.77,1.71,2,2.95,1.05,2.18-.15,1-1.45.83-2.65,3.48-1.42,1-7.08-1.11-5.86,1.48-2-.82-1.11-2.17-1.14-3.18-1.24-2.72-1.58-1.14-1.61-.29-3.35-2-5.15-1.28-5.71-4.78-3-1.06.82,2.48,1.12,1.77,1.28,1.17,1.12.62-3.14,4.06-19.46,2.2.11,1.86L1404,529l1,.88,1.47,1.57,1.37,2.15.69,2.2.88,1.06,4.83,3.85,10.25,3.67,2.18,3.21-3.73,3.42-4.77-.31-8.73-3.39-9.38,2.45-6.11-2.2-1.56,1.11,6,3.63,14,2.12,6.63,4.69.88,1.2,1.07,2,.5,1.94-1,.93-1.49.83-2.16,3.42-1.19.8-10.38-3.11-2.65,2.76,10.77,3.37,1.91,1.68.26,2.38-2.65,1.07-11,.46-3.18-1-.52,1-.74.88-1.85,1.42.13,1.68,3.26,3.41,1.77,2.41,1.72,3-1.51.69-4.12,4.42-21.18,6.28-3.54-.88-2.12-1.11-1.4-1.31-3.41-8.64-2.65-2.49-3-5-1.52-1-7.7-1.14,1,1.19,1.05.34,2.31-.17,1.39.88.05,2.4-.48,2.57-.09,1.7,1.64,1.86,5.09,2.32h1.6l.11,1.55.05,2.82,1.59,3.54,2.06,3,1.35,1.18,5.05,1.32,2,1.83-.88,2.61.78,1.49-16.63-4.2-4.71,4.29,1.71,1.86,4.05,1.69,2,2.11,1.11,2.46v2.11l-.88,1.9-1.77,1.4-13,.88-1.1,1.63,1.42,2.87,2.11,2.4,1-.07,1.17,2.32,2.18,1.26h2l.27-1.72,3.94-1.42,5.35-9.43,2.85-2.47.72,1.08-1.32,2.65-8.14,11.6-1.06,2.65-.19,2.13v4.79l-.27,1.72-2.8,6-.28,2,.19,1.4.18.83.32,1.53V663l-.43.73-.51.46-.41.73-.08,1.42-.18,1-.81,3.58-.34.73-10.1,1.83-6.88,3-2.48,1.3,4-3.66,8.58-3.13,4.33-2.14-2.65-1.51-11-.94-.77.34-.05,1,.39,3.08-.33.58-.69.61-2,2.25-1.16.5-.41.73-1.72,3.93-1,1.34-5.22,3.87-2.08,2.4-1.83,2.95-1.07,2.89.34-2.71.27-1.15.43-.88-.1-1.55H1320l-.52,2.29L1318,691l-1.58,1.51-1.12.64-.32.73.42,1.66.83,1.5,1.06.78,2.11-.42.88-.62.88-.88.65,3.06,1.09,3h-2.21l-2.65,4.12-1.89,1.11-4.59-.27-2.08-.88-2-1.42-3.35-3.6-2-1.57-2.06-.57-.88.62-1.65,3.06-.88,1-1.24-.2-1.15-.78-1.19-.35-1.19,1.63,1.38,1.61-1,1.05-1.11.49-2.44.15,1.57-6.45-.08-1.26-3.12,1-1.57,0-.73-1.51-.66-3.49-1.24-2.33-1.36-.77-1.09,1.34.09,1.55.88.94.62,1.23.52,1.52.41,2.23-1.36-.77-2.87-.82-1.38-1-.08-1.41.79-3.29-1.77-4.7-2.72-4.22-2.21-1.85-2.12-2-4-1.47-2.53-.57,1.77,1.31,3.46,1.21,2.07,1,1.2,2.33,2.11,5.52,1,1.77-.75,1.31-.83.47-.88-.37-.88-1.22.11,1.83,2.08,1.57.57,3.54-.59,4.12-1.34,3.32-2.34,1.41-5.58-1.24-2.14,1.77,1.44,1.05,1.53.48,3.24-.18-2.4,2.11-6.19,2.74-5.63.88-5.85,2.57-2.49,2.25-.52-1.1-.7-1.09-.29-1-2.56,3.94L1232.9,729l8.1-3.24,2,1.3-3.17,3-25.27,9.15-3.41,3.41,4.64-.22.07,1.41-6,5.78-2.09.8-.93.61-3.23,4.24-2.26,1.77-.88,1.17-.68,2-1.15-2.2-1-.24-1,.88-1,1.77.07,1.55,1.35-.06.06,1.41-5.79,4.48-2.13.65.48-3.26-5.23,4.32-2.43,3.2-1.42,3.87,1.65.07,1.25-1.32,1-1.31-2.38,5.31-1.28,2-6.89,6.48-4.49,7.79-3,1.77,1.21-.75,1.22-1.18,1-1.77.45-2.65-14.58,13.11-13.27,4.42-2-.5-1.77-1.91.82,1.38.88,1,.88.53,1,.11-1.82,1.19-1.6.48.42,2.38.05,3.24-.43,2.65-1.09,1-.52-.69-.24-1.54-.11-3.1-.27-.7-1.86-1.63-3.94-5.08-1.05-1-1.64-.5-.79.73-.21,2,.08,3.38.45,4.21.07,3-.58,1.29-1.36-.66-.28-2.11.34-5.65-.41-2.1-.8-2.65-.8-1.38-.26,1.56.23,6.05-.1,2.82-.42,2.55,1.43,2.07-.45,1.57-1.56,1-2,.5,1-5.1v-2.24l-.65-2,.37-2,.22-.88.36-.43.88-.59v-1.41l-.37-1-.32-.13.39-6.07v-3.38l-.33-1.4-.37-.83-1.15-1.77-1.18-.95-.51,1.28-.06,5.92.23,2.39.88,1.95-1.57,1.6-1.89-.08-1.64.33-1,2.85,1.36,2.36.61,2.52.73,2.51,1.77,1.64-1.72,2.73-3.71,1-7.2-.06-1.54-.38-3.69-2.71-1.34,1-1.33,1.59h-1l-.45-3.93-12.17,8.08-13.68,5-9.33,2.47,1.09-1.57.57-2-.09-2.53-.61-2.24-.67,3.26-1.17,2.28-1.42.59-1.49-1.51.25,1.26v.57l.07.56.45.7V835l-12.94,9.73.88-5.09,2.53-2.87,3.22-1.34,2.83-.34v-1.69l-6.65-3.24-2.46-2.77-.43,3.1.12,1.26.44,1.82-2.55,1.88-2.48-.37-2.52-1.22-2.74-.09,2.09,1.65v1.41l-2.53,0-1.15.44-1,1.29-1.67-.81-1.77,1.3-1.45,2.56-.55,2.55-.49,4.1-1.3,2.7-1.77.73L1022,849.7l-1.25,2-.47,2.12.56,1.54,1.67.68,1.24-.58,2-2.15,1.52-.45,8,.71,2.73-.88-4.19,8.53-2.59,2.3-2.65-1.36.3-.42h.12l.06-.14.18-.88-4.13.07.16,2.11-2.82-.24-1.55,1.29,1.28-.3.88.69.34,1.54-.27,2.65,7.52-.55,1.42-1.29-2.37,7.65-3.54,7.08-4.56,5.31-10.3,4.81-6.57,5.17-6.34,1.64-3.36-4.61,1.24-1.71,2.85-1,1.09-1.28,1.32-2.55,1.27-1.14,3.2-.19v-1.55l-2.89-.1-5.41,1.77h-2.73l-7-4.29-2.05-.4.62,1.68-.75.29-.31.42-.3.88,1,1.4,2.21,3.78.73.84,1,1.4.51,3.23.32,3.1.4,1.54,4.22.23h2.4l1.71.26-21.71,3.63-12.56,6.19L943.78,916l-5.18-.12-19.51-6.07-8.23,2.25-3-.88L909,911l.44-.42.5-.88-3.63-.88-1.77-1-1.51-1.42-2.05,3-13.67-3-1.29-.57-5.31-4.11-8.31-1.77L860.59,892l-16.25-4.67-3.18-2.86,1.39-.27.76-.84-.08-1.13-1.22-1-1.22-.16-1.72,1.39-1.26.41-9.69-1.81.27,1.13,10.08,2.25-26.71-2.21L810,879.37l-.44.13-.26.42-.26.42-.38.42-.45-1-.31-.28-.65-.15.64,3.1h-7.77l-3.79-1.05-15.12-13.27-1.49-1.87,1.42,1.3,1.62.6,1.67-.39,1.59-1.38-1.31-.31-2.26-1.18-1.31-.17.57-3.54.2-1-1.87,2.72L778.41,864l-1.77-.6-2.21-1.88v-1.41l3.41,1.49-1.27-3.54-1.77-2-1.94-1.77-1.77-2.15-1.54-4-.81-2.65-1.15-1.43-2.5.22v1.41l3.39,5,2,3.85,1.29,3.69-6.55-6.19-3-4.16-1.77-5.4.38-.27,1-1.39-.73-1-1.36-3.78,2.88-3.18,3.22-1.77,6.78-1,3.14,1.62,5.45,6,3.3.5-1.61-2.15-2.37-4.27-1.34-1.56-7.56-4.68,3.15-5.56.51-2.25-.3-3.1-1.1-.88-.88.68.27,1.84v1.41L772.06,820l-4.48,5.53-2.87,3.18-2,2.07-2.45.65-.83,1-.14,2.11V837l-.27,2.25-.83,2.23-.51.55-4.42-2.79-4.33-4.06-3.35-1.64-6.89-5.82,6.57.18,1.13.73,2.37,2.32,1.52.18.22-1.26,1.35-.39,3.33.23v-1.55l-2.8-.07v-1.55h.34l.71.16.38-.13v-1.41l-7.21,1.65-2.51-.5v-1.41l3.54-4.42,1.18-6.87-1.21-5.81-3.75-1.51v1.41l2.8,1.34-.39,3.09-2,3.61-3.87,5-2.45,1.77-2.72.63-2.65-1.77,1,3.83.32.88-3.92-4.48-8.85-6.32-12.68-5.19-4.24-3.39-2.35-1.2-2.36-1.91L697.53,800l.65-1.67L698.1,796l-.88-5.39,7.76.83,4.33-.88,3-2.57-7.49-.25-4.68-2.84-1.72-.48-5.18,1.23-1.09.95-.95,1.24L688,791.14l-1.18.8-.05,1.41,5,2.43,2.49,2.34,1.15,3.42-2-1.2-4.5-.88-4.67.4-2.83,1-1.71,2.34,1.16,4-.47.12-.33.41-.27.56-.42.41-29.52,2.92L646.39,809l-3.2-3.66-3-2.39-3.3-.71-16.95,5.43-4.08-.05-1.42-.21-5.24,1.44-26.75-7.56-2.18,1.52-2,2.65-1.93,1.77-2.09-1.66,1.51-1.47-2.36-.12-3.89,2.33-3.26.81-2,1.86-1.16.64-1.11.22-9.61-1.72-2.26.72-.54.67-.58,1-.67.8-.81.39-1.17-.77-1.35-3-1.08-.77.79-2.21.88-1.5.68-1.51.3-2.52-.29-2.41-.74-1.18-1-1-1-1.89,1.68-2.16,2.49-8.18,1-1.77,4.42.26.72-.66-.29-2.41-1-.06L550,779.19l-1.89-.53-2-1.77-1.53-3.05-.43-4.25,1.77-4.26.48-1.77.27-2.52.12-4.79.15-2.11v-1.83l.7-1.94,1.14-1.49,1.31-.77,1.38.65,2.82,3.54,3.31,2.59,2.48,4.23,2.1,5.62,1,6-1.42-.08,1.5,2.49,2.36,1,9.73,1,2.44-.43,1.63-1.47-1-1.77.68-1.77,1.44-1.48,1.26-1.06,1.52-.63,4.76-.59,3.75-2.65,1.13-.36,1.24.63,2.45,2.24,1.3.63,2.65-.88,5.05-4,8.38-1.28,2.8-1.7,2.52-3.69.77,1.31.64.31.58-.54.66-1,.07-1.41-1.64-1.91-2.32-1.77L615.8,749l-1.71.88,1.22-3.61,2.55-1.71,2.75-.15,1.86,1.21-.81.25-1.91,1.32,1.77,1.07,2,.37,2-.33,1.77-.77.08-1.69-2-.1,1.48-1.2.63-.26-5.91-6.06-3.29-2-3.43-.3,3.12-2.25,14.73,3.54.7.88.48,1,.51.88,3,1.82,1.6-.07,1.54-1.49-1.14.09-1-.19-1-.61-.88-1,1.25-1.77.77-.67.88-.52-2-1.64,2.65-.88,3.45,1.28,1.33-.08,2,.09,2.28-4.42-3.54,1.82-1.85.06L643,730.4l.82-2.65,1.63-1.34L648.6,725l-1.94-1.35-3-.55-3.08.29-2.2,1.17.79-3.91-1.05-1.77-1.94-.51-2.76-.12-1,.38-.88.52-.75,1.1-3.67-.88,3-2.4,1.07-1.93-.34-3.26,6.19-4.09,3.11-3.25,2.34-3.71,1.92-4.71,1-1.23,1.72-.88,2.18-.47,4.33.88,1.83.08-1.91-1.09-.82-.74H652l4.13-3.21,2.18-1,2.36-.33L674,692.21l2.3-.34,1.77-2.75,1.13-1.77-4.51,2.36-2.3-1.21.05-1.41.94.18.8-.39,1.6-1.2.1-1-.14-.29h-.25l-.27-.29h.61l-17.79-1.84-8.46,1.62-7.7,6.55-.41.83-.39,1.26-.52,1.39-.88,1.23-.88.52-1.92.62H636l-1.59.64-4.6,3-1.46,1.77-3.89,3-4.64-.78-8.69-3.8.08-1.69,4.27-2.33,4.08-3.47,3.54-4.48,2.17-1.31,2.07,1.36,1.88-1.77,4.42-1.2,2-1.32-8.73-1.25-2.72.72-2,1.32-1.54.35-1.47-1.19-1.64-4,1.44-2,.34-2.65.19-3.23.88-3.48.68-.25.76.74.66.17.7-3.91.6-1.77,1.42-3.18.23-2.39,2.57-2.13,11.26-5.31,5.84-.3-.37-2L643.8,647l-1.19-.48-1.41.22.06-1.41,1.86-1.61,3.94-4.9,3.33-1.41,1.68-1.77,1-.8,1.31-.23,4.1.45-.57,4.07,1.94.79,2.51.11,1.14,2.44,1.18,1.6,8.11.88-1.56-1.33-3.43.28-1.67-.63-1.36-1.6-2-3.61L661,636.83l4.06-1.52.06-1.41-10.06-.42.07-1.69,5.72-3.14,1.89-1.89,1.62-.35,7.64,1.57.07-1.69-7.5-2h-2.39L655.74,630l-2.49.18.07-1.55,2.65-2.28,1-1.65.66-2.23-4.07,4.05-1.18.65-.88,1.09-.88,5.31-1.26,1.07-1,.66L644.16,639,639,640.8,637.43,642l.47,3.12L635,644l-2.76.58-5.92,4.66L623.9,652l-1.59.88-1.51-.78-.93-2.16.23-2.25,1.81-5-2.06.6-1.06,2.49-.44,3.54-.2,3.54-.41,1L615.16,658l-.47,2.07-.08,1.55-.22,1.4-.88,1.23L610,664.1l-.58.81-.41.82-.88.66-1,.37-.8.1-1.54-.78-1.57-2-1.37-3-.69-3.7-.88,1.36-.8.8-.81.52-1,.23,1.54-2.74,1.36-3.46.57-3.54-.84-2.58.41-.27,1-1.22-.72-.88-.76-.6-.83-.33-.94,0,.43-.68,1.12-2.34.07-1.41-4.68,3.14-2.83,1.26-2.11-.39-1.65-2.77-.5-3.84.55-3.54,1.49-2.32.07-1.41-1.65-.37-1.15-1.77-.74-2-.5-.88-1.2-.77-1.34-1.63-1.21-2.18-.88-2,2.38,1.26,2.4,2.65,2.48,1.68,2.61-1.84-2.08-.11.73-2.5,1-1.64,1.2-1.06,1.37-.77L593,615l-.41-.3.08-1.55,11.5-5,3-3.54.08-1.55-6.28,4.9-3.31,1.52-3.13.54-2.72,1.74-3.15,3.08-2.85,1.82L584,614.41l1.32-.88,2.91-3.65,2.1-2,1.19-1.49,1.09-2.34-.67-1.58.88-.38.57-.67,1.36-1.9-2.06-2.65-2.85-1-6.19-.05,1.55-3-2-.11.82-2.35,2-4.26,1-2.65-1,.23-.88.8-.88,1.5-.77,1.93-.49-2.14-.73-.88-.95.23-1.1,1.11-.09,1.55-5.22-1.85-1.54.62-3,3.08-1.63.61-.1,1.69.74.19,1.77,1.51-9,1.18-2.21-1.82,2.26.42,1.15-.07.88-.94L564,591l-.88-1.88-1.1-1.77-.8-.75-10.25-.6,1.42,1.77,4.88,3.4-.09,1.55-2.57-.29-4.32-4.34-2.73-.59h.66l-12.06-1.87-11.5-.73L511.36,583l-5.23-6.41-5.31-.65-9.48,1.47-.1.56-1.89,3-.73.94-1.09.88-1.12.63-1.19.19-11-4.32,1.09-.88,1.21-.48,1.22-.19-1.57-.68-3.86,1.7-3.18,3.54-.75,4.42-2.19,5.2L463.44,594l-7.19-.26-2.11.41-4.42,2.06-2,.13-6.68-4.61-1.33-2.36-1.34-.67-.95-1.06-.08-4-.38-2-3.63-6.92-1.5-3.79L430.71,567l-1.87-9.73.76-1.64,1.77,2.12,1.88-.7,3.88-3.93,1.92-1.11,10.69-2.14,2,.43,7.37,5.64,10.44,2.75.95-.64,2-2.65,1-.88,4,.42,1.05-.88,3.89-5.37,4.05-1L495,549.9l.11-1.69-.49-.74-.25-.73-.13-.72-.29-1h4l1.26,1.21-1,3.89,1.19.93.88-1.07.88-1.49,1.06.21.21,2.13-.12,3.13.37,1.58,1.94-2.12,1.4,1.5,1.77-.73,1.57-2,.74-2.21-.19-2.41-.55-3-.29-3.26.5-3.07,2.86-3.48,4.06-.43,7.74,1.64-.88,2.65-1.3,1.61-2.93,1.88.21.88.3,2.28-1.14.07-.88.79-.76,1.5-.88,1.92,4.79,8.22-.34-3.54.12-2.81.57-2.36,1.07-2.18.66-.52,1.83-.16.81-.51.71-1.22.81-2.91.5-1.38,2.87-3.34,2.78-.11,2.44,2.41,1.95,4.21,1.66-2.3,2.09-1.42,6-1,5.94-3.59-1.38-1.1-7.08.57.11-1.83L549,532l7.6-7,3.82-.76-.59,1-.74.52,1.69.66,1.54,1.22-.25,1.68-.08.27h.06l.1.88-1.46,2-3,1.38-1.15,1.34,1.26.35,1.61,0,1.67-.61,1.47-1.19.36,4.54.7,1.88,3.12,1.77,4.06,4.18,1.57.8.08-1.41-1.14-.88-1-1.47-2.11-4.35,2.78-3.23,1.49-1h1.94l.34-2.95,1.86-.74,8,.88,8-1.55,12.81,3.35,8.36,4.94,1-.65,1.56-1.89.88-.66,7.19.35,1.91,1.08,2,1.65,2,.94.19-.27,1.77-1.47,2.41,1.95,10.73-1.34,2.65-2,.21-2.81-1.59-2.33-2.88-.69,1.11-2.91,1.17-.94,1.42-.5,1.77-1.61,1.33-2.48,4.51-11.5.66-7.72-2.9-3.37-4.16.24-3,2.64-.07,1.55h.71l-.08,1.69-15,11.74-4.9,1.88-27-6.71-6.56-6-1-.62-.45.11-1.43,1.06-8.77.79-2.51-1.26L577,504.13l1.5-.88,2.87-.83,2.26-1.85.67,1.31.69.46,1.77.1.09-1.69-2-1.66-2.41-.42-4.68,1.57,1.17-3.32,1.89-3.14,3.45-4,4.54-1.87,1.77-1.88-.07-3.67,1.44-.49,3.39.74.88-.8,3.11-5.31,2.65-1.84,10.71-2.41,9.29-6.59,3.64-4.05,6.19-2.95,2.28-2.29-.22-.29-.24.13-.13-.29.08-1,1.4.2,2.19,2.78,1.43.2-.69-3.54-.39-1.15,6-3.1,12.45-3.4,3.66-2,2.32-1.31-9.17,2.57h-3.32l-6.66-1.85-5.67,1.43-1.84-.23,2-3.43,2.18-2.64L636.19,436,635,433.38l-.31-3.4-1.29.79-1.31.5-1.35.22-1.34-.2.41,3.12L629,435.5l-1.33-.49-1-.75-.74-2.15-1.51-5.45-1.13-1.89.25,3.86-.39,3.23-1,2.77-1.49,2.47-1.77,2-1,.8-.88.24-.4,1-.69,2.08-.88,2.07-1,.94-3.58.1-1.55-.65-2.25-4.24-5.31-5.35-3.87-2.32-.42-2,2-3.54,2.12-1.44,10.55-1.68,4.53-2.87,2.28-.59,1.1-.93.38-2.38.16-2.65.3-2,.88-1.65,1.11-1.07,2.12-1.59-2.8.57-7.41,9.78-3.34,2.45L608,423.43l-6.68.21.08-1.55,4.15-2.74,1.3-1.49.09-1.69h-2l-1.47,1.19-2.65,3.25-2,.6-1.15-.88-1-1.33-1.65-.37-.09,1.69,1.08,1.77-.61,2.08L594,425.8l-5.31,1.82-1.36-.78-.77-4,.12-3.8.58-2.8.12-2.81-1-3.87L585,401.45l-1-2.73-1.28,2v1.13l-.2,2.53v2.4l1.25,4.86-.1,1.83-.63,1.77-2,3.84-1.19,1.55-1.2.07-1.25-2.18-1.56-4.42-.77-.33-.88,5.87-.82,1.65-1.07.79-1.19-.07-.67-1-.65-1.88-1.77-7.3-.19-3.68.88-3.76,2.37-4.1-.8-1.32-.48.26-.51.81-.88.09L566,398.26l-1.57-.09-.57.25-.52,1.37v1.27l.55,5,.73,2.87,1.55,17.45-1.4,1.33-1.58-.51-1.62-1-1.77-.24.09-1.41.65-1.94-.34-1.57-1-1.05-1.24-.35-3.18.8-1-.34V418l-.8.09-2.35-.28.11-1.69,2.41-2.25,4.54-5.51,2.57-1-.78-2.58L558.08,403l-3.18-2.31-.83,5-2.18,4.13-2.52,2.11-1.83-1.52-.45-2.57-.26-2.84-.42-2.28-.94-.88-.36,1.53-.88,7-.41,2.23L541.66,415,536,416l-2.75,1.38-5-3-2.58-3,.5-3.21.09-1.41-2.72,1.37-1.89,4.25-.45,5.05,1.58,3.07-.11,1.69-1.31,1.19-2.36,3.37L517.61,428l-1.55.32-6.19-1.12-2.52-1.3-1.49-.39-1.42-.8-1-1.77-.88-2.18-.57.1-.62.1-.49.25-1,.88.42.31.24.3.57,1-2.76.94-5.25,3.72-12.92,1.77-2.77-1.9-.26,2.65-.47.81-.66.23-.88.79-4,5.92-17.69,3.6-4.34-.88-3.54-3,.13-1.69.67-1.77-.27-1.72-.82-1.48-1-1.31,1.68.27.7.48.71,1,.59-4.19-1.56-2.24-2.19.25-1.19,2.87-2-3.54L427,418.14l-27,.54-3.36-.88-1.71-4,4.35-2.17,2.25-1.93,1.1-2.17,1.33-1.44,5.77-3,1.82-1.82.71-3.48.32-4.07.8-3.33,3.07-1.72,1.77-2.11,1.37-.31,2.34.62,8.67,6.09,2.57.78,1.51,1.11,4.61,7,3.54,2.54,6.43,2.34L450.6,409l1.16,2.78,1.47,2.23,2.72,1.63,2.75.07,5.55-2.41L460,413.1l-2.17-.73-1.7-1.12L454.71,409l-1.1-2.77-1.27-2.39-1.77-1.13-4.21-5.56-2.19-4.7-2.65-4.17-1.39-3.36L454,389l8.76,6.05,2.83,1.2-1.5-3.64-2.3-3.14-2.5-2.31-4-1.88-4.58-3.61-4.19-1.88-1.92-2.27-3-4.9-3.17-8.31-.09-2.83.34-2.8.13-2.65-.76-2.75,4.23-3.19,4,.6,37.59,25.2.8,1,1.43,3.54,2.37,2.29.58,1.17.67,4-.59,2.5L488,392.75l-1,3.46,1.62,1,2.27-1.53,4.21-5.07.3,1.15,1.34,2.07,1.18-2.18,5,1.77,2.32-.55.11-1.55-.77-.62-.34-.45-.57-2.16h1.64l4.42-2.65,1.53-.18,1.46.38,1.47-.19,1.4-1.32-11.16.22-5-1.9-3.54-2.79-1.2-1.49-1.46-2.79-.74-2.59,1.08-1.28,6-2.26,1.23.65,1.35,1.36,7.7-.45,2.56-2.09,2-.43,4,2,2,.27,2-1.7-1.15-1.22-.55-.46-.78-.05.1-1.41,4.6-2.8,1.44-1.6-5.17.5-3,1.06-4.24,3.39-25.06-2.33-4.79-2.47-3-3.33-5,1.46-1.05-1.07-1.1-2.34-5-6.59L466,343.3l-1.42-7.6.88-6.86,4.27-4.19h1.85l5,3.63,6.8,2.06,1.65,1.25,2.65,3.87,1.62,1.53,1.77.41,6-1.41,11.12,5.44,3.82.27,6.25,5.37,3.54,1.77,3.33-1.47-7.52-3.05-2.3-3.25-7.63-1.23-2.29-1.57L501.27,334l-9.43-2.94-2-1.84L485.32,322l-2.45-1.59-1.08-2.19-1.95-1-3.9-4.42-3.37-5.63-.69-1.89.53-7,.79-3.62,1.57-2.57,3.9-1.11,4.68,1.48,15.92,11.33,4.79,1.77,3.42-1.77.19,3.54.88,3.18,1.46,2.22,1.77.83.1-1.41-1.38-2.49-2.34-7.23-1.77-1.68-2.05-.57-4-2.43-2.17-.58-1-.88-2.52-4-5-5.31-2.76-4.58,3.15-2.31,8-.12,6,1.42,7.68,7.31-2-2.26-3.2-6.19-2-1.42-8.85-.5-2.05-1.71.12-1.69,1-1.62,1.49-2,1.68-1.57.88-.35.67-.24h3.83l1.51-1.17.35-2.95,2.15-1,14.11,5.22,8.85,7.52,2.72.88,1.77,1.53,2.08,3.66L538.2,287l-.59,3.35.31,5,5-6.88,1.85-.73,1,.63.8,1.46,1.08,2.89,1.53,2.49.12,1.28-.18,3.24.26,3.69v2.27l-.71,1.65-1.77,2.86-.4.4-4.63,7.61-1.06,2.19h.57l2.21-3.1,5.43-5.86,2.05-3,.63-1.77.53-2.09.71-1.65,1-.5,1,.77.61,1.77,1,5.42-.49,1-.25.69,1.4-1.19,1.63-2.16,1.54-1.18,1.31,1.63-1.9,5.19-2.49,5.07-2.94,4.19-3.18,1.92,3.71-.05,1.77-.74,1.67-1.88,2.13-5.66,1.53-3.43,1.07-.64.88,6.26-1,6.19-1.16,5.31.29,3.26L566,323.32l.13-5.08.72-5.74,1.1-5.44,1.2-3.74.88-1.65.54-.39,6.19.93.58.74v3.1l.49,2,.73,1.17,3.3,4,3,6.52.5.88v1l-.68,4.9-.55,2.51-.69,2.08-.78,1.09.19.88.37.58-5.54,13.09-1.22,4.17.55,2,1.24-.35,2.65-8.6L588,327.71l.88-4.47.1-1.69,2-.31,1.14,2.32.88,3.29,1.28,2.89.65.18.57-.53h.57l.64,2-.16,1.82L596,335l-.17,1.54,1.21,1.05.23-1.11.55-2.23.73-1.65.64.46-.09,1.55L598,342.3l-.88,2.49-2.4,4.25-1,2.49-.08,1.41,3.68-1.77,4.28-12.46,3.09-2.23.09-1.69L603,332.57l-.83-4.42-.4-5-.58-4.12L600,315.75l-1.57-3.19-1.82-2.35-1.9-.95,1.11-2.9.56-2.8.68-2.5,1.43-2.18,1.81-.75h1.83l1.67-.76,1.22-3-1.88-.1-4.67,2.15L596.65,298l-1.77.61-7.49-4.37-4.83-5.63-21.25-10.86-6-7.29-3.18-10.23,4.42-2.55,13.8-2.83,2.86.31,9.55,3.65,2.52.14.95.34.45,1,.22,1.14.38.88,2.3,2.65,1.29.35,1.32-1.19-.57-.88-.37-1-.65-3,4.51.26,2.36-.57,4.2-3,4.58-.18,2.18-1.57-12.52,1.3-3.69-2.18-1.67-2.07.38-.26,1.48-.06,1.56-1.47,1.06-1.77,1.43-1.19,1.55-.76,1.49.22.09-1.69-2-1.34-1.21.35L592.58,247l-4.79,2.27-5.41.26-4.22-1.23-.77-.47v-2.54l.88-1.5,2-2.14.41-1.67.77-4.48L582,234l1.33-1.34,4.42-1.72-4,.62-3.12,2.08L572.93,241l-1.77.88-3.83.48-1-1.48.8-2.92,1.6-3,1.34-1.61.1-1.69L567,232.73l-1.63,1.17-1.68,2-4,6.24-.74.52-2.36,2.4-14.21-4.71L538.66,238l-2.26-3.54L535,233l-.52-1.59,1.34-1.88,3.54-.05,4.29,2,3.93-.31L550,224.2l-2.54-.58-2.66-2.41-2.44-3.41-1.72-3.64,2.94-2.07,2.75,1.59L549,216.4l2.65,1.58-.51-2.57-.42-1-.6-1.32,10.06-.88.64.18.48,1,.58,2.86.51.88,1.91.68.88-1.64-.18-2.27-1.42-1.36-1.46-.65-4.19-4.38,9,.56,1.56.8,3,3.43,4,1.94,3,4.13,1.77,1.37,2.35-.14,3.8-4.16,2.23-1.42-.16-.72-.23-2.41,3.64-1.06,2.79,2.56,2.65,3.54,6.11,3.44,1.4-.2.55-2.8L605,214.2l-2.3-1.82-.55-2.29,2.87.72,2.65,3,1.9,4.62.53,5.39,1.43,3.46,7.18,4.47,2.09,4.48-1.42,2.18,1.1,1.33,3.82,1.19-.08,1.55-1.64-.65-.76.95-.2,1.82-.13,2.53.4,1.15.72,1.59.09,1.7-1.5,1.62-.09,1.69,1.11,1.61,1.32-1.34L625,254l1.57-.63,1.38.08.8,1,.66,1.58.88.74.79-1.51,1.5-2.89,1.49-.35.74,1.59-.7,3.35,6.55-.39,1.64.78.88-1.51h.8l.73.74.67.88.47.88,3,5.5-1,1.5-5.58,4.42,1.15.88,1.23-.65L646,269l1.42-.64,1.33.34,4.12,3.86,1.06,1.77.71.73h.88l1.9-1,1-.24,5.61,3.35-.29.83-.52,2.1,1.55,1.05.8,2.72-.15,2.81-1.28,1.21.28,1.42.67,2.28.1,1.13v3.66l.3,4.42.53,1.57,1.21,1.18,1.33-.22,1.67-.88,1.59-.35,1.1,1.77V307l-.88,2.78-1.23,2.65-.88,2.36,1.21-.23,1.5-1.06,1.28-1.21.59-1.25.18-3.66v-1.93l-1.67-4.59,1.19-1.22,3.33-1.56,4.12-.11.65.73.43,1.71.34,1.71.34.88,1.68.88L684,305.49l-2.05,1.62-.88.25-.69,2.09.34,1.71,1.65,3.17,2.24,2.06,10.1-2.42,2.65.8,2.13,1.34,1.57,2.73,1,4.83-13.1.78-2.56,2-9.87,2.42-1.38-.05,1.57,3.31,2.6-.32,5.31-2.61,8.73-1.21,2.65,1.65-1.19,1.93-4.1,2.65-.06,1.55,10.1-2.44,2.36,2.2,1.19,4.56.14,4L703.15,347l-2.83,1.59,4.33,3.26-.06,1.69-5,10.68-1.77,2.89L695,369.51l-9.6,3.3-.07,1.69,2,.36,3.54-.57,1.55.48,4.86,3.42,1.42,1.46-8,9-2.84,2-12.65-1.06-.88-1-1.44-3-.38-.58-1.77-1.49-1.56-3-1-3.28-.06-2-2.2-3.33-2.8-1.67h-3l-2.79,1.43,1.77.36,4.27,3.15,1.42,1.47.18.72,1.81,3.74.36.3.14,2.82-.36,1.82-.82,1.51-1.26,1.64,1.44,1.61.73,1.3.3,1.14.37,3,1,1.88,1.07.88.43.73,1.63,1.48,15.65.2,2.65,1.65,1.11,3-1,2.5L685,416.08l-2,2-.06,1.55,4.64-2.36,6-5.13,5-.95,1.71,9.93L698,429.39l-5,7.7-5.76,5.69-4.61,1.65-.06,1.55,9.65-3.3,3.79-3.24,2.11-.63,2.09.5,1.33,1.32,2.5,4.6,3.49,3.54.88,2.28-.83,3.78,1.29.88.15,1.7-.32,2.39v2.82l.38,5.09-.09,3.54-.59,4.48V478l3.27,12.09,1.22,2.3-.4.41-.1.14v.28l-.23.56,1.81,2.18,1.83,3.72.88,4.54-1.14,3.87,0,1.41,1.52,1.46.61-.54,1-.67.88-3.21L718.29,501l-.14-3.67-.24-1.7-.75-2.28-1.57-3.54-.67-2,1.47-2.49.58-.69-.26-2,.64-1.39,1-1.23.75-1.39.65-3.54V472l-1.41-17.24-.14-7.19,1.31-3.2,2.87,1.77,1.89,4,2.57,9.81,2.65,5.58.33,1.7.6,1.57,3.2,1.23,1.29,1.17.76-1.67-2.31-5.31-2-7.08-1.47-7.52-.56-6.64-.19-5.36.09-3.66.49-3.37.45-1.26,1.2-2.08.47-1.11,1.17-6.59.36-1.4,3-5.55,10.84-8,6-7.58,1.77-.94,1.81-.51,1.34-.95.38-2.25,1.26-.11.88.73,1.67,2.58.41.15,1.23-.25.32.15.21,2-.28.7-.47.13-.25.56-.88,9-.2,4.64.67,3.4-1.24,3.77-.16,3.94,1,2.42,2.12-.79-.88-4.25.24-3.65,1.26-1.66,2.17,1.88.78,1.42.06,1-.09,1.26.31,2.65-.42,1.68-.25,1.55v1.26l.33-.13,1.72,1.17.54.57.6,1.85.31,1.56.43,1.42,1,1.43,1,.88,1.12.59,1.17.17,1.2-.11.33-.27,1.81-1.23.88-2.38.55-3.54,1.22-4.76-1.06-1-1.36-3.13-1.06-.59-3.25.2-1.54-.46-1.27-1.58,3.15-1.19,3-.07,1.26-.53,2.65-2.05,1.35-.39,1.15,2.14-.69,10.15,1.3,3.27-.27-3.67.94-2.8.69-2.54-1.06-3.41,1.14-3.08,3.12-4.3,1.49-2.65.38-1.68.19-3.66.5-1.68.88-1,1.71.18,2-.52-2.08-.61-1.22-2.71-.11-3.25,1.31-1.52,1.24-.82.95-2.24.65-3.23.27-3.8-.64-5.78-1.72-5.39-2.19-4.27-2.18-2.44V362l2.53-2.2-.79-6.63-2.26-7.38-3.33-8.1-.62-2.12-.42-7.9-.49-3.81-.94-2.84-1.29-2.42-1.56-2,1.49-2.22,1.36-3.35.51-3.65-1.13-3,1.89-1.65,2.21-.37,3.82.65,1-.41,1.7-1.94.88-.69,1.24-.4,3.25.49,1.77-1,3.4-4.17,1.48-1,4.48,1.77h1l1.05.16,2-1.77.41,4.8,1.15,2.84,1.77,1.87,2.15,1.44-.65,1.68,1,.88.65,1.84.8,3.4,1.18,3.4,3.79,7.53.51,2,.29,1.84.47,1.42,1.11,1-.35.7-.57,1.68-.33.7,1.77,3.12,2.35,2.43,1.68,3-.26,4.08,1.65,1.72,5,.88,3.69,2.44h1.12l1,.15,1.13,2,.54.57,1.19-.12.49.29.58,1.7.21,1.56.12,1.69.27,1.42,2,4.53.53,1.7.37,2.82.46,6.19.61,2.54,2,2.84,4.77,1.45,1.86,2.83.62-4.79.68-1.68,2.87.31.34.42,1.29,2,.66.57,1,.43,2.65-.12-.88.42-.67.84-.3,1,.34,1.83h.84l1.72-1.11,1-1.26.88-3.24,1.09-6.47.71-6.62.1-5.63-.6-5.36-1.32-5.64-2.57-7.91-.25-1.41-5.41-6.24v-1.55l.42-2.25.79-1.68,1.16-.84,1.7-.41,1.85-1.11,1.77-1.82,1.4-2.65-1-1.27-.88-1.84-.7-2.26-.88-4.79v-.88l.41-.56.88-1.82,1.67-2.11,5.31-2.79,12.33-2.05,4.31,3.4,2.28.42-.19-3.8.72-.88.74-.57.8-.28.88.28-.26.88-.38,2.26,1.86.71,3.06,3.36,1.88.57L910,307.77l-.88-1.26-.6-1.69L908,302.7h.63v-1.44l-.51-.42-.88-.88-.51-.42v-1.41l.88-1.55,1-5.35.6-2.4.88-1.41,3.17-2.81,8.23-3.1,2.9,1.41-.65,7.32,1.77-.71,1.22-2,2.1-4.94-.43-2.26-.26-.88,1.67-1.42,2.48.42,4.62,2.38-.7,3.39-1.55,4.94-.27,3.38,1-.14,6.59-6.93,2.71.55,2.24,2.8,1.9,2.95,1.72,1.4.88,1.55-1,3.67-2.6,5.79,1.18.13,1.31-.43,1.26-.88.94-1.27,1.05-.88,1.23,1,1.19,1.4,1,.84,1.44,1.68.95,3.94.75,4.64,1,3.54-1.67,6.78-.69,4.09.24,1.69,6.65,1.64,4.31,2.78,6.88.88.88.7,1,1.82,1.59,3.64,2.26,1.83.74,2.39.49,2.65.88,2.95.19,1,.33.7.75.27,1.7-.3.84.27.65.84,1,2.8.28,1.83-.12,6.34.41,2.53L992.5,372l.54,1.68.1,9.58.34,1.41.82.69,2.78,4.05,4.48,4.42-.45,3.1.52,4.08,1.18,3.22,1.52.54,1.15-3-.15-4.09-.88-4.08-1-2.65-.77-1-2-1.38-.57-1-.44-2.53.27-1.42.48-1.13.3-1.27-.09-2.11-.22-1.55-.11-1.55.31-2.54.48-.88,1.57-1.43.45-.88.49-4.24-.34-3.54-2.94-10.67-.07-.71v-3.1l-.24-.88h-.57l-.65.29-.5-.27-1.89-3.92-.7-.83-.09-.28-.15-.42-.27-.42-.5-.27-.45.57-.75,2.12-.31.42-1.28-.83L989,339.77l-1-1.68.82-3.25-.38-3-1.18-2.33-2.65-1.66-1.92-4.77-1.2-2.1v-1.55h.69V317.8l-2.59-6.32-1.26-10.55.37-10.71,2.41-6.51,1.19-.57,8.27.47,1.26.69,2.22,1.95,1.29.41,3.93-.48,1.43.4-.19.88v.28l-.05.14-.42.42,3.48,1.92,9-2.54,4,1.77.77,1.68,1,4.49.83,1.67,1,.55,3.73-.63,1.62,1,3.05,4.17,1.77,1,1.25,1.11,3.74,5.56,1.19,2.51,1.62,6.45,1.12,3.08,3,2.19,1.63,2.22,2.49,4.6,3.34,9.37,1.42,2.93.27-4.38-.88-3.36-1.3-2.93-1-3.36,1.77.1,2.11-.61,2-1.18,1.63-1.59-8.48.62-2.31-1.77,14.74-.63,1.09,1.1.69,2.52L1063,332h.57l.45-1.57v-1.79l-.38-1.54-.88-1.39v-1.41l1.18-1,1-1.72.51-2.41-.36-3,1.44-1.77.54-1.14.44-1.7v-1.26l-.32-3.54.1-3,1.06-3.13,2.26-3.16,2.65-2.33,2.26-.88,1-1.29.47-2.65v-2.65l-.4-1.11-1-.67.41-1.7,1.77-3.15,2.43-2.74,5.55-2.27.88-4,2.49,2.18,9.24.71,2.47,1.61.09.14,1.92,3.88,3.87,9.6-.07,1.27V292l.07.42.1,1.12h-1.28l.05,1.55,1.11.95,1.19.38,1.14-.18,1-1.3-.63-.12-1.39-1.36,3.19-2.65,11.5-3.64,3.43,1-1.49-.09-1.43.62-1.36,1-1.26,1.77,1.2.8,1.77,3.18.65-.31,1.69-4.57,1-1.88,1.06-.6,2.65,2.44,2.05,3.87,2.16,3.44,3.05.59-.05-1.41-3.05-2-1.52-1.64-1.06-1.65-.82-2.93-.11-2.26-.43-1.67-1.77-1.63,4.07-3.26,6.19-2.34,3.69-2.54,2.13-.08-8,5.1-2.43,2.91,8-3.54,1.95.06,2.3,1.88,3.8,5.31,2.41.33-.07-1.69-3.39-3.25-1.72-2.47-.81-2.5.23-3.54.82-3,1.3-2.31,1.56-1.48v-1.13l-.15-.27.27-1.14.73-1.72.53-2.28.14-2.12-.37-3.54-.7-1.77-.95-1.51-1.58-3.46-.48-.69-.53-.41-.57-.11-.51-.82-.25-2-.17-2.11-.21-1.12-2.6-2-.69-1.77.49-4.11h-1.24l.28-.72.53-1.72.3-.88-.67-.54-.5-1-.94-2.93,1.92-.07-.06-1.55-1.66-2.05-2-7.25-2.65-2.86.69-3.27,1.77-2.75,1.95-.5.59,1.39.12,1.69.31,1.4,1,.24.21-1,.27-2.26.59-2.14,1.14-1,2.51-1.23,1.47.08.11,1.83-.34,2.56.4,2.1.82,1.52,1,.66-.21-1.12-.13-1.12-.12-1-.39-1.26,1.41-.62,2.57-2.36.82-.46,1.4,1.21,1.05,1.65,1.16,1.36,1.58.21-1.2,1.46-.58.31,1.64,1.34,1.67-.35,1.77-.88.52-.3-.07-1.69.95-1.59.83-2.29,1-1.45.19.56.73,2.65,1.09.37.88-1.45.57-4.25.73-1.16,1.95-1.08,2.49-.11,5.31,2,1-.61ZM787.26,911.91l-1,1.53-.71-.88-.43-2.12-.63-1.71-.73-2.65.37-2.53,2-.95,2.43-.23.18.42-.53,1.11.39.88.49,2.65-.8,2.38Z"/></g><rect class="cls-3" x="895.5" y="566.87" width="129" height="8"/><path class="cls-2" d="M593.78,679.83a6.09,6.09,0,0,1-.42,2.19,5.34,5.34,0,0,1-1.32,2,6.82,6.82,0,0,1-2.35,1.41,9.91,9.91,0,0,1-3.48.54,13.85,13.85,0,0,1-3.8-.5,16,16,0,0,1-2.95-1.11,25.18,25.18,0,0,1,0-2.86q.1-1.5.29-2.68h2.45l.51,3.29a1.71,1.71,0,0,0,.16.52,1.54,1.54,0,0,0,.37.46,4.42,4.42,0,0,0,1.26.77,4.53,4.53,0,0,0,1.83.36,3.18,3.18,0,0,0,2.31-.79,2.81,2.81,0,0,0,.82-2.11,3.19,3.19,0,0,0-.35-1.52,4.16,4.16,0,0,0-.94-1.18,8,8,0,0,0-1.41-1q-.82-.45-1.76-.92t-2-1.05a8.73,8.73,0,0,1-1.71-1.24,5.64,5.64,0,0,1-1.21-1.65,5.06,5.06,0,0,1-.46-2.25,5.9,5.9,0,0,1,.45-2.32,4.92,4.92,0,0,1,1.35-1.85,6.43,6.43,0,0,1,2.24-1.21,10.16,10.16,0,0,1,3.14-.44,16,16,0,0,1,3.07.3,13.23,13.23,0,0,1,2.68.79,21.48,21.48,0,0,1,0,2.64,24.45,24.45,0,0,1-.27,2.57H590l-.54-2.87a2.19,2.19,0,0,0-.19-.58,1.35,1.35,0,0,0-.37-.44,3.1,3.1,0,0,0-1-.48,4.56,4.56,0,0,0-1.33-.2,2.9,2.9,0,0,0-2.09.71,2.52,2.52,0,0,0-.74,1.91,3,3,0,0,0,.31,1.39,3.56,3.56,0,0,0,.88,1.07,8.56,8.56,0,0,0,1.41.94q.84.46,1.9,1t2.11,1.17a9.37,9.37,0,0,1,1.77,1.37,6.23,6.23,0,0,1,1.22,1.71A5,5,0,0,1,593.78,679.83Z"/><path class="cls-2" d="M608.57,685.74a3.64,3.64,0,0,1-1.8-.41,2.52,2.52,0,0,1-1.11-1.37,5.36,5.36,0,0,1-1.93,1.36,6.49,6.49,0,0,1-2.56.49,4.69,4.69,0,0,1-3.11-1,3.29,3.29,0,0,1-1.18-2.66,3.47,3.47,0,0,1,.49-1.87,4.11,4.11,0,0,1,1.3-1.31,6.66,6.66,0,0,1,1.85-.8,10.55,10.55,0,0,1,2.14-.35l2.78-.18v-1.56a2.6,2.6,0,0,0-3-3.12,6.14,6.14,0,0,0-4.22,1.6l-.93-.84a4.78,4.78,0,0,1,2.25-2.56,8.25,8.25,0,0,1,4.09-.92,5,5,0,0,1,5.76,5.66v6.78a.82.82,0,0,0,.18.6.85.85,0,0,0,.52.22l1.36.16v1.58q-.44.13-1.31.31A7.74,7.74,0,0,1,608.57,685.74Zm-5.71-2.29a4.38,4.38,0,0,0,2.58-.85v-3.33l-1.79.13a2.9,2.9,0,0,0-2,.71,2.18,2.18,0,0,0-.59,1.57,1.88,1.88,0,0,0,.41,1.32A1.74,1.74,0,0,0,602.86,683.45Z"/><path class="cls-2" d="M621.94,683.81v1.69h-7.85v-1.69l1.49-.26a.78.78,0,0,0,.47-.25.75.75,0,0,0,.17-.51v-9a.85.85,0,0,0-.16-.52.69.69,0,0,0-.46-.26l-1.68-.3V671a19.82,19.82,0,0,1,2.68-.54,21.68,21.68,0,0,1,2.66-.2l.59.55.24,1.44a5.39,5.39,0,0,1,2.13-1.49,7.31,7.31,0,0,1,2.63-.47,5,5,0,0,1,2.5.54,3.38,3.38,0,0,1,1.41,1.54,5.94,5.94,0,0,1,2.34-1.6,7.91,7.91,0,0,1,2.76-.48q2.66,0,3.62,1.51a8,8,0,0,1,1,4.29v6.72a.76.76,0,0,0,.16.52.78.78,0,0,0,.48.24l1.49.26v1.69h-7.85v-1.69l1-.25a1,1,0,0,0,.46-.27.72.72,0,0,0,.16-.5v-6.23a5.53,5.53,0,0,0-.57-2.87,2.14,2.14,0,0,0-2-.9,4.88,4.88,0,0,0-2.66.81,9.43,9.43,0,0,1,.15,1.11c0,.39,0,.8,0,1.24v6.85a.71.71,0,0,0,.16.5,1.1,1.1,0,0,0,.46.27l1,.25v1.69h-7.37v-1.69l1-.25a1.06,1.06,0,0,0,.46-.27.7.7,0,0,0,.17-.5v-6.32a5.73,5.73,0,0,0-.52-2.81,2,2,0,0,0-1.87-.86,4.82,4.82,0,0,0-1.31.2,5.22,5.22,0,0,0-1.3.56v9.24a.75.75,0,0,0,.14.5.91.91,0,0,0,.43.26Z"/><path class="cls-2" d="M645.44,669.74a7.22,7.22,0,0,1,.59-2.83,9.23,9.23,0,0,1,1.54-2.49,8.05,8.05,0,0,1,2.17-1.77,5,5,0,0,1,2.46-.68,5.09,5.09,0,0,1,2,.4,11,11,0,0,1,1.79.94l-.79,2.32q-.77-.16-1.6-.26a9.6,9.6,0,0,0-1.32-.08,3.29,3.29,0,0,0-2.09.6,3.08,3.08,0,0,0-.72,2.42v2.32h4.25v2.3h-4.24v9.88a.71.71,0,0,0,.18.51.75.75,0,0,0,.5.21l2.71.29v1.69h-9.6v-1.69l1.47-.25a.81.81,0,0,0,.49-.24.74.74,0,0,0,.16-.51V673l-2.33-.37V671l2.41-.41Z"/><path class="cls-2" d="M669.29,682.24a4.52,4.52,0,0,1-2.15,2.64,7.73,7.73,0,0,1-3.94.94,7.86,7.86,0,0,1-3.07-.55,5.69,5.69,0,0,1-2.15-1.54,6.4,6.4,0,0,1-1.26-2.41,11.18,11.18,0,0,1-.41-3.14,8.3,8.3,0,0,1,1.93-5.9,7,7,0,0,1,5.33-2.06,6.06,6.06,0,0,1,4.35,1.4,4.88,4.88,0,0,1,1.46,3.69q0,.45-.05,1a9.25,9.25,0,0,1-.14,1h-8.67v.09a8.06,8.06,0,0,0,.94,4.47,3.35,3.35,0,0,0,3,1.35,5.62,5.62,0,0,0,2.18-.43,4.15,4.15,0,0,0,1.7-1.26ZM663.22,672a2.16,2.16,0,0,0-1.75.84,5.42,5.42,0,0,0-.88,2.85h5c0-.09,0-.18,0-.28v-.33a3.92,3.92,0,0,0-.58-2.22A2,2,0,0,0,663.22,672Zm-1.32-2.92-1.07-1.26,5-5.84,2.36,2.16a10.51,10.51,0,0,1-1.16,1.24q-.7.65-1.53,1.28t-1.77,1.26Q662.83,668.55,661.9,669.08Z"/><path class="cls-2" d="M678.51,662.47v20.32a.77.77,0,0,0,.16.52.77.77,0,0,0,.48.24l1.68.27v1.68h-8.75v-1.69l1.69-.26a.82.82,0,0,0,.48-.24.72.72,0,0,0,.17-.51v-17.4a.75.75,0,0,0-.17-.52.79.79,0,0,0-.47-.24l-1.81-.26v-1.64q.65-.17,1.43-.32t1.56-.26q.79-.1,1.56-.16t1.43-.06Z"/><path class="cls-2" d="M695,685.74a3.64,3.64,0,0,1-1.8-.41,2.52,2.52,0,0,1-1.11-1.37,5.36,5.36,0,0,1-1.93,1.36,6.49,6.49,0,0,1-2.56.49,4.69,4.69,0,0,1-3.11-1,3.29,3.29,0,0,1-1.18-2.66,3.47,3.47,0,0,1,.49-1.87,4.11,4.11,0,0,1,1.3-1.31,6.66,6.66,0,0,1,1.85-.8,10.55,10.55,0,0,1,2.14-.35l2.78-.18v-1.56a2.6,2.6,0,0,0-3-3.12,6.14,6.14,0,0,0-4.22,1.6l-.93-.84a4.78,4.78,0,0,1,2.25-2.56,8.25,8.25,0,0,1,4.09-.92,5,5,0,0,1,5.76,5.66v6.78a.82.82,0,0,0,.18.6.85.85,0,0,0,.52.22l1.36.16v1.58q-.44.13-1.31.31A7.74,7.74,0,0,1,695,685.74Zm-5.71-2.29a4.38,4.38,0,0,0,2.58-.85v-3.33l-1.79.13a2.9,2.9,0,0,0-2,.71,2.18,2.18,0,0,0-.59,1.57A1.88,1.88,0,0,0,688,683,1.74,1.74,0,0,0,689.32,683.45Z"/><path class="cls-2" d="M715.67,686.85a4.81,4.81,0,0,1-.63,2.44,5.55,5.55,0,0,1-1.77,1.85,8.91,8.91,0,0,1-2.76,1.17,14.46,14.46,0,0,1-3.58.41,8.49,8.49,0,0,1-5-1.16,3.51,3.51,0,0,1-1.58-2.94,3,3,0,0,1,.77-2.15,5.48,5.48,0,0,1,2.06-1.32,2.57,2.57,0,0,1-1.17-1,2.88,2.88,0,0,1,.17-3.1,3.88,3.88,0,0,1,1.41-1.09,4.16,4.16,0,0,1-2.09-1.75,5.18,5.18,0,0,1-.66-2.63,4.75,4.75,0,0,1,1.81-4,7.92,7.92,0,0,1,4.95-1.39,9.5,9.5,0,0,1,2.71.35,5.25,5.25,0,0,1,2,1,4.35,4.35,0,0,1,1.18-1,2.57,2.57,0,0,1,1.32-.38,3.53,3.53,0,0,1,.72.08,6.09,6.09,0,0,1,.66.17v2.84h-2.75a4.39,4.39,0,0,1,.25.92,6.55,6.55,0,0,1,.08,1,5.78,5.78,0,0,1-.41,2.19,4.37,4.37,0,0,1-1.22,1.7,5.82,5.82,0,0,1-2.08,1.09,9.86,9.86,0,0,1-2.93.39q-.56,0-1.08,0c-.34,0-.67-.07-1-.12a1.77,1.77,0,0,0-.35.56,1.71,1.71,0,0,0-.11.61,1,1,0,0,0,.66,1,6.07,6.07,0,0,0,2.22.29h2.83a6.76,6.76,0,0,1,4,1A3.4,3.4,0,0,1,715.67,686.85Zm-8.05,4a4.55,4.55,0,0,0,2.84-.8,2.8,2.8,0,0,0,1-2.36,1.89,1.89,0,0,0-.54-1.49,3,3,0,0,0-1.94-.47h-3.49l-.53,0a3.45,3.45,0,0,0-.53,1,3.93,3.93,0,0,0-.2,1.3A3,3,0,0,0,705,690,3.39,3.39,0,0,0,707.62,690.8ZM705,675.33a4.75,4.75,0,0,0,.6,2.68,2.11,2.11,0,0,0,1.86.86,1.92,1.92,0,0,0,1.76-.87,5,5,0,0,0,.54-2.62,4.77,4.77,0,0,0-.57-2.68,2.05,2.05,0,0,0-1.8-.81,2.17,2.17,0,0,0-1.75.77A4.19,4.19,0,0,0,705,675.33Z"/><path class="cls-2" d="M727.05,684.75a13.85,13.85,0,0,1-.1-2.14,17.61,17.61,0,0,1,.18-2.06h2.07l.54,2a3.22,3.22,0,0,0,.24.65,1.26,1.26,0,0,0,.37.41,4.8,4.8,0,0,0,.89.42,3.76,3.76,0,0,0,1.34.22,2.38,2.38,0,0,0,1.7-.56,1.78,1.78,0,0,0,.59-1.34,1.58,1.58,0,0,0-.3-1,3.12,3.12,0,0,0-.83-.75,9.57,9.57,0,0,0-1.27-.67l-1.63-.73a10.27,10.27,0,0,1-2.72-1.75,3.53,3.53,0,0,1-1-2.72,4,4,0,0,1,1.54-3.27,7,7,0,0,1,4.48-1.23,14.5,14.5,0,0,1,2.61.25,12,12,0,0,1,2.3.63,16.8,16.8,0,0,1,0,2,14.86,14.86,0,0,1-.24,2h-1.92l-.54-1.81a2.51,2.51,0,0,0-.26-.59,1.27,1.27,0,0,0-.43-.39,2.36,2.36,0,0,0-.72-.31,4,4,0,0,0-.89-.12,2.43,2.43,0,0,0-1.55.45,1.57,1.57,0,0,0-.61,1.33,1.65,1.65,0,0,0,.28,1,2.65,2.65,0,0,0,.73.7,6.63,6.63,0,0,0,1,.56l1.23.52q.93.39,1.8.83a7.28,7.28,0,0,1,1.52,1,4.4,4.4,0,0,1,1,1.32,3.89,3.89,0,0,1,.39,1.81,4,4,0,0,1-.47,2,4.1,4.1,0,0,1-1.31,1.43,6.15,6.15,0,0,1-2,.86,10.5,10.5,0,0,1-2.53.29,12.61,12.61,0,0,1-3.07-.36A18.25,18.25,0,0,1,727.05,684.75Z"/><path class="cls-2" d="M755.07,682.24a4.52,4.52,0,0,1-2.15,2.64,7.73,7.73,0,0,1-3.94.94,7.86,7.86,0,0,1-3.07-.55,5.69,5.69,0,0,1-2.15-1.54,6.4,6.4,0,0,1-1.26-2.41,11.18,11.18,0,0,1-.41-3.14,8.3,8.3,0,0,1,1.93-5.9,7,7,0,0,1,5.33-2.06,6.06,6.06,0,0,1,4.35,1.4,4.88,4.88,0,0,1,1.46,3.69q0,.45-.05,1a9.25,9.25,0,0,1-.14,1H746.3v.09a8.06,8.06,0,0,0,.94,4.47,3.35,3.35,0,0,0,3,1.35,5.62,5.62,0,0,0,2.18-.43,4.15,4.15,0,0,0,1.7-1.26ZM749,672a2.16,2.16,0,0,0-1.75.84,5.42,5.42,0,0,0-.88,2.85h5c0-.09,0-.18,0-.28v-.33a3.92,3.92,0,0,0-.58-2.22A2,2,0,0,0,749,672Z"/><path class="cls-2" d="M766.24,683.81v1.69h-7.85v-1.69l1.49-.26a.78.78,0,0,0,.47-.25.75.75,0,0,0,.17-.51v-9a.85.85,0,0,0-.16-.52.69.69,0,0,0-.46-.26l-1.68-.3V671a19.82,19.82,0,0,1,2.68-.54,21.68,21.68,0,0,1,2.66-.2l.59.55.24,1.44a5.39,5.39,0,0,1,2.13-1.49,7.31,7.31,0,0,1,2.63-.47,5,5,0,0,1,2.5.54,3.38,3.38,0,0,1,1.41,1.54,5.94,5.94,0,0,1,2.34-1.6,7.91,7.91,0,0,1,2.76-.48q2.66,0,3.62,1.51a8,8,0,0,1,1,4.29v6.72a.76.76,0,0,0,.16.52.78.78,0,0,0,.48.24l1.49.26v1.69H777v-1.69l1-.25a1,1,0,0,0,.46-.27.72.72,0,0,0,.16-.5v-6.23a5.53,5.53,0,0,0-.57-2.87,2.14,2.14,0,0,0-2-.9,4.88,4.88,0,0,0-2.66.81,9.43,9.43,0,0,1,.15,1.11c0,.39,0,.8,0,1.24v6.85a.71.71,0,0,0,.16.5,1.1,1.1,0,0,0,.46.27l1,.25v1.69H768v-1.69l1-.25a1.06,1.06,0,0,0,.46-.27.7.7,0,0,0,.17-.5v-6.32a5.73,5.73,0,0,0-.52-2.81,2,2,0,0,0-1.87-.86,4.82,4.82,0,0,0-1.31.2,5.22,5.22,0,0,0-1.3.56v9.24a.75.75,0,0,0,.14.5.91.91,0,0,0,.43.26Z"/><path class="cls-2" d="M802.23,685.8a15,15,0,0,1-1.71-.1q-.86-.1-1.61-.25c-.5-.1-1-.21-1.38-.33a8.73,8.73,0,0,1-1-.35V665.42a.7.7,0,0,0-.63-.76l-1.78-.27v-1.65q.65-.17,1.42-.31t1.55-.25q.79-.1,1.55-.16T800,662l.55.51v9.43a5.56,5.56,0,0,1,1.83-1.23,6.32,6.32,0,0,1,4.58,0,4.6,4.6,0,0,1,1.79,1.28,6.27,6.27,0,0,1,1.19,2.21,10.37,10.37,0,0,1,.44,3.19,11.11,11.11,0,0,1-.54,3.57,7.19,7.19,0,0,1-1.56,2.67,6.77,6.77,0,0,1-2.57,1.67A9.93,9.93,0,0,1,802.23,685.8Zm.29-1.71a2.93,2.93,0,0,0,2.62-1.42,8.89,8.89,0,0,0,.95-4.54q0-3.08-.8-4.25A2.71,2.71,0,0,0,803,672.7a4.19,4.19,0,0,0-1.24.18,4.44,4.44,0,0,0-1.12.52v10.21a3.92,3.92,0,0,0,.85.34A4,4,0,0,0,802.52,684.09Z"/><path class="cls-2" d="M816.26,692.28a16.13,16.13,0,0,1-1.74-.1q-.9-.1-1.69-.23v-2q1.52-.2,2.72-.46a9.22,9.22,0,0,0,2.14-.74,6,6,0,0,0,1.67-1.24,7.88,7.88,0,0,0,1.32-2h-1.74l-4.69-12.23a1,1,0,0,0-.3-.45,1.5,1.5,0,0,0-.48-.25l-1-.31V670.6h8.17v1.69l-2,.41,3.3,9.52,3-9.52-2-.42V670.6h5.88v1.66l-1,.31a1.34,1.34,0,0,0-.49.24,1,1,0,0,0-.28.46l-4.38,12.55a13.79,13.79,0,0,1-2.62,4.85A4.94,4.94,0,0,1,816.26,692.28Z"/><path class="cls-2" d="M845.82,686.85a4.81,4.81,0,0,1-.63,2.44,5.55,5.55,0,0,1-1.77,1.85,8.91,8.91,0,0,1-2.76,1.17,14.46,14.46,0,0,1-3.58.41,8.49,8.49,0,0,1-5-1.16,3.51,3.51,0,0,1-1.58-2.94,3,3,0,0,1,.77-2.15,5.48,5.48,0,0,1,2.06-1.32,2.57,2.57,0,0,1-1.17-1,2.88,2.88,0,0,1,.17-3.1,3.88,3.88,0,0,1,1.41-1.09,4.16,4.16,0,0,1-2.09-1.75,5.18,5.18,0,0,1-.66-2.63,4.75,4.75,0,0,1,1.81-4,7.92,7.92,0,0,1,4.95-1.39,9.5,9.5,0,0,1,2.71.35,5.25,5.25,0,0,1,2,1,4.35,4.35,0,0,1,1.18-1,2.57,2.57,0,0,1,1.32-.38,3.53,3.53,0,0,1,.72.08,6.09,6.09,0,0,1,.66.17v2.84h-2.75a4.39,4.39,0,0,1,.25.92,6.55,6.55,0,0,1,.08,1,5.78,5.78,0,0,1-.41,2.19,4.37,4.37,0,0,1-1.22,1.7,5.82,5.82,0,0,1-2.08,1.09,9.86,9.86,0,0,1-2.93.39q-.56,0-1.08,0c-.34,0-.67-.07-1-.12a1.77,1.77,0,0,0-.35.56,1.71,1.71,0,0,0-.11.61,1,1,0,0,0,.66,1,6.07,6.07,0,0,0,2.22.29h2.83a6.76,6.76,0,0,1,4,1A3.4,3.4,0,0,1,845.82,686.85Zm-8.05,4a4.55,4.55,0,0,0,2.84-.8,2.8,2.8,0,0,0,1-2.36,1.89,1.89,0,0,0-.54-1.49,3,3,0,0,0-1.94-.47h-3.49l-.53,0a3.45,3.45,0,0,0-.53,1,3.93,3.93,0,0,0-.2,1.3,3,3,0,0,0,.74,2.06A3.39,3.39,0,0,0,837.77,690.8Zm-2.64-15.47a4.75,4.75,0,0,0,.6,2.68,2.11,2.11,0,0,0,1.86.86,1.92,1.92,0,0,0,1.76-.87,5,5,0,0,0,.54-2.62,4.77,4.77,0,0,0-.57-2.68,2.05,2.05,0,0,0-1.8-.81,2.17,2.17,0,0,0-1.75.77A4.19,4.19,0,0,0,835.12,675.33Z"/><path class="cls-2" d="M863.94,686.85a4.81,4.81,0,0,1-.63,2.44,5.55,5.55,0,0,1-1.77,1.85,8.91,8.91,0,0,1-2.76,1.17,14.46,14.46,0,0,1-3.58.41,8.49,8.49,0,0,1-5-1.16,3.51,3.51,0,0,1-1.58-2.94,3,3,0,0,1,.77-2.15,5.48,5.48,0,0,1,2.06-1.32,2.57,2.57,0,0,1-1.17-1,2.88,2.88,0,0,1,.17-3.1,3.88,3.88,0,0,1,1.41-1.09,4.16,4.16,0,0,1-2.09-1.75,5.18,5.18,0,0,1-.66-2.63,4.75,4.75,0,0,1,1.81-4,7.92,7.92,0,0,1,4.95-1.39,9.5,9.5,0,0,1,2.71.35,5.25,5.25,0,0,1,2,1,4.35,4.35,0,0,1,1.18-1,2.57,2.57,0,0,1,1.32-.38,3.53,3.53,0,0,1,.72.08,6.09,6.09,0,0,1,.66.17v2.84H861.7a4.39,4.39,0,0,1,.25.92,6.55,6.55,0,0,1,.08,1,5.78,5.78,0,0,1-.41,2.19,4.37,4.37,0,0,1-1.22,1.7,5.82,5.82,0,0,1-2.08,1.09,9.86,9.86,0,0,1-2.93.39q-.56,0-1.08,0c-.34,0-.67-.07-1-.12a1.77,1.77,0,0,0-.35.56,1.71,1.71,0,0,0-.11.61,1,1,0,0,0,.66,1,6.07,6.07,0,0,0,2.22.29h2.83a6.76,6.76,0,0,1,4,1A3.4,3.4,0,0,1,863.94,686.85Zm-8.05,4a4.55,4.55,0,0,0,2.84-.8,2.8,2.8,0,0,0,1-2.36,1.89,1.89,0,0,0-.54-1.49,3,3,0,0,0-1.94-.47h-3.49l-.53,0a3.45,3.45,0,0,0-.53,1,3.93,3.93,0,0,0-.2,1.3,3,3,0,0,0,.74,2.06A3.39,3.39,0,0,0,855.89,690.8Zm-2.64-15.47a4.75,4.75,0,0,0,.6,2.68,2.11,2.11,0,0,0,1.86.86,1.92,1.92,0,0,0,1.76-.87,5,5,0,0,0,.54-2.62,4.77,4.77,0,0,0-.57-2.68,2.05,2.05,0,0,0-1.8-.81,2.17,2.17,0,0,0-1.75.77A4.19,4.19,0,0,0,853.25,675.33Z"/><path class="cls-2" d="M873.17,670.79v12a.77.77,0,0,0,.16.51.76.76,0,0,0,.48.25l1.48.26v1.69H867v-1.69l1.48-.26a.79.79,0,0,0,.48-.25.75.75,0,0,0,.17-.51v-9a.82.82,0,0,0-.16-.52.7.7,0,0,0-.46-.25l-1.68-.31V671a18.73,18.73,0,0,1,2.91-.55,25.71,25.71,0,0,1,2.91-.18Zm.05-4.62a2.11,2.11,0,0,1-.64,1.6,2.37,2.37,0,0,1-1.7.61,2.41,2.41,0,0,1-1.72-.61,2.1,2.1,0,0,1-.65-1.6,2.06,2.06,0,0,1,.65-1.58,2.43,2.43,0,0,1,1.72-.6,2.39,2.39,0,0,1,1.7.6A2.07,2.07,0,0,1,873.22,666.17Z"/><path class="cls-2" d="M887.3,683.83v1.68h-9.24v-1.69l1.48-.26a.81.81,0,0,0,.48-.24.75.75,0,0,0,.17-.52v-9a.94.94,0,0,0-.15-.54.68.68,0,0,0-.48-.27l-1.66-.31V671a16.93,16.93,0,0,1,2.55-.54,20.26,20.26,0,0,1,2.54-.2l.64.52.43,2.54a7.94,7.94,0,0,1,2.08-2.23,4.29,4.29,0,0,1,2.53-.87,6,6,0,0,1,1,.11,3.46,3.46,0,0,1,.94.28,11.87,11.87,0,0,1,.07,1.24q0,.68,0,1.4t-.14,1.47q-.1.75-.24,1.41h-1.85l-.43-1.7a.87.87,0,0,0-1-.77,3.76,3.76,0,0,0-1.34.25,4.38,4.38,0,0,0-1.41.86v8a.77.77,0,0,0,.17.52.75.75,0,0,0,.5.24Z"/><path class="cls-2" d="M912.5,685.74a3.64,3.64,0,0,1-1.8-.41,2.52,2.52,0,0,1-1.11-1.37,5.36,5.36,0,0,1-1.93,1.36,6.49,6.49,0,0,1-2.56.49,4.69,4.69,0,0,1-3.11-1,3.29,3.29,0,0,1-1.18-2.66,3.47,3.47,0,0,1,.49-1.87,4.11,4.11,0,0,1,1.3-1.31,6.66,6.66,0,0,1,1.85-.8,10.55,10.55,0,0,1,2.14-.35l2.78-.18v-1.56a2.6,2.6,0,0,0-3-3.12,6.14,6.14,0,0,0-4.22,1.6l-.93-.84a4.78,4.78,0,0,1,2.25-2.56,8.25,8.25,0,0,1,4.09-.92,5,5,0,0,1,5.76,5.66v6.78a.82.82,0,0,0,.18.6.85.85,0,0,0,.52.22l1.36.16v1.58q-.44.13-1.31.31A7.74,7.74,0,0,1,912.5,685.74Zm-5.71-2.29a4.38,4.38,0,0,0,2.58-.85v-3.33l-1.79.13a2.9,2.9,0,0,0-2,.71,2.18,2.18,0,0,0-.59,1.57,1.88,1.88,0,0,0,.41,1.32A1.74,1.74,0,0,0,906.79,683.45Zm-.45-14.36-1.07-1.26,5-5.84,2.36,2.16a10.52,10.52,0,0,1-1.16,1.24q-.7.65-1.53,1.28t-1.77,1.26Q907.27,668.55,906.34,669.08Z"/><path class="cls-2" d="M926.39,684.75a13.85,13.85,0,0,1-.1-2.14,17.61,17.61,0,0,1,.18-2.06h2.07l.54,2a3.22,3.22,0,0,0,.24.65,1.26,1.26,0,0,0,.37.41,4.8,4.8,0,0,0,.89.42,3.76,3.76,0,0,0,1.34.22,2.38,2.38,0,0,0,1.7-.56,1.78,1.78,0,0,0,.59-1.34,1.58,1.58,0,0,0-.3-1,3.12,3.12,0,0,0-.83-.75,9.57,9.57,0,0,0-1.27-.67l-1.63-.73a10.27,10.27,0,0,1-2.72-1.75,3.53,3.53,0,0,1-1-2.72,4,4,0,0,1,1.54-3.27,7,7,0,0,1,4.48-1.23,14.5,14.5,0,0,1,2.61.25,12,12,0,0,1,2.3.63,16.8,16.8,0,0,1,0,2,14.86,14.86,0,0,1-.24,2h-1.92l-.54-1.81a2.51,2.51,0,0,0-.26-.59,1.27,1.27,0,0,0-.43-.39,2.36,2.36,0,0,0-.72-.31,4,4,0,0,0-.89-.12,2.43,2.43,0,0,0-1.55.45,1.57,1.57,0,0,0-.61,1.33,1.65,1.65,0,0,0,.28,1,2.65,2.65,0,0,0,.73.7,6.63,6.63,0,0,0,1,.56l1.23.52q.93.39,1.8.83a7.28,7.28,0,0,1,1.52,1,4.4,4.4,0,0,1,1,1.32,3.89,3.89,0,0,1,.39,1.81,4,4,0,0,1-.47,2,4.1,4.1,0,0,1-1.31,1.43,6.15,6.15,0,0,1-2,.86,10.5,10.5,0,0,1-2.53.29,12.61,12.61,0,0,1-3.07-.36A18.25,18.25,0,0,1,926.39,684.75Z"/><path class="cls-2" d="M946.71,670.26l.55.52V684.1a11.1,11.1,0,0,1-.54,3.89,5.42,5.42,0,0,1-1.65,2.28,8.8,8.8,0,0,1-2.28,1.34,25.48,25.48,0,0,1-2.72.93l-.77-1.74a11.78,11.78,0,0,0,1.91-1.26,5.35,5.35,0,0,0,1.2-1.38,5.21,5.21,0,0,0,.62-1.7,12.05,12.05,0,0,0,.18-2.19V673.78a.82.82,0,0,0-.16-.52.7.7,0,0,0-.46-.25l-1.69-.31V671a18.74,18.74,0,0,1,2.9-.55A25.55,25.55,0,0,1,946.71,670.26Zm.38-4.1a2.11,2.11,0,0,1-.64,1.6,2.37,2.37,0,0,1-1.7.61,2.41,2.41,0,0,1-1.72-.61,2.1,2.1,0,0,1-.65-1.6,2.06,2.06,0,0,1,.65-1.58,2.43,2.43,0,0,1,1.72-.6,2.38,2.38,0,0,1,1.7.6A2.07,2.07,0,0,1,947.08,666.17Z"/><path class="cls-2" d="M963.14,685.74a3.64,3.64,0,0,1-1.8-.41,2.52,2.52,0,0,1-1.11-1.37,5.36,5.36,0,0,1-1.93,1.36,6.49,6.49,0,0,1-2.56.49,4.69,4.69,0,0,1-3.11-1,3.29,3.29,0,0,1-1.18-2.66,3.47,3.47,0,0,1,.49-1.87,4.11,4.11,0,0,1,1.3-1.31,6.66,6.66,0,0,1,1.85-.8,10.55,10.55,0,0,1,2.14-.35l2.78-.18v-1.56a2.6,2.6,0,0,0-3-3.12,6.14,6.14,0,0,0-4.22,1.6l-.93-.84a4.78,4.78,0,0,1,2.25-2.56,8.25,8.25,0,0,1,4.09-.92,5,5,0,0,1,5.76,5.66v6.78a.82.82,0,0,0,.18.6.85.85,0,0,0,.52.22l1.36.16v1.58q-.44.13-1.31.31A7.74,7.74,0,0,1,963.14,685.74Zm-5.71-2.29a4.38,4.38,0,0,0,2.58-.85v-3.33l-1.79.13a2.9,2.9,0,0,0-2,.71,2.18,2.18,0,0,0-.59,1.57,1.88,1.88,0,0,0,.41,1.32A1.74,1.74,0,0,0,957.44,683.45ZM957,669.08l-1.07-1.26,5-5.84,2.36,2.16a10.52,10.52,0,0,1-1.16,1.24q-.7.65-1.53,1.28t-1.77,1.26Q957.92,668.55,957,669.08Z"/><path class="cls-2" d="M974.58,662.47v20.32a.77.77,0,0,0,.16.52.77.77,0,0,0,.48.24l1.68.27v1.68h-8.75v-1.69l1.69-.26a.82.82,0,0,0,.48-.24.72.72,0,0,0,.17-.51v-17.4a.75.75,0,0,0-.17-.52.79.79,0,0,0-.47-.24l-1.81-.26v-1.64q.65-.17,1.43-.32t1.56-.26q.79-.1,1.56-.16T974,662Z"/><path class="cls-2" d="M997.93,685.8a14.72,14.72,0,0,1-1.69-.1q-.85-.1-1.6-.25c-.5-.1-1-.21-1.37-.33a8.89,8.89,0,0,1-1-.35v-19a9.87,9.87,0,0,0-1.56-.37,10.65,10.65,0,0,0-1.63-.12,5.72,5.72,0,0,0-1.29.14,2.88,2.88,0,0,0-1.09.49,2.46,2.46,0,0,0-.75.94,3.38,3.38,0,0,0-.28,1.47v2.32H990v2.3h-4.31v9.88a.7.7,0,0,0,.18.51.75.75,0,0,0,.5.21l2.68.29v1.69h-9.49v-1.69l1.47-.25a.81.81,0,0,0,.49-.24.74.74,0,0,0,.16-.51V673l-2.33-.37V671l2.41-.41v-1.06a6.34,6.34,0,0,1,.67-2.8,8.79,8.79,0,0,1,4.17-4.13,6.39,6.39,0,0,1,2.76-.65,5.52,5.52,0,0,1,1.66.27,7.88,7.88,0,0,1,1.61.71q.81-.34,1.63-.6a13.69,13.69,0,0,1,1.49-.39l.58.51v9.43a5.7,5.7,0,0,1,1.85-1.23,6.27,6.27,0,0,1,4.56,0,4.61,4.61,0,0,1,1.79,1.28,6.3,6.3,0,0,1,1.19,2.21,10.37,10.37,0,0,1,.44,3.19,11.22,11.22,0,0,1-.53,3.57,7.07,7.07,0,0,1-1.56,2.67,6.83,6.83,0,0,1-2.57,1.67A9.94,9.94,0,0,1,997.93,685.8Zm.29-1.71a2.93,2.93,0,0,0,2.63-1.42,8.93,8.93,0,0,0,.94-4.54q0-3.08-.79-4.25a2.69,2.69,0,0,0-2.34-1.18,4.18,4.18,0,0,0-1.24.18,4.76,4.76,0,0,0-1.12.51v10.22a3.61,3.61,0,0,0,.84.34A4,4,0,0,0,998.22,684.09Z"/><path class="cls-2" d="M1030.55,682.24a4.32,4.32,0,0,1-.86,1.56,5.12,5.12,0,0,1-1.37,1.12,6.75,6.75,0,0,1-1.77.67,8.89,8.89,0,0,1-2,.23,7.3,7.3,0,0,1-3.28-.67,5.49,5.49,0,0,1-2.17-1.89,5.68,5.68,0,0,1-2.27,1.87,7.26,7.26,0,0,1-3.12.67,5,5,0,0,1-3.27-1,3.26,3.26,0,0,1-1.18-2.64,3.53,3.53,0,0,1,.49-1.88A4.15,4.15,0,0,1,1011,679a6.59,6.59,0,0,1,1.85-.81,10.62,10.62,0,0,1,2.14-.35l2.78-.17v-1.56a3,3,0,0,0-.82-2.41,3.35,3.35,0,0,0-2.26-.71,6.22,6.22,0,0,0-2.15.39,5.93,5.93,0,0,0-2,1.21l-.93-.84a4.46,4.46,0,0,1,.88-1.49,5.38,5.38,0,0,1,1.38-1.09,6.73,6.73,0,0,1,1.75-.67,8.67,8.67,0,0,1,2-.23,6.3,6.3,0,0,1,2.58.46,4,4,0,0,1,1.65,1.32,6.14,6.14,0,0,1,2.14-1.33,8,8,0,0,1,2.83-.47,5.94,5.94,0,0,1,4.28,1.4,4.89,4.89,0,0,1,1.45,3.69q0,.45-.05,1a9.24,9.24,0,0,1-.14,1h-8.67v0q0,3.22,1,4.56a3.44,3.44,0,0,0,2.91,1.33,5.63,5.63,0,0,0,2.15-.43,4,4,0,0,0,1.7-1.26Zm-15.34,1.2a4.57,4.57,0,0,0,1.68-.34,5.57,5.57,0,0,0,1.6-1,8.12,8.12,0,0,1-.42-1.36,9.85,9.85,0,0,1-.22-1.51l-1.85.13a2.87,2.87,0,0,0-2,.71,2.2,2.2,0,0,0-.58,1.56,1.88,1.88,0,0,0,.41,1.32A1.74,1.74,0,0,0,1015.21,683.45Zm9.32-11.43a2.22,2.22,0,0,0-1.74.84,5.25,5.25,0,0,0-.93,2.84h5c0-.09,0-.18,0-.28s0-.21,0-.33a3.86,3.86,0,0,0-.59-2.21A2,2,0,0,0,1024.53,672Z"/><path class="cls-2" d="M1043.12,683.83v1.68h-9.24v-1.69l1.48-.26a.81.81,0,0,0,.48-.24.75.75,0,0,0,.17-.52v-9a.94.94,0,0,0-.15-.54.68.68,0,0,0-.48-.27l-1.66-.31V671a16.93,16.93,0,0,1,2.55-.54,20.26,20.26,0,0,1,2.54-.2l.64.52.43,2.54a7.94,7.94,0,0,1,2.08-2.23,4.29,4.29,0,0,1,2.53-.87,6,6,0,0,1,1,.11,3.46,3.46,0,0,1,.94.28,11.87,11.87,0,0,1,.07,1.24q0,.68,0,1.4t-.14,1.47q-.1.75-.24,1.41h-1.85l-.43-1.7a.87.87,0,0,0-1-.77,3.76,3.76,0,0,0-1.34.25,4.38,4.38,0,0,0-1.41.86v8a.77.77,0,0,0,.17.52.75.75,0,0,0,.5.24Z"/><path class="cls-2" d="M1063.17,685.74a3.25,3.25,0,0,1-1.81-.46,2.87,2.87,0,0,1-1.08-1.33,6.08,6.08,0,0,1-1.94,1.37,6.65,6.65,0,0,1-2.7.49,4.49,4.49,0,0,1-3.53-1.3,5.79,5.79,0,0,1-1.16-4v-6.81a.85.85,0,0,0-.14-.5.71.71,0,0,0-.46-.27l-1.48-.33v-1.73a21.05,21.05,0,0,1,2.8-.48,26,26,0,0,1,2.81-.17l.55.52V680a4.93,4.93,0,0,0,.54,2.72,2.07,2.07,0,0,0,1.81.77,4.33,4.33,0,0,0,1.34-.22,5.07,5.07,0,0,0,1.27-.62v-8.88a.85.85,0,0,0-.16-.52.74.74,0,0,0-.46-.27l-1.65-.34v-1.71q.64-.16,1.39-.28t1.5-.2c.51-.05,1-.09,1.51-.12s1,0,1.39,0l.56.52v11.9a.78.78,0,0,0,.19.6.92.92,0,0,0,.52.21l1.35.16v1.58q-.46.14-1.32.32A8.13,8.13,0,0,1,1063.17,685.74Z"/><path class="cls-2" d="M1074.33,684.48a6.28,6.28,0,0,1-.38,2.17,8,8,0,0,1-1,1.92,9.16,9.16,0,0,1-1.47,1.6,10.54,10.54,0,0,1-1.73,1.22l-.81-1a9.27,9.27,0,0,0,1.66-2,3.88,3.88,0,0,0,.65-2,.84.84,0,0,0-.24-.72l-.58-.42a2.89,2.89,0,0,1-.74-.75,2,2,0,0,1-.33-1.2,2.2,2.2,0,0,1,.64-1.62,2.23,2.23,0,0,1,1.65-.64,2.44,2.44,0,0,1,1.94.9A3.84,3.84,0,0,1,1074.33,684.48Z"/><path class="cls-2" d="M1086.26,684.75a13.85,13.85,0,0,1-.1-2.14,17.61,17.61,0,0,1,.18-2.06h2.07l.54,2a3.22,3.22,0,0,0,.24.65,1.26,1.26,0,0,0,.37.41,4.8,4.8,0,0,0,.89.42,3.76,3.76,0,0,0,1.34.22,2.38,2.38,0,0,0,1.7-.56,1.78,1.78,0,0,0,.59-1.34,1.58,1.58,0,0,0-.3-1,3.12,3.12,0,0,0-.83-.75,9.57,9.57,0,0,0-1.27-.67l-1.63-.73a10.27,10.27,0,0,1-2.72-1.75,3.53,3.53,0,0,1-1-2.72,4,4,0,0,1,1.54-3.27,7,7,0,0,1,4.48-1.23,14.5,14.5,0,0,1,2.61.25,12,12,0,0,1,2.3.63,16.8,16.8,0,0,1,0,2,14.86,14.86,0,0,1-.24,2h-1.92l-.54-1.81a2.51,2.51,0,0,0-.26-.59,1.27,1.27,0,0,0-.43-.39,2.36,2.36,0,0,0-.72-.31,4,4,0,0,0-.89-.12,2.43,2.43,0,0,0-1.55.45,1.57,1.57,0,0,0-.61,1.33,1.65,1.65,0,0,0,.28,1,2.65,2.65,0,0,0,.73.7,6.63,6.63,0,0,0,1,.56l1.23.52q.93.39,1.8.83a7.28,7.28,0,0,1,1.52,1,4.4,4.4,0,0,1,1,1.32,3.89,3.89,0,0,1,.39,1.81,4,4,0,0,1-.47,2,4.1,4.1,0,0,1-1.31,1.43,6.15,6.15,0,0,1-2,.86,10.5,10.5,0,0,1-2.53.29,12.61,12.61,0,0,1-3.07-.36A18.25,18.25,0,0,1,1086.26,684.75Z"/><path class="cls-2" d="M1112.78,685.74a3.64,3.64,0,0,1-1.8-.41,2.52,2.52,0,0,1-1.11-1.37,5.36,5.36,0,0,1-1.93,1.36,6.49,6.49,0,0,1-2.56.49,4.69,4.69,0,0,1-3.11-1,3.29,3.29,0,0,1-1.18-2.66,3.47,3.47,0,0,1,.49-1.87,4.11,4.11,0,0,1,1.3-1.31,6.66,6.66,0,0,1,1.85-.8,10.55,10.55,0,0,1,2.14-.35l2.78-.18v-1.56a2.6,2.6,0,0,0-3-3.12,6.14,6.14,0,0,0-4.22,1.6l-.93-.84a4.78,4.78,0,0,1,2.25-2.56,8.25,8.25,0,0,1,4.09-.92,5,5,0,0,1,5.76,5.66v6.78a.82.82,0,0,0,.18.6.85.85,0,0,0,.52.22l1.36.16v1.58q-.44.13-1.31.31A7.74,7.74,0,0,1,1112.78,685.74Zm-5.71-2.29a4.38,4.38,0,0,0,2.58-.85v-3.33l-1.79.13a2.9,2.9,0,0,0-2,.71,2.18,2.18,0,0,0-.59,1.57,1.88,1.88,0,0,0,.41,1.32A1.74,1.74,0,0,0,1107.07,683.45Z"/><path class="cls-2" d="M1126.15,683.81v1.69h-7.85v-1.69l1.49-.26a.78.78,0,0,0,.47-.25.75.75,0,0,0,.17-.51v-9a.85.85,0,0,0-.16-.52.69.69,0,0,0-.46-.26l-1.68-.3V671a19.82,19.82,0,0,1,2.68-.54,21.68,21.68,0,0,1,2.66-.2l.59.55.24,1.44a5.39,5.39,0,0,1,2.13-1.49,7.31,7.31,0,0,1,2.63-.47,5,5,0,0,1,2.5.54,3.38,3.38,0,0,1,1.41,1.54,5.94,5.94,0,0,1,2.34-1.6,7.91,7.91,0,0,1,2.76-.48q2.66,0,3.62,1.51a8,8,0,0,1,1,4.29v6.72a.76.76,0,0,0,.16.52.78.78,0,0,0,.48.24l1.49.26v1.69h-7.85v-1.69l1-.25a1,1,0,0,0,.46-.27.72.72,0,0,0,.16-.5v-6.23a5.53,5.53,0,0,0-.57-2.87,2.14,2.14,0,0,0-2-.9,4.88,4.88,0,0,0-2.66.81,9.43,9.43,0,0,1,.15,1.11c0,.39,0,.8,0,1.24v6.85a.71.71,0,0,0,.16.5,1.1,1.1,0,0,0,.46.27l1,.25v1.69h-7.37v-1.69l1-.25a1.06,1.06,0,0,0,.46-.27.7.7,0,0,0,.17-.5v-6.32a5.73,5.73,0,0,0-.52-2.81,2,2,0,0,0-1.87-.86,4.82,4.82,0,0,0-1.31.2,5.22,5.22,0,0,0-1.3.56v9.24a.75.75,0,0,0,.14.5.91.91,0,0,0,.43.26Z"/><path class="cls-2" d="M1155.33,683.81v1.69h-8.27v-1.69l1.48-.26a.72.72,0,0,0,.64-.77V665.41a.76.76,0,0,0-.16-.52.77.77,0,0,0-.48-.24l-1.77-.26v-1.64q.65-.17,1.41-.32t1.54-.26q.78-.1,1.54-.16t1.43-.06l.55.51v15.75l5.2-5.55-2.47-.43v-1.61h7.59v1.61l-1.54.37a6.79,6.79,0,0,0-.75.22,1.61,1.61,0,0,0-.55.39l-2.75,2.75a9.35,9.35,0,0,1,.82,1.13q.37.6.79,1.41l2.29,4.2a1.57,1.57,0,0,0,.4.5,1.6,1.6,0,0,0,.53.24l1.49.38v1.69h-4.94a1.24,1.24,0,0,1-1.07-.73q-.42-.73-.91-1.73l-1.27-2.68q-.21-.45-.43-.87t-.45-.8l-2,2v2.12a.75.75,0,0,0,.17.52.8.8,0,0,0,.47.24Z"/><path class="cls-2" d="M1179.11,682.24a4.52,4.52,0,0,1-2.15,2.64,7.73,7.73,0,0,1-3.94.94,7.86,7.86,0,0,1-3.07-.55,5.69,5.69,0,0,1-2.15-1.54,6.4,6.4,0,0,1-1.26-2.41,11.18,11.18,0,0,1-.41-3.14,8.3,8.3,0,0,1,1.93-5.9,7,7,0,0,1,5.33-2.06,6.06,6.06,0,0,1,4.35,1.4,4.88,4.88,0,0,1,1.46,3.69q0,.45-.05,1a9.25,9.25,0,0,1-.14,1h-8.67v.09a8.06,8.06,0,0,0,.94,4.47,3.35,3.35,0,0,0,3,1.35,5.62,5.62,0,0,0,2.18-.43,4.15,4.15,0,0,0,1.7-1.26ZM1173.05,672a2.16,2.16,0,0,0-1.75.84,5.42,5.42,0,0,0-.88,2.85h5c0-.09,0-.18,0-.28v-.33a3.92,3.92,0,0,0-.58-2.22A2,2,0,0,0,1173.05,672Z"/><path class="cls-2" d="M1191.08,690.32V692h-8.94v-1.68l1.49-.27a.7.7,0,0,0,.63-.76V673.8a.88.88,0,0,0-.15-.52.65.65,0,0,0-.44-.27l-1.69-.31V671a22.27,22.27,0,0,1,2.66-.53,21,21,0,0,1,2.66-.22l.59.55.25,1.35a5.93,5.93,0,0,1,1.83-1.39,5.61,5.61,0,0,1,2.54-.54,5.91,5.91,0,0,1,2.24.42,4.64,4.64,0,0,1,1.79,1.29,6.28,6.28,0,0,1,1.18,2.22,10.51,10.51,0,0,1,.43,3.19,10.92,10.92,0,0,1-.56,3.62,7.23,7.23,0,0,1-1.58,2.66,6.72,6.72,0,0,1-2.49,1.63,9.16,9.16,0,0,1-3.29.56c-.3,0-.61,0-.93,0a8.07,8.07,0,0,1-1-.15v3.69a.68.68,0,0,0,.65.75Zm-.83-6.23a3.08,3.08,0,0,0,2.59-1.32q1-1.32,1-4.71a8.09,8.09,0,0,0-.74-4.08,2.56,2.56,0,0,0-2.36-1.28,4.32,4.32,0,0,0-1.35.2,4.05,4.05,0,0,0-1,.49v10.29a3.4,3.4,0,0,0,.9.31A5.17,5.17,0,0,0,1190.25,684.09Z"/><path class="cls-2" d="M1210,690.32V692h-8.94v-1.68l1.49-.27a.7.7,0,0,0,.63-.76V673.8a.88.88,0,0,0-.15-.52.65.65,0,0,0-.44-.27l-1.69-.31V671a22.27,22.27,0,0,1,2.66-.53,21,21,0,0,1,2.66-.22l.59.55.25,1.35a5.93,5.93,0,0,1,1.83-1.39,5.61,5.61,0,0,1,2.54-.54,5.91,5.91,0,0,1,2.24.42,4.64,4.64,0,0,1,1.79,1.29,6.28,6.28,0,0,1,1.18,2.22,10.51,10.51,0,0,1,.43,3.19,10.92,10.92,0,0,1-.56,3.62,7.23,7.23,0,0,1-1.58,2.66,6.72,6.72,0,0,1-2.49,1.63,9.16,9.16,0,0,1-3.29.56c-.3,0-.61,0-.93,0a8.07,8.07,0,0,1-1-.15v3.69a.68.68,0,0,0,.65.75Zm-.83-6.23a3.08,3.08,0,0,0,2.59-1.32q1-1.32,1-4.71a8.09,8.09,0,0,0-.74-4.08,2.56,2.56,0,0,0-2.36-1.28,4.32,4.32,0,0,0-1.35.2,4.05,4.05,0,0,0-1,.49v10.29a3.4,3.4,0,0,0,.9.31A5.17,5.17,0,0,0,1209.22,684.09Z"/><path class="cls-2" d="M1228.26,683.81v1.69h-7.91v-1.69l1.49-.26a.78.78,0,0,0,.47-.25.75.75,0,0,0,.17-.51v-9a.82.82,0,0,0-.16-.52.7.7,0,0,0-.46-.25l-1.68-.31V671a19.82,19.82,0,0,1,2.68-.54,21.68,21.68,0,0,1,2.66-.2l.59.55.25,1.48a5.9,5.9,0,0,1,2.26-1.53,7.68,7.68,0,0,1,2.72-.48q2.62,0,3.58,1.49a7.68,7.68,0,0,1,1,4.18v6.85a.75.75,0,0,0,.17.52.8.8,0,0,0,.47.24l1.49.26v1.69h-7.91v-1.69l1.06-.25a1,1,0,0,0,.46-.27.72.72,0,0,0,.16-.5v-6.32a5.4,5.4,0,0,0-.56-2.81,2.08,2.08,0,0,0-1.89-.86,5.11,5.11,0,0,0-1.42.21,5.29,5.29,0,0,0-1.37.62v9.18a.72.72,0,0,0,.16.5,1,1,0,0,0,.45.27Z"/><path class="cls-2" d="M1246.87,670.79v12a.77.77,0,0,0,.16.51.76.76,0,0,0,.48.25l1.48.26v1.69h-8.34v-1.69l1.48-.26a.79.79,0,0,0,.48-.25.75.75,0,0,0,.17-.51v-9a.82.82,0,0,0-.16-.52.7.7,0,0,0-.46-.25l-1.68-.31V671a18.73,18.73,0,0,1,2.91-.55,25.71,25.71,0,0,1,2.91-.18Zm.05-4.62a2.11,2.11,0,0,1-.64,1.6,2.37,2.37,0,0,1-1.7.61,2.41,2.41,0,0,1-1.72-.61,2.1,2.1,0,0,1-.65-1.6,2.06,2.06,0,0,1,.65-1.58,2.43,2.43,0,0,1,1.72-.6,2.39,2.39,0,0,1,1.7.6A2.07,2.07,0,0,1,1246.92,666.17Z"/><path class="cls-2" d="M1252.14,684.75a13.85,13.85,0,0,1-.1-2.14,17.61,17.61,0,0,1,.18-2.06h2.07l.54,2a3.22,3.22,0,0,0,.24.65,1.26,1.26,0,0,0,.37.41,4.8,4.8,0,0,0,.89.42,3.76,3.76,0,0,0,1.34.22,2.38,2.38,0,0,0,1.7-.56,1.78,1.78,0,0,0,.59-1.34,1.58,1.58,0,0,0-.3-1,3.12,3.12,0,0,0-.83-.75,9.57,9.57,0,0,0-1.27-.67l-1.63-.73a10.27,10.27,0,0,1-2.72-1.75,3.53,3.53,0,0,1-1-2.72,4,4,0,0,1,1.54-3.27,7,7,0,0,1,4.48-1.23,14.5,14.5,0,0,1,2.61.25,12,12,0,0,1,2.3.63,16.8,16.8,0,0,1,0,2,14.86,14.86,0,0,1-.24,2h-1.92l-.54-1.81a2.51,2.51,0,0,0-.26-.59,1.27,1.27,0,0,0-.43-.39,2.36,2.36,0,0,0-.72-.31,4,4,0,0,0-.89-.12,2.43,2.43,0,0,0-1.55.45,1.57,1.57,0,0,0-.61,1.33,1.65,1.65,0,0,0,.28,1,2.65,2.65,0,0,0,.73.7,6.63,6.63,0,0,0,1,.56l1.23.52q.93.39,1.8.83a7.28,7.28,0,0,1,1.52,1,4.4,4.4,0,0,1,1,1.32,3.89,3.89,0,0,1,.39,1.81,4,4,0,0,1-.47,2,4.1,4.1,0,0,1-1.31,1.43,6.15,6.15,0,0,1-2,.86,10.5,10.5,0,0,1-2.53.29,12.61,12.61,0,0,1-3.07-.36A18.25,18.25,0,0,1,1252.14,684.75Z"/><path class="cls-2" d="M1274.62,683.81v1.69h-7.89v-1.69l1.48-.26a.8.8,0,0,0,.47-.24.75.75,0,0,0,.17-.52V665.3a.74.74,0,0,0-.16-.5.77.77,0,0,0-.48-.24l-1.77-.28v-1.62a14.28,14.28,0,0,1,1.42-.31c.51-.09,1-.16,1.54-.22s1-.1,1.54-.13,1,0,1.42,0l.56.55v9.61a5.82,5.82,0,0,1,2.19-1.39,7.75,7.75,0,0,1,2.62-.44q2.62,0,3.58,1.49a7.68,7.68,0,0,1,1,4.18v6.85a.77.77,0,0,0,.16.52.78.78,0,0,0,.48.24l1.48.26v1.69h-7.89v-1.69l1.06-.25a1.07,1.07,0,0,0,.46-.27.7.7,0,0,0,.17-.5v-6.32a5.39,5.39,0,0,0-.56-2.81,2.08,2.08,0,0,0-1.89-.86,5.16,5.16,0,0,0-1.43.21,5,5,0,0,0-1.38.64v9.15a.73.73,0,0,0,.16.5,1,1,0,0,0,.46.27Z"/><path class="cls-2" d="M1308.23,682.24a4.32,4.32,0,0,1-.86,1.56,5.12,5.12,0,0,1-1.37,1.12,6.75,6.75,0,0,1-1.77.67,8.89,8.89,0,0,1-2,.23,7.3,7.3,0,0,1-3.28-.67,5.49,5.49,0,0,1-2.17-1.89,5.68,5.68,0,0,1-2.27,1.87,7.26,7.26,0,0,1-3.12.67,5,5,0,0,1-3.27-1,3.26,3.26,0,0,1-1.18-2.64,3.53,3.53,0,0,1,.49-1.88,4.15,4.15,0,0,1,1.3-1.32,6.59,6.59,0,0,1,1.85-.81,10.62,10.62,0,0,1,2.14-.35l2.78-.17v-1.56a3,3,0,0,0-.82-2.41,3.35,3.35,0,0,0-2.26-.71,6.22,6.22,0,0,0-2.15.39,5.93,5.93,0,0,0-2,1.21l-.93-.84a4.46,4.46,0,0,1,.88-1.49,5.38,5.38,0,0,1,1.38-1.09,6.73,6.73,0,0,1,1.75-.67,8.67,8.67,0,0,1,2-.23,6.3,6.3,0,0,1,2.58.46,4,4,0,0,1,1.65,1.32,6.14,6.14,0,0,1,2.14-1.33,8,8,0,0,1,2.83-.47,5.94,5.94,0,0,1,4.28,1.4,4.89,4.89,0,0,1,1.45,3.69q0,.45-.05,1a9.24,9.24,0,0,1-.14,1h-8.67v0q0,3.22,1,4.56a3.44,3.44,0,0,0,2.91,1.33,5.63,5.63,0,0,0,2.15-.43,4,4,0,0,0,1.7-1.26Zm-15.34,1.2a4.57,4.57,0,0,0,1.68-.34,5.57,5.57,0,0,0,1.6-1,8.12,8.12,0,0,1-.42-1.36,9.85,9.85,0,0,1-.22-1.51l-1.85.13a2.87,2.87,0,0,0-2,.71,2.2,2.2,0,0,0-.58,1.56,1.88,1.88,0,0,0,.41,1.32A1.74,1.74,0,0,0,1292.89,683.45Zm9.32-11.43a2.22,2.22,0,0,0-1.74.84,5.25,5.25,0,0,0-.93,2.84h5c0-.09,0-.18,0-.28s0-.21,0-.33a3.86,3.86,0,0,0-.59-2.21A2,2,0,0,0,1302.21,672Z"/><path class="cls-2" d="M1313.76,669.74a7.22,7.22,0,0,1,.59-2.83,9.23,9.23,0,0,1,1.54-2.49,8.05,8.05,0,0,1,2.17-1.77,5,5,0,0,1,2.46-.68,5.09,5.09,0,0,1,2,.4,11,11,0,0,1,1.79.94l-.79,2.32q-.77-.16-1.6-.26a9.6,9.6,0,0,0-1.32-.08,3.29,3.29,0,0,0-2.09.6,3.08,3.08,0,0,0-.72,2.42v2.32H1322v2.3h-4.24v9.88a.71.71,0,0,0,.18.51.75.75,0,0,0,.5.21l2.71.29v1.69h-9.6v-1.69l1.47-.25a.81.81,0,0,0,.49-.24.74.74,0,0,0,.16-.51V673l-2.33-.37V671l2.41-.41Z"/><path class="cls-2" d="M1338.42,685.74a3.25,3.25,0,0,1-1.81-.46,2.87,2.87,0,0,1-1.08-1.33,6.08,6.08,0,0,1-1.94,1.37,6.65,6.65,0,0,1-2.7.49,4.49,4.49,0,0,1-3.53-1.3,5.79,5.79,0,0,1-1.16-4v-6.81a.85.85,0,0,0-.14-.5.71.71,0,0,0-.46-.27l-1.48-.33v-1.73a21.05,21.05,0,0,1,2.8-.48,26,26,0,0,1,2.81-.17l.55.52V680a4.93,4.93,0,0,0,.54,2.72,2.07,2.07,0,0,0,1.81.77,4.33,4.33,0,0,0,1.34-.22,5.07,5.07,0,0,0,1.27-.62v-8.88a.85.85,0,0,0-.16-.52.74.74,0,0,0-.46-.27l-1.65-.34v-1.71q.64-.16,1.39-.28t1.5-.2c.51-.05,1-.09,1.51-.12s1,0,1.39,0l.56.52v11.9a.78.78,0,0,0,.19.6.92.92,0,0,0,.52.21l1.35.16v1.58q-.46.14-1.32.32A8.13,8.13,0,0,1,1338.42,685.74Z"/><path class="cls-2" d="M731.51,734.17a10.3,10.3,0,0,1,.58-3.67,6.44,6.44,0,0,1,1.6-2.47,6.25,6.25,0,0,1,2.4-1.38,9.82,9.82,0,0,1,3-.44,6.92,6.92,0,0,1,5.29,2,8,8,0,0,1,1.85,5.73,10.25,10.25,0,0,1-.58,3.67A6.43,6.43,0,0,1,744,740a6.17,6.17,0,0,1-2.4,1.38,10,10,0,0,1-3,.43,6.91,6.91,0,0,1-5.28-2A8,8,0,0,1,731.51,734.17Zm10.25,0a12.78,12.78,0,0,0-.63-4.68,2.34,2.34,0,0,0-2.35-1.5,2.29,2.29,0,0,0-2.13,1.31,10.22,10.22,0,0,0-.71,4.5,12.81,12.81,0,0,0,.63,4.67,2.35,2.35,0,0,0,2.36,1.5,2.27,2.27,0,0,0,2.13-1.32A10.33,10.33,0,0,0,741.76,734.21Z"/><path class="cls-2" d="M764.54,742.85a4.81,4.81,0,0,1-.63,2.44,5.55,5.55,0,0,1-1.77,1.85,8.91,8.91,0,0,1-2.76,1.17,14.46,14.46,0,0,1-3.58.41,8.49,8.49,0,0,1-5-1.16,3.51,3.51,0,0,1-1.58-2.94,3,3,0,0,1,.77-2.15,5.48,5.48,0,0,1,2.06-1.32,2.57,2.57,0,0,1-1.17-1,2.88,2.88,0,0,1,.17-3.1,3.88,3.88,0,0,1,1.41-1.09,4.16,4.16,0,0,1-2.09-1.75,5.18,5.18,0,0,1-.66-2.63,4.75,4.75,0,0,1,1.81-4,7.92,7.92,0,0,1,4.95-1.39,9.5,9.5,0,0,1,2.71.35,5.25,5.25,0,0,1,2,1,4.35,4.35,0,0,1,1.18-1,2.57,2.57,0,0,1,1.32-.38,3.53,3.53,0,0,1,.72.08,6.09,6.09,0,0,1,.66.17v2.84h-2.75a4.39,4.39,0,0,1,.25.92,6.55,6.55,0,0,1,.08,1,5.78,5.78,0,0,1-.41,2.19,4.37,4.37,0,0,1-1.22,1.7,5.82,5.82,0,0,1-2.08,1.09,9.86,9.86,0,0,1-2.93.39q-.56,0-1.08,0c-.34,0-.67-.07-1-.12a1.77,1.77,0,0,0-.35.56,1.71,1.71,0,0,0-.11.61,1,1,0,0,0,.66,1,6.07,6.07,0,0,0,2.22.29h2.83a6.76,6.76,0,0,1,4,1A3.4,3.4,0,0,1,764.54,742.85Zm-8.05,4a4.55,4.55,0,0,0,2.84-.8,2.8,2.8,0,0,0,1-2.36,1.89,1.89,0,0,0-.54-1.49,3,3,0,0,0-1.94-.47h-3.49l-.53,0a3.45,3.45,0,0,0-.53,1,3.93,3.93,0,0,0-.2,1.3,3,3,0,0,0,.74,2.06A3.39,3.39,0,0,0,756.49,746.8Zm-2.64-15.47a4.75,4.75,0,0,0,.6,2.68,2.11,2.11,0,0,0,1.86.86,1.92,1.92,0,0,0,1.76-.87,5,5,0,0,0,.54-2.62,4.77,4.77,0,0,0-.57-2.68,2.05,2.05,0,0,0-1.8-.81,2.17,2.17,0,0,0-1.75.77A4.19,4.19,0,0,0,753.85,731.33Z"/><path class="cls-2" d="M783.45,739.81v1.69h-7.91v-1.69l1.49-.26a.78.78,0,0,0,.47-.25.75.75,0,0,0,.17-.51v-9a.82.82,0,0,0-.16-.52.7.7,0,0,0-.46-.25l-1.68-.31V727a19.82,19.82,0,0,1,2.68-.54,21.68,21.68,0,0,1,2.66-.2l.59.55.25,1.48a5.9,5.9,0,0,1,2.26-1.53,7.68,7.68,0,0,1,2.72-.48q2.62,0,3.58,1.49a7.68,7.68,0,0,1,1,4.18v6.85a.75.75,0,0,0,.17.52.8.8,0,0,0,.47.24l1.49.26v1.69h-7.91v-1.69l1.06-.25a1,1,0,0,0,.46-.27.72.72,0,0,0,.16-.5v-6.32a5.4,5.4,0,0,0-.56-2.81,2.08,2.08,0,0,0-1.89-.86,5.11,5.11,0,0,0-1.42.21,5.29,5.29,0,0,0-1.37.62v9.18a.72.72,0,0,0,.16.5,1,1,0,0,0,.45.27Z"/><path class="cls-2" d="M798.28,748.28a16.13,16.13,0,0,1-1.74-.1q-.9-.1-1.69-.23v-2q1.52-.2,2.72-.46a9.22,9.22,0,0,0,2.14-.74,6,6,0,0,0,1.67-1.24,7.88,7.88,0,0,0,1.32-2H801l-4.69-12.23a1,1,0,0,0-.3-.45,1.5,1.5,0,0,0-.48-.25l-1-.31V726.6h8.17v1.69l-2,.41,3.3,9.52,3-9.52-2-.42V726.6h5.88v1.66l-1,.31a1.34,1.34,0,0,0-.49.24,1,1,0,0,0-.28.46l-4.38,12.55a13.79,13.79,0,0,1-2.62,4.85A4.94,4.94,0,0,1,798.28,748.28Zm3.65-23.2-1.07-1.26,5-5.84,2.36,2.16a10.51,10.51,0,0,1-1.16,1.24q-.7.65-1.53,1.28t-1.77,1.26Q802.86,724.55,801.94,725.08Z"/><path class="cls-2" d="M813.09,740.75a13.85,13.85,0,0,1-.1-2.14,17.61,17.61,0,0,1,.18-2.06h2.07l.54,2a3.22,3.22,0,0,0,.24.65,1.26,1.26,0,0,0,.37.41,4.8,4.8,0,0,0,.89.42,3.76,3.76,0,0,0,1.34.22,2.38,2.38,0,0,0,1.7-.56,1.78,1.78,0,0,0,.59-1.34,1.58,1.58,0,0,0-.3-1,3.12,3.12,0,0,0-.83-.75,9.57,9.57,0,0,0-1.27-.67l-1.63-.73a10.27,10.27,0,0,1-2.72-1.75,3.53,3.53,0,0,1-1-2.72,4,4,0,0,1,1.54-3.27,7,7,0,0,1,4.48-1.23,14.5,14.5,0,0,1,2.61.25,12,12,0,0,1,2.3.63,16.8,16.8,0,0,1,0,2,14.86,14.86,0,0,1-.24,2h-1.92l-.54-1.81a2.51,2.51,0,0,0-.26-.59,1.27,1.27,0,0,0-.43-.39,2.36,2.36,0,0,0-.72-.31,4,4,0,0,0-.89-.12,2.43,2.43,0,0,0-1.55.45,1.57,1.57,0,0,0-.61,1.33,1.65,1.65,0,0,0,.28,1,2.65,2.65,0,0,0,.73.7,6.63,6.63,0,0,0,1,.56l1.23.52q.93.39,1.8.83a7.28,7.28,0,0,1,1.52,1,4.4,4.4,0,0,1,1,1.32,3.89,3.89,0,0,1,.39,1.81,4,4,0,0,1-.47,2,4.1,4.1,0,0,1-1.31,1.43,6.15,6.15,0,0,1-2,.86,10.5,10.5,0,0,1-2.53.29,12.61,12.61,0,0,1-3.07-.36A18.25,18.25,0,0,1,813.09,740.75Z"/><path class="cls-2" d="M835.94,739.81v1.69h-8.27v-1.69l1.48-.26a.72.72,0,0,0,.64-.77V721.41a.76.76,0,0,0-.16-.52.77.77,0,0,0-.48-.24l-1.77-.26v-1.64q.65-.17,1.41-.32t1.54-.26q.78-.1,1.54-.16t1.43-.06l.55.51v15.75l5.2-5.55-2.47-.43v-1.61h7.59v1.61l-1.54.37a6.79,6.79,0,0,0-.75.22,1.61,1.61,0,0,0-.55.39l-2.75,2.75a9.35,9.35,0,0,1,.82,1.13q.37.6.79,1.41l2.29,4.2a1.57,1.57,0,0,0,.4.5,1.6,1.6,0,0,0,.53.24l1.49.38v1.69H840a1.24,1.24,0,0,1-1.07-.73q-.42-.73-.91-1.73l-1.27-2.68q-.21-.45-.43-.87t-.45-.8l-2,2v2.12a.75.75,0,0,0,.17.52.8.8,0,0,0,.47.24Z"/><path class="cls-2" d="M846.73,734.17a10.3,10.3,0,0,1,.58-3.67,6.44,6.44,0,0,1,1.6-2.47,6.25,6.25,0,0,1,2.4-1.38,9.82,9.82,0,0,1,3-.44,6.92,6.92,0,0,1,5.29,2,8,8,0,0,1,1.85,5.73,10.25,10.25,0,0,1-.58,3.67,6.43,6.43,0,0,1-1.6,2.46,6.17,6.17,0,0,1-2.4,1.38,10,10,0,0,1-3,.43,6.91,6.91,0,0,1-5.28-2A8,8,0,0,1,846.73,734.17Zm6.3-12a2,2,0,0,1-.56,1.5,2.18,2.18,0,0,1-2.94,0,2.31,2.31,0,0,1,0-3,2.2,2.2,0,0,1,2.94,0A2,2,0,0,1,853,722.18Zm4,12a12.78,12.78,0,0,0-.63-4.68A2.34,2.34,0,0,0,854,728a2.29,2.29,0,0,0-2.13,1.31,10.22,10.22,0,0,0-.71,4.5,12.81,12.81,0,0,0,.63,4.67,2.35,2.35,0,0,0,2.36,1.5,2.27,2.27,0,0,0,2.13-1.32A10.33,10.33,0,0,0,857,734.21Zm2.19-12a2.05,2.05,0,0,1-.56,1.5,2.17,2.17,0,0,1-2.93,0,2.31,2.31,0,0,1,0-3,2.19,2.19,0,0,1,2.93,0A2.05,2.05,0,0,1,859.17,722.18Z"/><path class="cls-2" d="M873.31,746.32V748h-8.94v-1.68l1.49-.27a.7.7,0,0,0,.63-.76V729.8a.88.88,0,0,0-.15-.52.65.65,0,0,0-.44-.27l-1.69-.31V727a22.27,22.27,0,0,1,2.66-.53,21,21,0,0,1,2.66-.22l.59.55.25,1.35a5.93,5.93,0,0,1,1.83-1.39,5.61,5.61,0,0,1,2.54-.54,5.91,5.91,0,0,1,2.24.42,4.64,4.64,0,0,1,1.79,1.29,6.28,6.28,0,0,1,1.18,2.22,10.51,10.51,0,0,1,.43,3.19,10.92,10.92,0,0,1-.56,3.62,7.23,7.23,0,0,1-1.58,2.66,6.72,6.72,0,0,1-2.49,1.63,9.16,9.16,0,0,1-3.29.56c-.3,0-.61,0-.93,0a8.07,8.07,0,0,1-1-.15v3.69a.68.68,0,0,0,.65.75Zm-.83-6.23a3.08,3.08,0,0,0,2.59-1.32q1-1.32,1-4.71a8.09,8.09,0,0,0-.74-4.08A2.56,2.56,0,0,0,873,728.7a4.32,4.32,0,0,0-1.35.2,4.05,4.05,0,0,0-1,.49v10.29a3.4,3.4,0,0,0,.9.31A5.17,5.17,0,0,0,872.48,740.09Z"/><path class="cls-2" d="M897.49,741.74a3.25,3.25,0,0,1-1.81-.46,2.87,2.87,0,0,1-1.08-1.33,6.08,6.08,0,0,1-1.94,1.37,6.65,6.65,0,0,1-2.7.49,4.49,4.49,0,0,1-3.53-1.3,5.79,5.79,0,0,1-1.16-4v-6.81a.85.85,0,0,0-.14-.5.71.71,0,0,0-.46-.27l-1.48-.33v-1.73a21.05,21.05,0,0,1,2.8-.48,26,26,0,0,1,2.81-.17l.55.52V736a4.93,4.93,0,0,0,.54,2.72,2.07,2.07,0,0,0,1.81.77,4.33,4.33,0,0,0,1.34-.22,5.07,5.07,0,0,0,1.27-.62v-8.88a.85.85,0,0,0-.16-.52.74.74,0,0,0-.46-.27l-1.65-.34v-1.71q.64-.16,1.39-.28t1.5-.2c.51-.05,1-.09,1.51-.12s1,0,1.39,0l.56.52v11.9a.78.78,0,0,0,.19.6.92.92,0,0,0,.52.21l1.35.16v1.58q-.46.14-1.32.32A8.13,8.13,0,0,1,897.49,741.74Z"/><path class="cls-2" d="M911.15,739.81v1.69h-7.91v-1.69l1.49-.26a.78.78,0,0,0,.47-.25.75.75,0,0,0,.17-.51v-9a.82.82,0,0,0-.16-.52.7.7,0,0,0-.46-.25l-1.68-.31V727a19.82,19.82,0,0,1,2.68-.54,21.68,21.68,0,0,1,2.66-.2l.59.55.25,1.48a5.9,5.9,0,0,1,2.26-1.53,7.68,7.68,0,0,1,2.72-.48q2.62,0,3.58,1.49a7.68,7.68,0,0,1,1,4.18v6.85a.75.75,0,0,0,.17.52.8.8,0,0,0,.47.24l1.49.26v1.69H913v-1.69l1.06-.25a1,1,0,0,0,.46-.27.72.72,0,0,0,.16-.5v-6.32a5.4,5.4,0,0,0-.56-2.81,2.08,2.08,0,0,0-1.89-.86,5.11,5.11,0,0,0-1.42.21,5.29,5.29,0,0,0-1.37.62v9.18a.72.72,0,0,0,.16.5,1,1,0,0,0,.45.27Z"/><path class="cls-2" d="M935.1,741.74a3.64,3.64,0,0,1-1.8-.41,2.52,2.52,0,0,1-1.11-1.37,5.36,5.36,0,0,1-1.93,1.36,6.49,6.49,0,0,1-2.56.49,4.69,4.69,0,0,1-3.11-1,3.29,3.29,0,0,1-1.18-2.66,3.47,3.47,0,0,1,.49-1.87,4.11,4.11,0,0,1,1.3-1.31,6.66,6.66,0,0,1,1.85-.8,10.55,10.55,0,0,1,2.14-.35l2.78-.18v-1.56a2.6,2.6,0,0,0-3-3.12,6.14,6.14,0,0,0-4.22,1.6l-.93-.84a4.78,4.78,0,0,1,2.25-2.56,8.25,8.25,0,0,1,4.09-.92,5,5,0,0,1,5.76,5.66v6.78a.82.82,0,0,0,.18.6.85.85,0,0,0,.52.22l1.36.16v1.58q-.44.13-1.31.31A7.74,7.74,0,0,1,935.1,741.74Zm-5.71-2.29a4.38,4.38,0,0,0,2.58-.85v-3.33l-1.79.13a2.9,2.9,0,0,0-2,.71,2.18,2.18,0,0,0-.59,1.57A1.88,1.88,0,0,0,928,739,1.74,1.74,0,0,0,929.39,739.45Z"/><path class="cls-2" d="M949.86,739.83v1.68h-9.24v-1.69l1.48-.26a.81.81,0,0,0,.48-.24.75.75,0,0,0,.17-.52v-9a.94.94,0,0,0-.15-.54.68.68,0,0,0-.48-.27l-1.66-.31V727a16.93,16.93,0,0,1,2.55-.54,20.26,20.26,0,0,1,2.54-.2l.64.52.43,2.54a7.94,7.94,0,0,1,2.08-2.23,4.29,4.29,0,0,1,2.53-.87,6,6,0,0,1,1,.11,3.46,3.46,0,0,1,.94.28,11.87,11.87,0,0,1,.07,1.24q0,.68,0,1.4t-.14,1.47q-.1.75-.24,1.41H951l-.43-1.7a.87.87,0,0,0-1-.77,3.76,3.76,0,0,0-1.34.25,4.38,4.38,0,0,0-1.41.86v8a.77.77,0,0,0,.17.52.75.75,0,0,0,.5.24Z"/><path class="cls-2" d="M968.89,741.74a3.28,3.28,0,0,1-1.83-.46,2.87,2.87,0,0,1-1.08-1.33,5.84,5.84,0,0,1-1.82,1.34,5.54,5.54,0,0,1-2.44.52,6.38,6.38,0,0,1-2.34-.42,4.86,4.86,0,0,1-1.88-1.32,6.3,6.3,0,0,1-1.24-2.28,10.75,10.75,0,0,1-.45-3.31q0-4.06,2.06-6.16a7.57,7.57,0,0,1,5.67-2.1,9.67,9.67,0,0,1,1.13.07q.56.07,1,.16v-5a.69.69,0,0,0-.64-.76l-1.81-.26v-1.64q.65-.17,1.43-.32t1.56-.26q.79-.1,1.56-.16t1.43-.06l.55.52v20.21a.78.78,0,0,0,.19.6.9.9,0,0,0,.5.21l1.38.16v1.58q-.47.14-1.33.32A8.06,8.06,0,0,1,968.89,741.74Zm-5.72-2.28a4.71,4.71,0,0,0,1.33-.2,4.47,4.47,0,0,0,1.19-.54V728.5a3.41,3.41,0,0,0-.9-.33,4.84,4.84,0,0,0-1.07-.12,3.53,3.53,0,0,0-1.44.29,2.69,2.69,0,0,0-1.12,1,5.35,5.35,0,0,0-.74,1.82,12.59,12.59,0,0,0-.27,2.83,8,8,0,0,0,.83,4.27A2.54,2.54,0,0,0,963.17,739.46Z"/><path class="cls-2" d="M983.88,739.83v1.68h-9.24v-1.69l1.48-.26a.81.81,0,0,0,.48-.24.75.75,0,0,0,.17-.52v-9a.94.94,0,0,0-.15-.54.68.68,0,0,0-.48-.27l-1.66-.31V727a16.93,16.93,0,0,1,2.55-.54,20.26,20.26,0,0,1,2.54-.2l.64.52.43,2.54a7.94,7.94,0,0,1,2.08-2.23,4.29,4.29,0,0,1,2.53-.87,6,6,0,0,1,1,.11,3.46,3.46,0,0,1,.94.28,11.87,11.87,0,0,1,.07,1.24q0,.68,0,1.4t-.14,1.47q-.1.75-.24,1.41H985l-.43-1.7a.87.87,0,0,0-1-.77,3.76,3.76,0,0,0-1.34.25,4.38,4.38,0,0,0-1.41.86v8a.77.77,0,0,0,.17.52.75.75,0,0,0,.5.24Z"/><path class="cls-2" d="M996.27,726.79v12a.77.77,0,0,0,.16.51.76.76,0,0,0,.48.25l1.48.26v1.69h-8.34v-1.69l1.48-.26a.79.79,0,0,0,.48-.25.75.75,0,0,0,.17-.51v-9a.82.82,0,0,0-.16-.52.7.7,0,0,0-.46-.25l-1.68-.31V727a18.73,18.73,0,0,1,2.91-.55,25.71,25.71,0,0,1,2.91-.18Zm.05-4.62a2.11,2.11,0,0,1-.64,1.6,2.37,2.37,0,0,1-1.7.61,2.41,2.41,0,0,1-1.72-.61,2.1,2.1,0,0,1-.65-1.6,2.06,2.06,0,0,1,.65-1.58A2.43,2.43,0,0,1,994,720a2.39,2.39,0,0,1,1.7.6A2.07,2.07,0,0,1,996.32,722.17Z"/><path class="cls-2" d="M1003.37,725.74a7.22,7.22,0,0,1,.59-2.83,9.23,9.23,0,0,1,1.54-2.49,8.05,8.05,0,0,1,2.17-1.77,5,5,0,0,1,2.46-.68,5.09,5.09,0,0,1,2,.4,11,11,0,0,1,1.79.94l-.79,2.32q-.77-.16-1.6-.26a9.6,9.6,0,0,0-1.32-.08,3.29,3.29,0,0,0-2.09.6,3.08,3.08,0,0,0-.72,2.42v2.32h4.25v2.3h-4.24v9.88a.71.71,0,0,0,.18.51.75.75,0,0,0,.5.21l2.71.29v1.69h-9.6v-1.69l1.47-.25a.81.81,0,0,0,.49-.24.74.74,0,0,0,.16-.51V729l-2.33-.37V727l2.41-.41Z"/><path class="cls-2" d="M1022.07,739.81v1.69h-7.91v-1.69l1.49-.26a.78.78,0,0,0,.47-.25.75.75,0,0,0,.17-.51v-9a.82.82,0,0,0-.16-.52.7.7,0,0,0-.46-.25l-1.68-.31V727a19.82,19.82,0,0,1,2.68-.54,21.68,21.68,0,0,1,2.66-.2l.59.55.25,1.48a5.9,5.9,0,0,1,2.26-1.53,7.68,7.68,0,0,1,2.72-.48q2.62,0,3.58,1.49a7.68,7.68,0,0,1,1,4.18v6.85a.75.75,0,0,0,.17.52.8.8,0,0,0,.47.24l1.49.26v1.69h-7.91v-1.69l1.06-.25a1,1,0,0,0,.46-.27.72.72,0,0,0,.16-.5v-6.32a5.4,5.4,0,0,0-.56-2.81,2.08,2.08,0,0,0-1.89-.86,5.11,5.11,0,0,0-1.42.21,5.29,5.29,0,0,0-1.37.62v9.18a.72.72,0,0,0,.16.5,1,1,0,0,0,.45.27Z"/><path class="cls-2" d="M1048.33,741.74a3.25,3.25,0,0,1-1.81-.46,2.87,2.87,0,0,1-1.08-1.33,6.08,6.08,0,0,1-1.94,1.37,6.65,6.65,0,0,1-2.7.49,4.49,4.49,0,0,1-3.53-1.3,5.79,5.79,0,0,1-1.16-4v-6.81a.85.85,0,0,0-.14-.5.71.71,0,0,0-.46-.27l-1.48-.33v-1.73a21.05,21.05,0,0,1,2.8-.48,26,26,0,0,1,2.81-.17l.55.52V736a4.93,4.93,0,0,0,.54,2.72,2.07,2.07,0,0,0,1.81.77,4.33,4.33,0,0,0,1.34-.22,5.07,5.07,0,0,0,1.27-.62v-8.88a.85.85,0,0,0-.16-.52.74.74,0,0,0-.46-.27l-1.65-.34v-1.71q.64-.16,1.39-.28t1.5-.2c.51-.05,1-.09,1.51-.12s1,0,1.39,0l.56.52v11.9a.78.78,0,0,0,.19.6.92.92,0,0,0,.52.21l1.35.16v1.58q-.46.14-1.32.32A8.13,8.13,0,0,1,1048.33,741.74Z"/><path class="cls-2" d="M1069.59,739.81v1.69h-7.89v-1.69l1.48-.26a.8.8,0,0,0,.47-.24.75.75,0,0,0,.17-.52V721.3a.74.74,0,0,0-.16-.5.77.77,0,0,0-.48-.24l-1.77-.28v-1.62a14.28,14.28,0,0,1,1.42-.31q.76-.13,1.54-.22t1.54-.13q.77,0,1.42,0l.56.55v9.61a5.82,5.82,0,0,1,2.19-1.39,7.75,7.75,0,0,1,2.62-.44q2.62,0,3.58,1.49a7.68,7.68,0,0,1,1,4.18v6.85a.77.77,0,0,0,.16.52.78.78,0,0,0,.48.24l1.48.26v1.69h-7.89v-1.69l1.06-.25a1.07,1.07,0,0,0,.46-.27.7.7,0,0,0,.17-.5v-6.32a5.39,5.39,0,0,0-.56-2.81,2.08,2.08,0,0,0-1.89-.86,5.16,5.16,0,0,0-1.43.21,5,5,0,0,0-1.38.64v9.15a.73.73,0,0,0,.16.5,1,1,0,0,0,.46.27Z"/><path class="cls-2" d="M1093.57,741.74a3.64,3.64,0,0,1-1.8-.41,2.52,2.52,0,0,1-1.11-1.37,5.36,5.36,0,0,1-1.93,1.36,6.49,6.49,0,0,1-2.56.49,4.69,4.69,0,0,1-3.11-1,3.29,3.29,0,0,1-1.18-2.66,3.47,3.47,0,0,1,.49-1.87,4.11,4.11,0,0,1,1.3-1.31,6.66,6.66,0,0,1,1.85-.8,10.55,10.55,0,0,1,2.14-.35l2.78-.18v-1.56a2.6,2.6,0,0,0-3-3.12,6.14,6.14,0,0,0-4.22,1.6l-.93-.84a4.78,4.78,0,0,1,2.25-2.56,8.25,8.25,0,0,1,4.09-.92,5,5,0,0,1,5.76,5.66v6.78a.82.82,0,0,0,.18.6.85.85,0,0,0,.52.22l1.36.16v1.58q-.44.13-1.31.31A7.74,7.74,0,0,1,1093.57,741.74Zm-5.71-2.29a4.38,4.38,0,0,0,2.58-.85v-3.33l-1.79.13a2.9,2.9,0,0,0-2,.71,2.18,2.18,0,0,0-.59,1.57,1.88,1.88,0,0,0,.41,1.32A1.74,1.74,0,0,0,1087.86,739.45Z"/><path class="cls-2" d="M1114.21,742.85a4.81,4.81,0,0,1-.63,2.44,5.55,5.55,0,0,1-1.77,1.85,8.91,8.91,0,0,1-2.76,1.17,14.46,14.46,0,0,1-3.58.41,8.49,8.49,0,0,1-5-1.16,3.51,3.51,0,0,1-1.58-2.94,3,3,0,0,1,.77-2.15,5.48,5.48,0,0,1,2.06-1.32,2.57,2.57,0,0,1-1.17-1,2.88,2.88,0,0,1,.17-3.1,3.88,3.88,0,0,1,1.41-1.09,4.16,4.16,0,0,1-2.09-1.75,5.18,5.18,0,0,1-.66-2.63,4.75,4.75,0,0,1,1.81-4,7.92,7.92,0,0,1,4.95-1.39,9.5,9.5,0,0,1,2.71.35,5.25,5.25,0,0,1,2,1,4.35,4.35,0,0,1,1.18-1,2.57,2.57,0,0,1,1.32-.38,3.53,3.53,0,0,1,.72.08,6.09,6.09,0,0,1,.66.17v2.84H1112a4.39,4.39,0,0,1,.25.92,6.55,6.55,0,0,1,.08,1,5.78,5.78,0,0,1-.41,2.19,4.37,4.37,0,0,1-1.22,1.7,5.82,5.82,0,0,1-2.08,1.09,9.86,9.86,0,0,1-2.93.39q-.56,0-1.08,0c-.34,0-.67-.07-1-.12a1.77,1.77,0,0,0-.35.56,1.71,1.71,0,0,0-.11.61,1,1,0,0,0,.66,1,6.07,6.07,0,0,0,2.22.29h2.83a6.76,6.76,0,0,1,4,1A3.4,3.4,0,0,1,1114.21,742.85Zm-8.05,4a4.55,4.55,0,0,0,2.84-.8,2.8,2.8,0,0,0,1-2.36,1.89,1.89,0,0,0-.54-1.49,3,3,0,0,0-1.94-.47h-3.49l-.53,0a3.45,3.45,0,0,0-.53,1,3.93,3.93,0,0,0-.2,1.3,3,3,0,0,0,.74,2.06A3.39,3.39,0,0,0,1106.16,746.8Zm-2.64-15.47a4.75,4.75,0,0,0,.6,2.68,2.11,2.11,0,0,0,1.86.86,1.92,1.92,0,0,0,1.76-.87,5,5,0,0,0,.54-2.62,4.77,4.77,0,0,0-.57-2.68,2.05,2.05,0,0,0-1.8-.81,2.17,2.17,0,0,0-1.75.77A4.19,4.19,0,0,0,1103.51,731.33Z"/><path class="cls-2" d="M1125.11,739.81v1.69h-8.27v-1.69l1.48-.26a.72.72,0,0,0,.64-.77V721.41a.76.76,0,0,0-.16-.52.77.77,0,0,0-.48-.24l-1.77-.26v-1.64q.65-.17,1.41-.32t1.54-.26q.78-.1,1.54-.16t1.43-.06l.55.51v15.75l5.2-5.55-2.47-.43v-1.61h7.59v1.61l-1.54.37a6.79,6.79,0,0,0-.75.22,1.61,1.61,0,0,0-.55.39l-2.75,2.75a9.35,9.35,0,0,1,.82,1.13q.37.6.79,1.41l2.29,4.2a1.57,1.57,0,0,0,.4.5,1.6,1.6,0,0,0,.53.24l1.49.38v1.69h-4.94a1.24,1.24,0,0,1-1.07-.73q-.42-.73-.91-1.73l-1.27-2.68q-.21-.45-.43-.87t-.45-.8l-2,2v2.12a.75.75,0,0,0,.17.52.8.8,0,0,0,.47.24Z"/><path class="cls-2" d="M1148.89,738.24a4.52,4.52,0,0,1-2.15,2.64,7.73,7.73,0,0,1-3.94.94,7.86,7.86,0,0,1-3.07-.55,5.69,5.69,0,0,1-2.15-1.54,6.4,6.4,0,0,1-1.26-2.41,11.18,11.18,0,0,1-.41-3.14,8.3,8.3,0,0,1,1.93-5.9,7,7,0,0,1,5.33-2.06,6.06,6.06,0,0,1,4.35,1.4,4.88,4.88,0,0,1,1.46,3.69q0,.45-.05,1a9.25,9.25,0,0,1-.14,1h-8.67v.09a8.06,8.06,0,0,0,.94,4.47,3.35,3.35,0,0,0,3,1.35,5.62,5.62,0,0,0,2.18-.43,4.15,4.15,0,0,0,1.7-1.26ZM1142.83,728a2.16,2.16,0,0,0-1.75.84,5.42,5.42,0,0,0-.88,2.85h5c0-.09,0-.18,0-.28v-.33a3.92,3.92,0,0,0-.58-2.22A2,2,0,0,0,1142.83,728Z"/><path class="cls-2" d="M1161.44,739.83v1.68h-9.24v-1.69l1.48-.26a.81.81,0,0,0,.48-.24.75.75,0,0,0,.17-.52v-9a.94.94,0,0,0-.15-.54.68.68,0,0,0-.48-.27l-1.66-.31V727a16.93,16.93,0,0,1,2.55-.54,20.26,20.26,0,0,1,2.54-.2l.64.52.43,2.54a7.94,7.94,0,0,1,2.08-2.23,4.29,4.29,0,0,1,2.53-.87,6,6,0,0,1,1,.11,3.46,3.46,0,0,1,.94.28,11.87,11.87,0,0,1,.07,1.24q0,.68,0,1.4t-.14,1.47q-.1.75-.24,1.41h-1.85l-.43-1.7a.87.87,0,0,0-1-.77,3.76,3.76,0,0,0-1.34.25,4.38,4.38,0,0,0-1.41.86v8a.77.77,0,0,0,.17.52.75.75,0,0,0,.5.24Z"/><path class="cls-2" d="M1169.83,725.74a7.22,7.22,0,0,1,.59-2.83,9.23,9.23,0,0,1,1.54-2.49,8.05,8.05,0,0,1,2.17-1.77,5,5,0,0,1,2.46-.68,5.09,5.09,0,0,1,2,.4,11,11,0,0,1,1.79.94l-.79,2.32q-.77-.16-1.6-.26a9.6,9.6,0,0,0-1.32-.08,3.29,3.29,0,0,0-2.09.6,3.08,3.08,0,0,0-.72,2.42v2.32h4.25v2.3h-4.24v9.88a.71.71,0,0,0,.18.51.75.75,0,0,0,.5.21l2.71.29v1.69h-9.6v-1.69l1.47-.25a.81.81,0,0,0,.49-.24.74.74,0,0,0,.16-.51V729l-2.33-.37V727l2.41-.41Z"/><path class="cls-2" d="M1186.83,726.79v12a.77.77,0,0,0,.16.51.76.76,0,0,0,.48.25l1.48.26v1.69h-8.34v-1.69l1.48-.26a.79.79,0,0,0,.48-.25.75.75,0,0,0,.17-.51v-9a.82.82,0,0,0-.16-.52.7.7,0,0,0-.46-.25l-1.68-.31V727a18.73,18.73,0,0,1,2.91-.55,25.71,25.71,0,0,1,2.91-.18Zm.05-4.62a2.11,2.11,0,0,1-.64,1.6,2.37,2.37,0,0,1-1.7.61,2.41,2.41,0,0,1-1.72-.61,2.1,2.1,0,0,1-.65-1.6,2.06,2.06,0,0,1,.65-1.58,2.43,2.43,0,0,1,1.72-.6,2.39,2.39,0,0,1,1.7.6A2.07,2.07,0,0,1,1186.88,722.17Z"/><path class="cls-2" d="M434,490.56V495H408.22v-4.45l7-1.27a2.77,2.77,0,0,0,1.7-.92,2.82,2.82,0,0,0,.57-1.83V435.49a2.77,2.77,0,0,0-.59-1.81,2.8,2.8,0,0,0-1.68-.94l-7-1.35v-4.54h19L462.06,480V435.49a2.77,2.77,0,0,0-.59-1.81,2.8,2.8,0,0,0-1.68-.94l-7.42-1.35v-4.54h24.48v4.54l-6.2,1.35a3.13,3.13,0,0,0-1.68.94,2.66,2.66,0,0,0-.59,1.81V495h-8.12L423.8,439.33v47.21a2.89,2.89,0,0,0,.57,1.88,2.59,2.59,0,0,0,1.7.87Z"/><path class="cls-2" d="M532.22,495H500.85v-4.45l8.42-1.57a2.91,2.91,0,0,0,1.75-.83,2.52,2.52,0,0,0,.61-1.79v-17.5L492,434.75a4.23,4.23,0,0,0-1.13-1.31,4.35,4.35,0,0,0-1.62-.7l-5.5-1.35v-4.54h26.66v4.54l-8,1.62,16,28.84L533.14,433,525,431.39v-4.54h22.47v4.54l-5.37,1.22a5,5,0,0,0-1.66.68,3.31,3.31,0,0,0-1.13,1.33l-17.85,34.3v17.46a2.58,2.58,0,0,0,.59,1.79,2.85,2.85,0,0,0,1.77.83l8.42,1.57Zm.44-83.61a33.2,33.2,0,0,1-4.76,2.86q-2.88,1.46-6.13,2.88t-6.63,2.73q-3.38,1.31-6.3,2.36l-1.92-3.67,20.81-14Z"/><path class="cls-2" d="M602.11,476.86a19.34,19.34,0,0,1-1.4,7.16,17.53,17.53,0,0,1-4.28,6.28,21.6,21.6,0,0,1-7.37,4.45,30,30,0,0,1-10.65,1.7A39.92,39.92,0,0,1,566,494.64a44.14,44.14,0,0,1-8.95-3.86q-.18-4.19,0-8.53t.79-8.53h5.8l1.61,10.21a7.47,7.47,0,0,0,.46,1.48,5,5,0,0,0,1.11,1.57,15.78,15.78,0,0,0,5,3.19,18,18,0,0,0,7.33,1.44q6.37,0,9.71-3.16a11.19,11.19,0,0,0,3.34-8.53,12,12,0,0,0-1.13-5.41,13,13,0,0,0-3.14-4,24.85,24.85,0,0,0-4.87-3.23q-2.86-1.48-6.3-3.05-3.19-1.48-6.5-3.23a30.17,30.17,0,0,1-6-4.1,19.82,19.82,0,0,1-4.39-5.61,16.12,16.12,0,0,1-1.72-7.66,17.73,17.73,0,0,1,1.44-7.18,15.56,15.56,0,0,1,4.23-5.67,20.22,20.22,0,0,1,7-3.73,31.55,31.55,0,0,1,9.69-1.35,48.57,48.57,0,0,1,9.62,1,34.62,34.62,0,0,1,8.27,2.64,70.07,70.07,0,0,1,.11,8.36q-.2,4-.76,7.83h-5.58l-1.7-8.95a6.52,6.52,0,0,0-.59-1.64,4.73,4.73,0,0,0-1.29-1.5,12,12,0,0,0-4-2.07,17.46,17.46,0,0,0-5.67-.89q-5.67,0-8.64,2.68a9.63,9.63,0,0,0-3,7.53,11.15,11.15,0,0,0,1.07,5.08,12.2,12.2,0,0,0,3.12,3.84,28.22,28.22,0,0,0,5,3.29q3,1.57,6.83,3.4,3.53,1.66,6.92,3.56a31.41,31.41,0,0,1,6,4.3,20,20,0,0,1,4.21,5.52A15.52,15.52,0,0,1,602.11,476.86Z"/><path class="cls-2" d="M643.38,490.56V495H614.71v-4.45l6.89-1.31a3.28,3.28,0,0,0,1.72-.85,2.45,2.45,0,0,0,.63-1.81V435.45a2.6,2.6,0,0,0-.61-1.81,3,3,0,0,0-1.7-.89l-6.94-1.35v-4.54H642.9v4.54l-7,1.35a2.85,2.85,0,0,0-1.68.92,2.75,2.75,0,0,0-.59,1.83v28.67L660.88,433l-7.9-1.57,0-4.54h23.74v4.5l-6.2,1.4a7.55,7.55,0,0,0-1.61.57,4.88,4.88,0,0,0-1.35,1l-18.15,20a56.19,56.19,0,0,1,4.3,5.74q2.12,3.21,5,7.88l11,18a11.29,11.29,0,0,0,1.88,2.33,5.76,5.76,0,0,0,2.4,1.11l4.8,1.13V495H664.76q-1.48,0-3.43-2.6a65.17,65.17,0,0,1-4.43-7l-7.55-13.53q-1.79-3.27-3.32-5.83t-3-4.69l-9.38,10.39v14.92a2.5,2.5,0,0,0,.61,1.81,3,3,0,0,0,1.79.81Z"/><path class="cls-2" d="M713.37,496.14A30.18,30.18,0,0,1,701,493.77a23.37,23.37,0,0,1-8.88-6.79,30,30,0,0,1-5.32-10.76A52.36,52.36,0,0,1,685,462a50.17,50.17,0,0,1,2.2-15.51,32.19,32.19,0,0,1,6.2-11.37,26.17,26.17,0,0,1,9.67-7,32.07,32.07,0,0,1,12.61-2.4A30.19,30.19,0,0,1,728,428.14a23.29,23.29,0,0,1,8.86,6.76,30,30,0,0,1,5.3,10.71A52.12,52.12,0,0,1,744,459.79a50.81,50.81,0,0,1-2.16,15.43,32.13,32.13,0,0,1-6.15,11.41A26.37,26.37,0,0,1,726,493.7,31.67,31.67,0,0,1,713.37,496.14Zm1.22-65.24a15.79,15.79,0,0,0-13.88,7.44q-5,7.44-5,22.67,0,14.66,4.65,22.3T714.33,491a15.75,15.75,0,0,0,13.88-7.5q5-7.5,5-22.78,0-14.62-4.62-22.19T714.59,430.91Zm-5.15-16a5.7,5.7,0,0,1-1.57,4.15,5.94,5.94,0,0,1-8.14,0,6.32,6.32,0,0,1,0-8.29,5.94,5.94,0,0,1,8.14,0A5.7,5.7,0,0,1,709.44,414.89Zm21.34,0a5.7,5.7,0,0,1-1.57,4.15,5.91,5.91,0,0,1-8.12,0,6.25,6.25,0,0,1,0-8.29,5.91,5.91,0,0,1,8.12,0A5.7,5.7,0,0,1,730.78,414.89Z"/><path class="cls-2" d="M788.19,490.56V495H756.42v-4.45l7.07-1.27a2.52,2.52,0,0,0,1.62-.87,2.62,2.62,0,0,0,.57-1.7v-51.4a2.68,2.68,0,0,0-.52-1.57,2.18,2.18,0,0,0-1.4-.92l-7.33-1.44v-4.54h14.18q2,0,3.64-.09t3.32-.22q1.68-.13,3.71-.22t4.87-.09a41.73,41.73,0,0,1,11.3,1.31,18.34,18.34,0,0,1,7.31,3.75,13.5,13.5,0,0,1,3.88,6.07,26.79,26.79,0,0,1,1.16,8.16,24.42,24.42,0,0,1-1.92,9.88,20.62,20.62,0,0,1-5.35,7.37,23.45,23.45,0,0,1-8.2,4.56,33.16,33.16,0,0,1-10.41,1.57q-2.14,0-4.25-.11l-4.25-.2v18.11a2.41,2.41,0,0,0,.59,1.64,2.24,2.24,0,0,0,1.55.76ZM783.91,464a19.82,19.82,0,0,0,6-.89,12.45,12.45,0,0,0,5-3,14.68,14.68,0,0,0,3.45-5.65,26.21,26.21,0,0,0,1.29-8.84q0-7.9-3.88-11.24T784,431a42.84,42.84,0,0,0-5,.24q-2,.24-3.56.28v32.12q2.14.13,4,.22T783.91,464Z"/><path class="cls-2" d="M861.71,426.85h24v4.54l-5.28,1.27a2.78,2.78,0,0,0-1.64,1,3,3,0,0,0-.55,1.86v34.38q0,13.7-6.76,19.88t-18.72,6.17q-12.92,0-18.94-6.74t-6-20.31V435.45a2.82,2.82,0,0,0-.55-1.79,3,3,0,0,0-1.64-1l-5-1.27v-4.54h27.14v4.54l-7.68,1.4a2.57,2.57,0,0,0-1.68.92,2.92,2.92,0,0,0-.59,1.88v34.25q0,11.69,4.52,16.45T854.51,491q9,0,13-5.37t4-15.32V435.49a2.92,2.92,0,0,0-.57-1.86,2.53,2.53,0,0,0-1.66-.89l-7.55-1.35Z"/><path class="cls-2" d="M923.53,490.56V495H897.78v-4.45l7-1.27a2.77,2.77,0,0,0,1.7-.92,2.82,2.82,0,0,0,.57-1.83V435.49a2.77,2.77,0,0,0-.59-1.81,2.8,2.8,0,0,0-1.68-.94l-7-1.35v-4.54h19L951.63,480V435.49a2.77,2.77,0,0,0-.59-1.81,2.8,2.8,0,0,0-1.68-.94l-7.42-1.35v-4.54h24.48v4.54l-6.2,1.35a3.13,3.13,0,0,0-1.68.94,2.66,2.66,0,0,0-.59,1.81V495h-8.12l-36.48-55.68v47.21a2.89,2.89,0,0,0,.57,1.88,2.59,2.59,0,0,0,1.7.87Z"/><path class="cls-2" d="M995.47,490.56V495H972.78v-4.45l5.32-1.27a3.8,3.8,0,0,0,1.64-.79,3.2,3.2,0,0,0,1-1.53l20.81-60.35h9.34L1032.56,487a3.43,3.43,0,0,0,1,1.51,4.19,4.19,0,0,0,1.61.81l5,1.27V495h-25.83v-4.45L1023,489l-5.15-14.79H991.67L986.83,489ZM1016,468.87l-11.61-33.43-11,33.43Z"/><path class="cls-2" d="M1076.58,490.56V495h-28.67v-4.45l6.89-1.31a3.28,3.28,0,0,0,1.72-.85,2.45,2.45,0,0,0,.63-1.81V435.45a2.6,2.6,0,0,0-.61-1.81,3,3,0,0,0-1.7-.89l-6.94-1.35v-4.54H1062q3.8,0,7.16-.33t7.72-.33q13.09,0,18.68,4.47t5.59,13.59a22,22,0,0,1-1.46,8.53,17.75,17.75,0,0,1-3.64,5.67,16,16,0,0,1-4.78,3.38,28.7,28.7,0,0,1-4.87,1.75,17.82,17.82,0,0,1,4.32,4.06,41,41,0,0,1,3.75,6.07l6.54,12.61a6.74,6.74,0,0,0,1.62,2.23,5.49,5.49,0,0,0,2.27.92l4.84,1.09V495h-13.48q-2,0-3.73-2.88t-4-7.68l-4.36-9.29q-1.53-3.23-3.05-5.89a21.33,21.33,0,0,0-3.05-4.23l-6.22,0-5,0v21.64a2.5,2.5,0,0,0,.61,1.81,3,3,0,0,0,1.79.81Zm-9.73-59v28.45q1.44.09,3.14.13t3.27,0h4.93a12,12,0,0,0,9.05-3.75q3.51-3.71,3.51-11.61,0-6.59-3.29-10.21t-12.2-3.62q-2.58,0-4.91.22Z"/><path class="cls-2" d="M1162.4,486l3.75-11.87,5,.74q-.09,4.63-.5,10a84.11,84.11,0,0,1-1.37,10.12h-50.4v-4.45l7-1.22a2.56,2.56,0,0,0,1.7-.89,2.84,2.84,0,0,0,.57-1.81V435.45a2.82,2.82,0,0,0-.57-1.83,2.78,2.78,0,0,0-1.7-.92l-7-1.31v-4.54h30.33v4.54l-9.08,1.4a2.7,2.7,0,0,0-1.72.87,2.75,2.75,0,0,0-.59,1.83v54.2h12.44a53.84,53.84,0,0,0,5.56-.26,16.93,16.93,0,0,0,4-.83,4.19,4.19,0,0,0,1.62-1A3.79,3.79,0,0,0,1162.4,486Z"/><path class="cls-2" d="M1199.52,490.56V495h-22.69v-4.45l5.32-1.27a3.8,3.8,0,0,0,1.64-.79,3.2,3.2,0,0,0,1-1.53l20.81-60.35h9.34L1236.61,487a3.43,3.43,0,0,0,1,1.51,4.19,4.19,0,0,0,1.61.81l5,1.27V495h-25.83v-4.45l8.64-1.57-5.15-14.79h-26.18L1190.88,489Zm20.55-21.69-11.61-33.43-11,33.43Z"/><path class="cls-2" d="M1277.71,490.56V495H1252v-4.45l7-1.27a2.77,2.77,0,0,0,1.7-.92,2.82,2.82,0,0,0,.57-1.83V435.49a2.77,2.77,0,0,0-.59-1.81,2.8,2.8,0,0,0-1.68-.94l-7-1.35v-4.54h19L1305.81,480V435.49a2.77,2.77,0,0,0-.59-1.81,2.8,2.8,0,0,0-1.68-.94l-7.42-1.35v-4.54h24.48v4.54l-6.2,1.35a3.13,3.13,0,0,0-1.68.94,2.66,2.66,0,0,0-.59,1.81V495H1304l-36.48-55.68v47.21a2.89,2.89,0,0,0,.57,1.88,2.59,2.59,0,0,0,1.7.87Z"/><path class="cls-2" d="M1346.6,426.85q4.23,0,8-.33t7.85-.33q16.84,0,24.83,8.4t8,24.37a49.14,49.14,0,0,1-2.4,16,31.31,31.31,0,0,1-6.81,11.58,27.75,27.75,0,0,1-10.74,6.94,38.28,38.28,0,0,1-14.09,2.14q-2.88,0-6.94-.35t-7.59-.31h-14.14v-4.45l7-1.27a2.56,2.56,0,0,0,1.66-.87,2.62,2.62,0,0,0,.57-1.7V435.18a2.37,2.37,0,0,0-.52-1.53,2.3,2.3,0,0,0-1.4-.83l-7.33-1.44v-4.54Zm5,63.1a36.65,36.65,0,0,0,5,.59q3.12.2,5.56.15,10.82-.3,16.76-7.35t5.93-22.76q0-15.14-6-22.32t-18.39-7.18a45,45,0,0,0-5.08.26q-2.29.26-3.73.35Z"/><path class="cls-2" d="M1435.78,426.85v4.54l-6.94,1.35a2.85,2.85,0,0,0-1.68.92,2.75,2.75,0,0,0-.59,1.83v51.05a2.81,2.81,0,0,0,.57,1.83,2.76,2.76,0,0,0,1.7.92l6.94,1.27V495h-28.19v-4.45l7-1.27a2.77,2.77,0,0,0,1.7-.92,2.82,2.82,0,0,0,.57-1.83V435.49a2.77,2.77,0,0,0-.59-1.81,2.8,2.8,0,0,0-1.68-.94l-7-1.35v-4.54Z"/><path class="cls-2" d="M1511.09,459a49.14,49.14,0,0,1-2.4,16,31.49,31.49,0,0,1-6.79,11.58,27.55,27.55,0,0,1-10.71,6.94,38.29,38.29,0,0,1-14.09,2.14q-2.92,0-7-.35t-7.57-.31h-14.14v-4.45l7-1.27a2.56,2.56,0,0,0,1.66-.87,2.61,2.61,0,0,0,.57-1.7v-24h-8.81v-5.5h8.81v-22a2.32,2.32,0,0,0-.55-1.53,2.4,2.4,0,0,0-1.42-.83l-7.29-1.44v-4.54h14q4.23,0,8-.33t7.85-.33q16.84,0,24.81,8.4T1511.09,459Zm-43.72,31a36.73,36.73,0,0,0,5,.59q3.14.2,5.59.15,10.78-.3,16.73-7.35t6-22.76q0-15.14-6-22.32t-18.39-7.18a45,45,0,0,0-5.08.26q-2.29.26-3.77.35v25.53h15.36v5.5h-15.36Z"/></svg>