<svg viewBox="0 0 1920 1080" version="1.1" xmlns="http://www.w3.org/2000/svg" xmlns:xlink="http://www.w3.org/1999/xlink">
    <!-- Generator: Sketch 47.1 (45422) - http://www.bohemiancoding.com/sketch -->
    <title>FrontPageCover</title>
    <desc>Created with Sketch.</desc>
    <defs>
        <linearGradient x1="10.9375%" y1="119.444444%" x2="89.0625%" y2="-19.4444444%" id="linearGradient-1">
            <stop stop-color="#1C1C1C" offset="0%"></stop>
            <stop stop-color="#19292B" offset="100%"></stop>
        </linearGradient>
    </defs>
    <g id="Page-1" stroke="none" stroke-width="1" fill="none" fill-rule="evenodd">
        <g id="FrontPageCover" fill-rule="nonzero">
            <rect id="Rectangle-path" fill="url(#linearGradient-1)" x="0" y="0" width="1920" height="1080"></rect>
            <g id="Group" opacity="0.03" transform="translate(326.000000, 157.000000)" fill="#FFFFFF">
                <path d="M694.61,6.33 L692.66,7.79 L690.84,4.95 L690.52,0.65 L691.62,0 L694.21,3.46 L695.01,3.93 L694.61,6.33 Z M733.38,734 L732.73,736.88 L730.98,739.62 L730.31,739.79 L731.07,738.79 L731.64,737.34 L731.4,735.91 L730.47,735.13 L729.24,735.31 L724.29,737.16 L724.57,735.08 L727.96,731.51 L729.88,730.2 L730.72,730.02 L732.35,730.31 L733.26,731.89 L733.38,734 Z M657.55,150 L656.17,151 L654.93,150.53 L654.01,149.58 L653.35,147.99 L653.11,146.08 L652.46,142.9 L651.46,139.25 L652.07,138.25 L654.07,140.62 L655.07,142.2 L656.07,143.62 L657.63,146.95 L657.55,150 Z M895,0.64 L904,8.98 L909,10.65 L907.72,13.11 L904.92,15.96 L904.47,19.81 L903.95,23.35 L905.65,26.12 L905.12,29.18 L910.19,28.3 L914.35,29.05 L915.85,32.21 L925.57,32.99 L929.23,35.19 L930.31,37.53 L930.28,41.36 L932.7,48.41 L928.84,56.75 L926.57,60.06 L923.57,62.93 L925.17,66.52 L929.16,67.11 L932.64,68.52 L932.78,73.14 L932.13,76.68 L941.4,77.95 L945,76 L947.98,79.18 L951.08,82.38 L955.23,85.18 L958.51,88.51 L962,91 L964.26,94.38 L966.41,96.49 L968.73,94.12 L968.9,90.75 L970.09,87.97 L970.69,83.79 L970.69,78.84 L969.97,73.62 L969.31,69.99 L969.88,67.56 L972.79,65.64 L985.51,64.88 L992.58,61.74 L992.99,57.41 L1000.45,50.09 L1001.45,47 L1001.93,43 L1003.46,39.87 L1007.18,35.32 L1009.8,33.24 L1018.52,31.07 L1025.15,34.63 L1046.99,30.95 L1042.53,36.85 L1024.85,46.51 L1017.11,53.25 L1007.8,56.25 L1004.71,59.16 L1002.5,63.93 L1006.42,65.91 L1007.64,68.35 L1010.18,72.82 L1011.5,75.28 L1011.21,78.33 L1010.21,82.7 L1000.17,94.87 L992.1,96.64 L989.52,99.35 L987.96,105.19 L991.31,107.54 L999.12,108.18 L1001.45,114.9 L998.66,117.76 L999.72,120.22 L1011.51,119.96 L1018.51,122.7 L1023.2,121.92 L1031.2,113.57 L1036.48,112.57 L1041.12,115.92 L1042.83,119.63 L1043.83,125.47 L1044.71,128.47 L1048.45,130.44 L1048.92,133.44 L1050.35,139.09 L1050.67,141.78 L1049.19,144.28 L1049.13,149.39 L1047.13,157.03 L1045.74,159.99 L1039.52,168.87 L1032.17,175.27 L1030.03,178.44 L1030.52,182.88 L1028.68,186.88 L1023.77,192.95 L1029.55,190.18 L1034.01,183.34 L1032.73,188.69 L1030.1,194.61 L1029.16,199.3 L1033.01,200.96 L1036.74,199.75 L1044.68,194.27 L1066.84,186.5 L1074.64,181.5 L1078.86,180.07 L1082.49,183.48 L1078.75,194.61 L1076.33,197.5 L1077.65,201.67 L1081.23,204.76 L1088.23,208.87 L1090.38,211.26 L1084.78,213.43 L1081.88,216.04 L1079.78,222.9 L1074.78,229.81 L1073,235.37 L1065.63,245.63 L1064.25,249.08 L1063.25,252.98 L1062.96,257.31 L1066.05,249.43 L1068.28,247.36 L1071.57,243.45 L1074.21,237.51 L1085.86,216.7 L1090.94,215.36 L1099.81,221.08 L1097.95,218.67 L1094.68,215.56 L1093.33,212.95 L1117.62,225.14 L1131.99,221.43 L1135.34,222.76 L1136.34,225.76 L1136.68,228.29 L1134.9,230.88 L1138.33,232.04 L1140.96,233.9 L1141.13,238.04 L1140.88,241.1 L1142.76,244.29 L1149.13,238.01 L1151.7,235.88 L1155.6,237.48 L1155.97,240.64 L1163.09,244.99 L1164.53,251.74 L1163.33,255.52 L1161.55,258.07 L1160.63,260.55 L1162.66,266.77 L1162.27,269.99 L1158.83,272.99 L1160.18,276.39 L1160.29,281.65 L1156.91,284.65 L1147.08,283.87 L1143.08,286.6 L1145.88,288.6 L1154.45,290.93 L1155.14,295.19 L1152.96,298.25 L1149.66,299.96 L1144.36,300.55 L1137.87,304.59 L1129.04,307.05 L1126.42,309.05 L1128.3,311.3 L1144.76,303.58 L1149.98,303.63 L1160.11,300.07 L1169.03,303.95 L1172.03,306.57 L1173.26,309.18 L1171.57,312.84 L1167.81,320.19 L1152.27,326.45 L1137.91,327.62 L1131.77,329.71 L1125.17,330.23 L1128.68,332.67 L1141,328.97 L1157.69,329.52 L1164.93,327 L1168.93,326.66 L1169.72,329.31 L1168.29,332.31 L1168.37,335.18 L1164.07,339.59 L1160.51,340.37 L1157.21,341.92 L1165.57,341.37 L1167.78,344.54 L1165.14,347 L1168.88,348.76 L1171.01,351.26 L1173.42,346.74 L1177.01,338.41 L1181.01,332.79 L1181.64,336.57 L1182.04,341.97 L1182.16,347.23 L1181.79,350.3 L1184.1,353.61 L1184.44,359.02 L1182.88,362.83 L1180.88,364.93 L1176.45,366.75 L1176.69,372.01 L1177.88,374.47 L1173.07,380.47 L1163.47,380.31 L1156.85,381.98 L1153.29,378.6 L1152,375 L1150.6,371.92 L1146.99,370.3 L1143.2,368.05 L1137.38,366.6 L1130.92,361.2 L1127.5,360 L1128.43,362.8 L1131.15,366.12 L1128.87,371.41 L1106.87,373.9 L1141.41,376.51 L1144.23,379.29 L1145.78,381.72 L1146.56,384.21 L1153.02,389.76 L1164.61,393.91 L1167.08,397.54 L1162.86,401.41 L1157.47,401.06 L1147.6,397.23 L1137,400 L1130.09,397.51 L1135.12,402.87 L1150.98,405.27 L1158.47,410.57 L1160.68,414.23 L1160.14,417.47 L1156.01,422.28 L1142.92,419.67 L1139.92,422.79 L1152.1,426.6 L1154.55,431.19 L1139.06,432.92 L1135.46,431.77 L1131.94,435.54 L1135.77,441.3 L1137.77,444.02 L1139.71,447.38 L1133.34,453.16 L1109.4,460.26 L1105.4,459.26 L1101.42,456.52 L1097.56,446.75 L1094.56,443.93 L1091.19,438.27 L1080.77,435.83 L1085.75,437.38 L1087.38,441.09 L1086.84,444 L1088.59,448.02 L1094.34,450.64 L1096.34,455.58 L1098.14,459.58 L1100.47,462.92 L1107.71,465.74 L1109.92,467.81 L1108.92,470.76 L1091,467.7 L1085.67,472.55 L1087.6,474.65 L1092.18,476.56 L1094.48,478.95 L1095.74,481.73 L1094.74,486.27 L1078.07,488.85 L1078.43,493.93 L1080.81,496.64 L1083.29,499.18 L1088,500.6 L1092.76,497.06 L1098.81,486.4 L1102.03,483.61 L1101.35,487.83 L1092.15,500.95 L1090.95,503.95 L1090.74,511.78 L1087.26,520.49 L1087.16,524.33 L1087.72,527 L1086.65,529.35 L1086.1,531.78 L1084.98,536.96 L1073.17,539.86 L1065.39,543.26 L1067.14,540.59 L1076.84,537.05 L1081.74,534.63 L1078.74,532.92 L1066.32,531.86 L1065.83,536.84 L1062.47,540.73 L1058.75,546.57 L1051.67,552.46 L1049.32,555.17 L1047.25,558.5 L1046.04,561.77 L1046.43,558.71 L1047.11,554.66 L1045.76,557.25 L1044.18,559.58 L1041.12,562.01 L1041.23,564.71 L1043.37,567.29 L1046.76,566.12 L1048.5,568.58 L1049.73,572.01 L1044.23,576.67 L1036.9,577.61 L1032.27,575 L1028.48,570.93 L1023.89,568.51 L1021.03,572.67 L1017.33,572.74 L1016.21,576 L1011.06,577.91 L1012.84,570.62 L1009.22,570.36 L1006.62,568.6 L1005.87,564.66 L1004.47,562.03 L1001.8,564.42 L1003.5,566.87 L1004.55,571.11 L999.77,569.31 L998.12,566.54 L999.01,562.82 L997.01,557.51 L993.94,552.74 L991.44,550.65 L989.04,548.39 L984.53,546.73 L987.58,548.94 L991.28,552.71 L993.67,558.95 L993.9,562.43 L993.43,565.01 L994.07,569.01 L993.4,573.67 L991.88,577.42 L982.92,577.61 L980.5,579.61 L983.86,581.34 L987.52,581.14 L984.81,583.52 L977.81,586.62 L971.44,587.62 L964.83,590.52 L962.01,593.06 L960.63,590.59 L957.41,593.95 L947.92,602.57 L957.08,598.91 L955.76,603.76 L927.19,614.1 L923.33,617.95 L928.58,617.7 L921.83,625.83 L918.42,627.43 L914.77,632.22 L912.21,634.22 L910.44,637.8 L909.14,635.31 L905.77,638.04 L907.45,641.31 L900.9,646.38 L899.03,643.43 L893.12,648.31 L890.37,651.93 L888.77,656.3 L892.04,654.89 L890.44,659.41 L888.99,661.7 L881.2,669.03 L876.12,677.84 L872.69,679.84 L875.44,677.66 L877.03,672.66 L860.55,687.48 L845.55,692.48 L841.24,689.76 L843.17,692.4 L841.43,695.01 L841.91,697.7 L841.97,701.36 L841.48,704.36 L839.27,699.5 L836.86,696.87 L832.41,691.13 L829.37,689.48 L828.24,692.55 L828.33,696.37 L828.84,701.13 L828.92,704.47 L826.79,696.41 L825.42,691.04 L824.49,698.08 L824.38,701.27 L823.91,704.15 L825.53,706.49 L823.26,709.43 L822.12,704.23 L822.12,701.7 L821.8,697.25 L823.46,695.09 L823.04,692.4 L823.12,685.39 L823.12,681.57 L822.33,679.05 L819.7,675.98 L819.05,684.12 L819.31,686.82 L818.54,690.83 L814.55,691.11 L813.46,694.33 L815,697 L815.69,699.85 L816.52,702.69 L816.57,707.63 L812.38,708.72 L804.24,708.65 L798.33,705.16 L795.32,708.12 L793.65,703.68 L779.89,712.82 L764.42,718.47 L753.87,721.26 L755.75,717.24 L755.65,714.38 L754.96,711.85 L754.2,715.53 L752.88,718.11 L749.58,717.07 L749.94,719.77 L750.45,722.47 L735.82,733.47 L736.82,727.71 L739.68,724.47 L743.32,722.96 L746.52,720.66 L739,717 L736.22,713.87 L735.73,717.38 L736.37,720.87 L733.49,723 L727.84,721.2 L727.1,724.56 L722.94,725.11 L717.88,727.12 L716.24,730.01 L715.62,732.89 L715.07,737.52 L713.6,740.57 L709.44,739.05 L708.03,741.3 L708.13,745.44 L713.68,743.12 L724.4,743.41 L722.75,752.05 L719.82,754.65 L716.82,753.11 L712.9,751.55 L709.89,753.67 L710.97,757.31 L710.67,760.31 L719.17,759.69 L718.09,766.88 L714.09,774.88 L708.93,780.88 L697.28,786.32 L689.85,792.16 L682.68,794.01 L678.88,788.8 L683.5,785.71 L686.22,781.38 L691.28,779.88 L688.01,778.02 L681.89,780.02 L670.89,775.17 L668.42,776.95 L668.85,780.01 L671.35,784.28 L673.3,786.81 L673.88,790.46 L674.24,793.96 L679.46,795.96 L684.1,796.25 L659.56,800.35 L645.36,807.35 L621.06,814 L615.2,813.86 L593.14,807 L583.83,809.54 L580.48,808.54 L578.74,805.9 L575.03,803.18 L572.71,806.52 L557.25,803.12 L549.79,797.83 L540.4,795.83 L527,786.85 L508.63,781.57 L505.04,778.34 L507.38,775.81 L502.68,776.08 L490.3,774.49 L502,778.31 L471.8,775.81 L469.86,772.59 L467.47,776.05 L458.69,776.05 L454.41,774.86 L437.32,759.86 L440.95,759.46 L438.71,756.22 L437.88,752.03 L434.1,755.23 L429.6,752.42 L433.46,752.51 L432.02,748.51 L430.02,746.24 L427.83,744.24 L425.83,741.81 L424.09,737.31 L423.17,734.31 L419.04,732.94 L422.87,740.2 L425.1,744.55 L426.56,748.72 L419.15,741.72 L415.76,737.02 L413.76,730.92 L414.54,727.91 L413,723.64 L416.26,720.05 L419.9,718.05 L427.57,716.95 L431.12,718.78 L437.28,725.6 L441.01,726.16 L439.19,723.73 L436.51,718.9 L426.45,711.85 L430.01,705.56 L430.59,703.02 L430.25,699.51 L428.31,702.95 L426.92,705.47 L421.85,711.72 L418.6,715.31 L416.36,717.65 L412.65,719.47 L412.49,724.72 L412.18,727.26 L411.24,729.78 L405.66,727.25 L400.77,722.66 L396.98,720.81 L389.19,714.23 L396.62,714.43 L400.58,717.88 L404.08,716.21 L407.84,716.47 L404.67,714.64 L406.29,711.33 L398.14,713.19 L395.3,711.04 L399.3,706.04 L400.63,698.27 L399.26,691.7 L395.02,689.99 L398.18,693.1 L397.74,696.59 L395.49,700.67 L391.11,706.28 L388.34,708.28 L382.26,706.99 L383.37,711.32 L379.3,707.25 L369.3,700.1 L354.96,694.23 L350.17,690.4 L344.84,686.88 L342.66,682.82 L343.3,678.38 L342.3,672.29 L351.07,673.23 L355.97,672.23 L359.36,669.32 L350.89,669.04 L345.6,665.83 L337.8,666.68 L335.5,669.15 L331.83,672.84 L330.44,675.34 L336.13,678.09 L338.95,680.74 L340.25,684.61 L332.86,682.25 L327.58,682.7 L324.38,683.86 L322.45,686.5 L323.76,691.01 L288.72,696 L284.84,693 L281.22,688.86 L277.82,686.16 L274.09,685.36 L254.93,691.5 L250.32,691.44 L242.79,692.83 L212.55,684.28 L207.81,689 L205.63,691 L203.27,689.12 L197.91,689.95 L194.23,690.87 L191.93,692.97 L178.5,692 L175.34,693.57 L173,696 L170.15,691.69 L169.82,688.32 L171.59,684.91 L171.93,682.06 L171.6,679.33 L169.6,676.82 L170.33,672.24 L173.15,662.99 L179.28,661.28 L179.76,657.8 L175.92,659.33 L171.48,656.73 L169.75,653.28 L169.26,648.47 L171.26,643.65 L172.11,638.8 L172.25,633.39 L172.42,628.94 L174.5,625.07 L180.73,628.93 L184.47,631.86 L187.27,636.64 L189.64,642.99 L190.8,649.75 L190.89,652.47 L204.56,654.66 L209.16,652.51 L208.78,648.51 L211.84,645.64 L218.94,644.26 L223.18,641.26 L228.63,644.09 L233.1,643.8 L238.81,639.3 L248.28,637.85 L251.44,635.93 L254.29,631.76 L257.37,630.31 L255.52,628.15 L252.9,626.15 L248.33,626.23 L249.71,622.15 L252.59,620.22 L257.8,621.42 L254.72,623.19 L258.97,624.82 L263.22,623.58 L261.02,621.56 L256.72,613.06 L253,610.81 L249.12,610.47 L252.65,607.93 L269.3,611.93 L271.21,615.07 L274.6,617.13 L278.15,615.37 L274.57,614.57 L274.98,611.41 L274.64,608.21 L281.54,608.66 L285.3,608.67 L287.88,603.67 L283.88,605.73 L280.96,604.17 L281.89,601.17 L287.34,598.06 L281.81,595.91 L275.84,597.56 L276.73,593.14 L273.35,590.56 L269.14,590.85 L263.14,591.68 L266.53,588.97 L267.35,583.11 L274.35,578.49 L277.87,574.82 L280.51,570.63 L282.68,565.31 L285.72,562.92 L293.09,563.39 L295.84,557.78 L300.97,556.24 L316.08,561 L320.68,557.51 L316.86,558.18 L314.32,555.22 L318.1,553.62 L298.05,549.77 L288.49,551.6 L279.78,559 L278.29,562.93 L274.12,565.61 L266.05,569.76 L260,575.12 L254.75,574.24 L244.92,569.94 L249.84,565.4 L254.45,561.48 L258.45,556.41 L263.24,556.47 L265.37,554.47 L270.37,553.11 L262.71,550.21 L257.4,552.51 L254,551.57 L252.15,547 L253.78,544.69 L254.17,541.69 L254.38,538.04 L255.38,534.11 L258.55,530.44 L260.84,524.85 L261.1,522.15 L264,519.74 L276.73,513.74 L283.33,513.4 L281.91,509.83 L279.04,507.95 L285.6,500.59 L289.37,499 L292.37,496.09 L298.48,496.34 L297.84,500.94 L302.87,501.95 L304.16,504.71 L314.66,507.52 L309.02,506.34 L305.59,503.82 L303.33,499.74 L305.99,496.67 L294.69,494.61 L301.24,489.15 L303.38,487.01 L313.85,488.39 L305.45,484.23 L295.41,490.62 L295.68,486.49 L297.57,482.11 L292.97,486.69 L290.64,488.66 L289.64,494.66 L287.09,496.62 L282.32,500.87 L276.48,502.87 L275.24,507.75 L272,506.5 L262.19,512.43 L259.41,515.48 L254.85,513.16 L255.11,510.62 L257.16,504.98 L253.63,508.47 L253.13,512.47 L252.9,516.47 L249.53,522.36 L248.91,526.45 L247.66,529.42 L243.66,529.22 L241.54,531.82 L237.78,531.47 L236,529.16 L234.45,525.73 L233.67,521.55 L231.76,524 L233.04,517.84 L233.69,513.84 L232.74,510.92 L233.52,508.24 L231.15,506.37 L232.42,503.73 L227.21,505.69 L224.01,507.12 L219.77,503.55 L219.21,499.21 L219.83,495.21 L221.51,492.59 L218.43,488.58 L217.03,485.3 L214.16,482.59 L212.79,480.12 L217.19,482.25 L219.99,484.15 L222.94,482.07 L221.42,479.11 L223.94,476.06 L224.03,473.36 L237.12,465.91 L240.49,461.91 L233.48,465.7 L229.74,467.42 L226.2,468.03 L223.12,470 L219.56,473.48 L216.34,475.54 L214.26,473.04 L219.04,467.91 L221.41,465.64 L223.99,461.31 L224.88,458.33 L224.09,453.18 L220.87,452 L213.87,451.94 L215.62,448.53 L214.31,445.75 L216.58,440.93 L217.69,437.93 L214.56,440.79 L211.24,439.81 L209.9,442.81 L204,440.72 L198.84,444.9 L196.89,447.5 L199.73,449.42 L189.55,450.75 L187.05,448.69 L190.91,449.08 L191.65,446.57 L189.41,442.44 L176.92,440.91 L184.05,446.75 L181.04,448.17 L176.16,443.26 L160.18,440.48 L147.18,439.66 L132.18,437.57 L126.27,430.32 L120.27,429.59 L109.55,431.25 L107.3,435.24 L105.25,437.3 L90.23,433.35 L94.21,431.59 L88.07,432.74 L84.47,436.74 L83.62,441.74 L81.14,447.62 L78,449.94 L69.87,449.65 L62.48,452.44 L52.7,447.38 L51.2,444.71 L48.62,442.75 L48.53,438.27 L44,428.18 L42.3,423.89 L41,419.47 L38.89,408.47 L43.88,408.23 L48.27,403.79 L62.52,400.11 L73.12,406.98 L84.92,410.09 L88.21,406.37 L93.81,405.85 L99.4,398.78 L103.98,397.67 L113.69,400.11 L113.27,397.36 L112.51,394.59 L117,394.59 L117.35,400.36 L120.7,398.51 L122.14,401.16 L122,404.7 L126.19,405.79 L129.97,402.7 L130.81,400.2 L130.59,397.47 L129.97,394.08 L129.64,390.39 L130.21,386.92 L133.44,382.99 L138.03,382.5 L146.78,384.35 L145.78,387.35 L141,391.29 L141.58,394.87 L138.43,397.54 L142.85,409 L142.47,405 L142.61,401.82 L143.26,399.15 L144.47,396.68 L148.21,395.33 L149.93,390.66 L153.75,385.32 L159.65,387.93 L161.85,392.69 L163.73,390.09 L172.84,387.3 L179.56,383.24 L170,382.64 L174.75,379.89 L183.34,371.95 L187.66,371.09 L189.8,374.89 L189.61,378.1 L187.96,380.4 L184.6,381.96 L188.44,383.14 L190.51,386.93 L194.83,391.05 L199.42,395.78 L198.84,392.43 L196.46,387.51 L199.6,383.86 L203.47,382.68 L203.86,379.35 L214.96,379.51 L223.96,377.76 L238.44,381.55 L247.89,387.13 L250.8,384.25 L259.93,383.9 L264.33,386.98 L268.79,386.07 L271.52,388.27 L283.65,386.75 L286.65,384.49 L286.89,381.31 L285.09,378.68 L283.09,374.61 L286.01,372.98 L289.51,368.36 L294.61,355.36 L295.36,346.63 L292.08,342.82 L287.38,343.09 L284,346.07 L284.63,349.73 L267.69,363 L262.15,365.13 L231.68,357.54 L224.26,350.77 L211.09,352.29 L206.35,348.36 L211.29,346.42 L213.85,344.33 L217.39,346.44 L215.21,342.65 L207.2,343.96 L208.52,340.21 L210.66,336.66 L214.56,332.09 L219.69,329.98 L221.69,327.86 L221.61,323.71 L227.07,324 L231.59,317.1 L234.59,315.02 L246.7,312.3 L257.2,304.85 L261.32,300.27 L268.32,296.94 L270.9,294.35 L274.38,296.1 L275.22,292.33 L281.58,287.52 L295.65,283.68 L299.79,281.47 L292.04,282.89 L288.29,282.89 L280.76,280.8 L274.35,282.42 L274.54,278.28 L277,275.3 L273.31,271.3 L272,268.37 L271.65,264.53 L268.71,265.99 L266.13,269.54 L262.55,269.37 L261.71,266.94 L260,260.78 L258.56,266.65 L257.48,269.78 L255.79,272.57 L253.79,274.86 L251.2,277.12 L249.42,281.81 L244.29,282.98 L240,277.46 L234,271.41 L229.63,268.79 L231.45,262.53 L245.78,259 L250.9,255.75 L254.72,254.03 L255.15,251.34 L255.33,248.34 L256.67,244.26 L260.32,241.25 L248.78,252.95 L245,255.72 L241.46,257.13 L233.91,257.37 L238.69,252.52 L240.26,248.93 L236.39,250.28 L233.39,253.95 L228.69,252.13 L227.95,255.62 L225.61,259.8 L219.61,261.86 L217.2,256.47 L217.34,252.17 L218,249 L218.14,245.82 L217,241.45 L215.47,232.27 L214.36,229.18 L212.91,231.49 L212.68,235.63 L212.68,238.34 L214.09,243.84 L213.27,247.91 L210.98,252.25 L208.28,254.08 L206.87,251.61 L205.11,246.61 L203.24,252.88 L201.1,255.63 L198.25,252.27 L196.25,244.02 L196.03,239.86 L197.03,235.61 L199.71,230.98 L194,228.67 L191,230.4 L191.62,237.46 L192.45,240.7 L194.2,260.43 L190.83,261.35 L187,260 L187.83,256.22 L186.29,253.25 L181.3,253.75 L180.17,250.97 L176.61,250.75 L179.46,246.3 L184.59,240.07 L186.61,236.05 L181.4,231.39 L180.46,237.07 L178,241.74 L175.15,244.12 L172.57,239.5 L172.28,236.29 L171.81,233.71 L169.34,242.36 L168.88,244.88 L166.43,247.6 L160,248.75 L156.89,250.31 L151.22,246.91 L148.3,243.53 L148.87,239.9 L143.75,244.67 L143.24,250.38 L145.03,253.85 L143.42,257.1 L140.75,260.91 L137.49,262.61 L130.49,261.34 L127.64,259.87 L124.35,258.52 L122.23,254.06 L119.17,255.56 L117.44,258.47 L111.51,262.68 L96.9,264.68 L93.77,262.53 L93.48,265.53 L91.2,267.6 L86.65,274.29 L66.65,278.36 L61.74,277.36 L57.74,274 L58.65,270.09 L57.41,266.48 L60.42,262.29 L58.66,259.76 L54.83,263.29 L52.59,259.29 L36.83,251.14 L6.25,251.75 L2.45,250.75 L0.52,246.27 L5.44,243.82 L7.98,241.64 L9.22,239.19 L17.24,234.13 L19.3,232.07 L20.1,228.14 L20.46,223.54 L21.37,219.78 L24.84,217.84 L26.84,215.46 L31.04,215.81 L40.84,222.69 L45.45,224.83 L50.66,232.76 L54.66,235.63 L61.93,238.28 L63.49,240.8 L64.8,243.94 L66.46,246.46 L69.53,248.3 L78.91,245.66 L74.06,245.45 L69.69,243.35 L68.13,240.83 L66.89,237.7 L65.45,235 L58.69,227.43 L56.21,222.12 L53.21,217.41 L51.64,213.61 L67.34,218.21 L77.24,225.05 L80.44,226.41 L78.74,222.29 L76.14,218.74 L73.31,216.13 L68.8,214 L63.62,209.92 L58.88,207.79 L56.71,205.22 L53.37,199.68 L49.79,190.28 L49.69,187.08 L50.08,183.92 L50.23,180.92 L49.37,177.81 L54.15,174.2 L58.62,174.88 L101.12,203.37 L103.64,208.55 L106.32,211.14 L107.74,216.99 L107.07,219.82 L105.73,222.44 L104.59,226.35 L108.99,225.71 L113.75,219.98 L115.6,223.62 L116.93,221.16 L122.56,223.16 L125.3,220.79 L123.39,217.14 L130.24,214.14 L135.28,214.16 L124.24,212.92 L118.63,210.77 L114.63,207.62 L111.62,202.78 L110.78,199.85 L118.75,195.85 L121.67,198.13 L130.38,197.62 L133.27,195.26 L139.98,196.99 L144.52,195.38 L141.72,193.42 L147.03,188.67 L142.82,187.43 L139.4,188.63 L134.61,192.46 L106.28,189.83 L100.87,187.04 L97.47,183.28 L91.77,184.93 L89.34,181.07 L83.74,173.62 L80.88,166.53 L79.28,157.94 L80.28,150.19 L85.11,145.45 L92.83,149.55 L100.52,151.88 L105.38,157.66 L109.21,159.85 L115.95,158.26 L128.52,164.41 L132.84,164.71 L139.91,170.78 L143.91,172.78 L147.68,171.12 L139.18,167.67 L136.58,164 L127.95,162.61 L125.36,160.83 L120.77,156.04 L110.11,152.72 L107.85,150.64 L102.74,142.44 L99.97,140.64 L98.75,138.16 L92.14,132.04 L88.33,125.68 L88.15,115.6 L89.04,111.51 L90.82,108.61 L95.23,107.35 L100.52,109.02 L118.52,121.83 L123.93,123.83 L127.8,121.83 L128.01,125.83 L129.01,129.42 L130.66,131.93 L131.21,128.46 L128.56,120.29 L124.24,117.75 L119.72,115 L116.18,113.34 L113.33,108.82 L107.64,102.82 L104.52,97.64 L108.08,95.03 L117.18,94.89 L123.96,96.49 L132.64,104.76 L130.36,102.21 L126.74,95.21 L114.49,93.05 L112.17,91.12 L113.44,87.38 L115.12,85.11 L118.02,82.93 L123.11,82.66 L125.22,78.01 L143.6,82.8 L153.6,91.3 L158.67,94.03 L161.02,98.17 L162.52,102.9 L161.85,106.69 L162.2,112.3 L167.85,104.52 L171.93,106.06 L173.15,109.33 L174.88,112.15 L174.82,117.26 L175.11,121.43 L175.11,124 L172.31,129.1 L166.63,138.15 L165.43,140.63 L168.58,137.12 L174.72,130.49 L177.04,127.13 L178.35,122.77 L180.32,120.33 L182.19,123.2 L183.34,129.33 L185.93,127.41 L187,133.79 L184.18,139.52 L180.86,144.26 L177.27,146.43 L181.47,146.37 L185.36,143.41 L187.77,137.01 L189.5,133.13 L191.71,139.49 L190.61,146.49 L189.3,152.49 L189.63,156.18 L194,143.94 L194.15,138.2 L194.96,131.71 L196.2,125.56 L197.56,121.33 L199.17,119.03 L206.17,120.08 L206.83,124.43 L208.21,128.02 L211.94,132.54 L215.32,139.91 L215.11,147.54 L214.49,150.38 L212.83,153.96 L207.2,170.42 L205.82,175.13 L210.84,167.28 L218.84,148.91 L219.84,143.86 L222.21,141.6 L223.5,144.22 L224.5,147.94 L225.95,151.21 L228.71,153.08 L227.86,157.14 L229.04,160.07 L229.92,156.29 L230.17,165.4 L229.17,168.22 L226.46,173.02 L225.29,175.83 L229.36,175.42 L234.2,161.33 L237.69,158.81 L235.79,154.4 L234.85,149.4 L234.4,143.79 L233.74,139.13 L232.42,135.39 L230.64,131.78 L228.58,129.12 L227.68,124.77 L228.31,121.61 L229.08,118.78 L230.7,116.32 L234.82,115.47 L238.09,111.18 L230.68,113.5 L226.61,115.99 L218.14,111.05 L212.68,104.68 L188.66,92.4 L181.88,84.16 L178.28,72.6 L183.28,69.72 L198.88,66.52 L212.91,71 L216.83,71.54 L217.59,73.98 L220.62,77.98 L222.92,76.03 L221.76,71.5 L226.86,71.79 L234.28,67.73 L239.46,67.53 L241.93,65.75 L227.78,67.22 L223.61,64.75 L221.72,62.41 L225.58,60.39 L228.4,57.04 L231.94,54.52 L228.36,53.4 L224,57.61 L218.59,60.18 L212.47,60.47 L207.7,59.08 L206.83,55.68 L210.12,51.56 L211.45,44.61 L213.5,41.49 L218.5,39.55 L213.98,40.25 L210.45,42.6 L201.79,50.87 L195.46,52.41 L195.19,47.44 L197,44.04 L198.63,40.31 L195.03,41.53 L191.29,45.13 L186.72,52.19 L183.21,55.49 L167.14,50.16 L163.04,47.5 L160.48,43.5 L158.33,40 L163.85,37.81 L168.7,40.04 L173.14,39.69 L175.88,31.88 L170,28.5 L167.24,24.65 L165.3,20.53 L168.62,18.19 L171.73,19.99 L174.73,23.06 L177.73,24.85 L177.15,21.94 L176,19.3 L187.37,18.3 L189.29,22.88 L192.03,24.65 L192.83,20.23 L189.58,17.95 L184.84,13 L195.07,13.63 L200.23,18.42 L204.76,20.61 L208.19,25.28 L212.85,26.67 L217.15,21.97 L219.49,19.55 L219.23,16.82 L223.35,15.62 L226.5,18.51 L229.5,22.51 L236.41,26.4 L238.61,23.01 L238.01,20.58 L235.41,18.52 L234.79,15.93 L241.03,20.09 L243.18,25.31 L243.78,31.4 L245.4,35.31 L253.52,40.36 L255.88,45.43 L254.28,47.9 L259.84,50.74 L257.04,52.83 L256.66,57.75 L257.92,60.85 L256.32,64.6 L257.48,68.33 L260.67,65.62 L264.91,66.16 L266.66,68.79 L269.25,63.81 L270.99,69 L278.4,68.56 L282.15,67.73 L284.27,70.57 L287.71,76.79 L280.32,83.49 L284.45,82.55 L292.22,86.58 L294.22,89.41 L297.37,88.23 L304.85,91.75 L303.93,95.06 L306.58,99.32 L306.41,102.5 L305.28,105.48 L306.04,108.06 L306.15,113.48 L306.49,118.48 L308.46,121.59 L311.85,120.34 L314.89,121.94 L314.89,125.45 L313.89,128.59 L312.5,131.59 L311.5,134.26 L314.57,132.8 L316.69,130.02 L316.89,125.88 L315,118.51 L320.11,115.37 L324.77,115.24 L326,118 L326.76,120.93 L327.32,123.79 L324,125.9 L323.6,130.19 L325.47,133.77 L328,136.1 L339.42,133.36 L344.83,135.79 L346.6,138.88 L347.7,144.34 L332.89,145.22 L330,147.5 L318.84,150.24 L319.05,153.92 L327.99,150.61 L337.86,149.24 L340.86,151.11 L334.88,156.29 L346.23,155.28 L348.9,157.77 L350.24,162.92 L350.4,167.39 L349.01,170.69 L345.81,172.49 L350.7,176.17 L345,190.15 L343,193.42 L339.76,196.17 L328.91,199.9 L331.11,202.22 L335.11,201.58 L342.35,205.99 L334.89,217.82 L331.68,220.09 L317.38,218.89 L314.75,214.32 L312.32,211.98 L310.56,208.56 L309.44,204.85 L306.88,198.85 L303.72,196.96 L297.2,198.58 L304.03,202.55 L305.83,205.02 L307.88,209.25 L308.45,212.78 L307.11,216.55 L307.32,220.22 L308.49,222.98 L308.91,226.34 L311.22,229.46 L313.55,231.95 L331.24,232.18 L334.24,234.05 L335.49,237.44 L334.33,240.27 L328.5,248.81 L326.27,251.11 L331.45,250.19 L338.2,244.39 L343.81,243.32 L345.74,254.55 L343.16,263.86 L337.51,272.57 L331,279 L325.79,280.87 L336.63,278.89 L340.91,275.23 L345.65,275.08 L349.98,281.77 L353.92,285.77 L354.92,288.35 L353.98,292.62 L355.61,295.54 L355.25,298.24 L355.25,301.43 L355.68,307.18 L355.58,311.18 L354.91,316.25 L354.91,318.8 L358.61,332.47 L359.99,335.07 L361.22,339.1 L363.29,343.31 L364.29,348.44 L363,352.82 L364.67,356.06 L367.49,351.06 L366.12,344.8 L365.96,340.65 L364.84,336.15 L363.07,332.15 L363.97,327.09 L364.34,324.07 L366.21,321.11 L367.79,315.54 L367.79,312.04 L366.2,292.55 L366.04,284.42 L367.52,280.8 L370.77,282.8 L372.91,287.33 L375.81,298.42 L378.81,304.73 L379.86,308.42 L383.48,309.81 L383.19,303.24 L380.91,295.24 L379.25,286.74 L378.62,279.23 L378.41,273.17 L378.51,269.03 L379.06,265.22 L380.93,261.45 L382.78,252.74 L386.61,244.89 L398.86,235.89 L405.61,227.32 L409.66,225.68 L411.6,222.07 L415.91,225.69 L418.36,227.99 L416.23,239.73 L416,244.98 L416.76,248.82 L415.36,253.08 L415.18,257.54 L416.26,260.28 L417.66,254.59 L417.93,250.46 L421.81,250.71 L422.76,253.44 L423.01,257.87 L422.25,261.52 L424.57,264.12 L425.86,266.86 L426.7,270.23 L429.02,272.85 L432.97,273.58 L436.39,269.19 L437.01,265.19 L438.39,259.81 L435.65,255.13 L430.78,254.69 L427.6,252.38 L431.16,251.03 L435.95,250.35 L438.95,248.03 L441.78,250.01 L441,261.48 L442.47,265.18 L442.16,261.03 L443.22,257.87 L444,255 L442.8,251.15 L444.09,247.67 L447.62,242.81 L449.3,239.81 L449.95,233.77 L451.52,230.78 L455.66,230.39 L451.93,226.64 L451.81,222.97 L454.69,220.32 L455.76,217.79 L456.49,214.14 L456.8,209.84 L456.08,203.3 L454.14,197.21 L451.66,192.38 L449.2,189.62 L452.06,185.22 L451.17,177.72 L448.61,169.38 L444.84,160.22 L444.14,157.82 L443.66,148.89 L443.11,144.58 L442.05,141.37 L440.59,138.63 L438.83,136.36 L440.51,133.85 L442.05,130.06 L442.63,125.93 L441.35,122.55 L445.99,120.27 L450.31,121 L453.31,118.35 L459.38,117.67 L465.22,111.88 L471.95,112.8 L476.53,110.98 L476.99,116.41 L478.29,119.62 L480.29,121.73 L481.98,125.26 L483.8,128.34 L484.71,132.18 L486.04,136.02 L490.32,144.53 L491.23,148.85 L493.01,151.58 L491.96,154.27 L493.59,158.59 L496.25,161.34 L498.15,164.71 L497.86,169.32 L505.37,172.26 L509.54,175.02 L513.23,177.44 L516.39,180.19 L516.77,183.86 L519.34,190.58 L520.36,195.69 L520.88,202.69 L521.57,205.56 L523.8,208.77 L529.19,210.41 L531.29,213.61 L531.99,208.2 L536,206.65 L537.85,209.37 L542.77,210.36 L540.67,212.89 L545.06,212.27 L546.06,208.61 L547.29,201.29 L548.09,193.81 L548.2,187.44 L547.52,181.38 L546.03,175 L543.13,166.06 L536.73,157.42 L537.2,153.13 L539.4,150.28 L543.41,148.56 L545.41,146.5 L546.99,143.5 L544.87,139.98 L544.08,137.43 L543.08,132.01 L544.54,128.32 L546.43,125.94 L552.43,122.79 L566.37,120.47 L571.24,124.31 L573.6,120.49 L576.16,118.53 L576.44,122.4 L582,127 L581.16,123.02 L581.32,119 L579.16,117.04 L580.16,113.7 L581.3,107.65 L581.98,104.94 L586.56,100.17 L595.86,96.66 L599.14,98.25 L598.41,106.53 L601.79,103.5 L604.16,97.92 L603.67,95.37 L605.27,92.77 L613.29,95.93 L612.5,99.76 L610.75,105.34 L610.44,109.16 L619.05,101.17 L624.64,104.96 L626.79,108.29 L629.73,111.62 L628.56,115.77 L625.62,122.32 L629.85,120.98 L632.1,118.54 L634.83,121.23 L637.63,124.08 L638.7,128.53 L639.55,133.78 L640.71,137.78 L638.82,145.44 L638.04,150.06 L645.83,153.82 L650.7,156.96 L658.48,157.96 L660.64,160.81 L662.44,164.93 L665,167 L665.84,169.7 L666.39,172.7 L667.39,176.03 L670.74,177.9 L673.5,182.33 L673.68,191.57 L674.14,194.43 L676.14,199.02 L676.86,211.75 L678.17,214.12 L681.31,218.7 L686.37,223.7 L685.86,227.21 L686.45,231.82 L687.78,235.46 L690.8,232.71 L690.63,228.09 L689.63,223.48 L688.5,220.48 L685.41,217.82 L684.27,213.85 L685.12,210.97 L685.36,207.14 L684.99,203.64 L685.34,200.77 L687.65,198.15 L688.71,192.36 L688.32,188.36 L685,176.3 L684.92,171.99 L680.56,166.58 L678.64,164.06 L677.28,167.1 L672.21,162.54 L672.05,156.97 L671.62,153.63 L670.29,151 L667.29,149.12 L665.12,143.73 L663.76,141.36 L664.54,137.7 L661.61,130.56 L660.19,118.63 L660.61,106.52 L663.33,99.16 L674.02,99.04 L677.96,102.02 L683.86,101.94 L684.73,104.35 L688.66,106.52 L698.87,103.65 L703.35,105.65 L705.4,112.63 L707.48,115.14 L711.7,114.43 L716.98,120.22 L720.39,122.55 L724.62,128.84 L725.97,131.68 L727.8,138.97 L729.07,142.45 L732.49,144.93 L734.33,147.44 L737.14,152.64 L740.92,163.23 L742.53,166.54 L742.84,161.59 L741.84,157.79 L740.37,154.48 L739.21,150.68 L743.6,150.1 L747.75,146.97 L738.16,147.67 L735.55,145.67 L752.21,144.96 L754.22,149.05 L755.83,153.79 L757,150 L755.57,146.69 L756.9,143.95 L758.58,139.28 L758.17,135.94 L760.41,132.65 L760.91,129.3 L760.55,125.3 L760.66,121.95 L761.86,118.41 L764.42,114.84 L767.42,112.21 L771.07,109.75 L771.6,106.75 L771.6,103.75 L770.43,99.81 L772.43,96.25 L775.18,93.15 L781.45,90.58 L782.45,86.09 L785.26,88.56 L795.71,89.36 L798.5,91.18 L800.77,95.73 L805.15,106.58 L805.26,110.25 L805.13,113.07 L808.94,111.83 L810.27,107.15 L823.27,103.04 L827.15,104.18 L822.31,105.95 L822.25,108.86 L824.25,112.46 L826.89,106.94 L829.27,104.14 L832.27,106.9 L834.59,111.28 L837.03,115.17 L840.48,115.84 L836.97,111.99 L834.05,108.27 L833.12,104.96 L832.99,102.41 L830.5,98.68 L835.1,95 L842.1,92.35 L846.27,89.48 L839.68,95.16 L836.93,98.45 L845.93,94.45 L850.73,96.65 L855.03,102.65 L853.85,97.44 L851.9,94.65 L850.98,91.82 L851.24,87.82 L852.17,84.44 L853.64,81.83 L855.4,78.88 L856.35,75.33 L856.95,72.75 L856.69,66.35 L854.83,62.64 L853.04,58.73 L850.67,56.43 L850.2,51.83 L847.02,48.29 L846.79,41.64 L846.31,38.89 L845.33,36.19 L844.27,32.88 L844.49,28.73 L842.19,20.53 L839.19,17.3 L839.97,13.6 L841.97,10.49 L844.98,13.41 L847.71,9.15 L851.84,6.59 L853.62,8.75 L853.23,11.64 L854.61,15.73 L855.19,12.83 L859.25,8.04 L862.95,10.75 L866.05,12.53 L865.88,16.05 L869.77,14.65 L871.35,10.6 L872.29,8.01 L874.48,10 L877.36,3.97 L880.39,1.44 L889.21,3.59 L895,0.64 Z M444.1,809.38 L442.92,811.11 L442.12,810.11 L441.63,807.71 L440.92,805.78 L440.09,802.78 L440.51,799.92 L442.81,798.85 L445.56,798.59 L445.76,799.07 L445.16,800.33 L445.6,801.33 L446.15,804.33 L445.24,807.02 L444.1,809.38 Z" id="Shape"></path>
            </g>
            <g id="Group-2" transform="translate(360.000000, 405.000000)" fill="#FFFFFF">
                <path d="M37.4,72.23 C27.6733333,61.7966667 17.9466667,51.4166667 8.22,41.09 C8.14666667,43.1833333 8.07333333,45.99 8,49.51 C7.92666667,53.03 7.89,57.8166667 7.89,63.87 C7.89,65.4433333 7.91,67.39 7.95,69.71 C7.99,72.03 8.02666667,74.46 8.06,77 C8.1,79.5466667 8.15666667,82.1266667 8.23,84.74 C8.30333333,87.3533333 8.37666667,89.7833333 8.45,92.03 C8.52333333,94.2766667 8.59666667,96.24 8.67,97.92 C8.74333333,99.6 8.81666667,100.74 8.89,101.34 C7.58587628,101.184707 6.2733079,101.11123 4.96,101.12 C3.57354387,101.111654 2.18780291,101.185115 0.81,101.34 C0.956666667,100.593333 1.12333333,99.21 1.31,97.19 C1.49666667,95.17 1.66333333,92.7566667 1.81,89.95 C1.95666667,87.1433333 2.12333333,84.0933333 2.31,80.8 C2.49666667,77.5066667 2.64666667,74.2166667 2.76,70.93 C2.87333333,67.6366667 2.96666667,64.42 3.04,61.28 C3.11333333,58.14 3.15,55.3333333 3.15,52.86 C3.15,45.68 3.13,39.5066667 3.09,34.34 C3.05,29.1733333 2.95666667,25.32 2.81,22.78 L4.6,22.78 L19.24,38.66 C24.44,44.3066667 29.6033333,49.88 34.73,55.38 C39.8566667,60.88 44.73,66.0866667 49.35,71 C53.95,75.9 57.97,80.07 61.41,83.51 L61.41,68.25 C61.41,60.3966667 61.3533333,52.7466667 61.24,45.3 C61.1266667,37.8533333 60.8833333,30.8533333 60.51,24.3 C61.7530214,24.6384261 63.0321692,24.8264373 64.32,24.86 C65.5343854,24.8137138 66.7392116,24.6257743 67.91,24.3 C67.7566667,25.9466667 67.59,28.4166667 67.41,31.71 C67.23,35.0033333 67.0433333,38.52 66.85,42.26 C66.6633333,46 66.4966667,49.6666667 66.35,53.26 C66.2033333,56.8533333 66.13,59.7333333 66.13,61.9 L66.13,68.63 C66.13,71.1766667 66.15,73.8433333 66.19,76.63 C66.23,79.4166667 66.2666667,82.2033333 66.3,84.99 C66.34,87.7966667 66.3766667,90.4166667 66.41,92.85 C66.4433333,95.2833333 66.4633333,97.3966667 66.47,99.19 L66.47,102.89 L64.9,102.89 C56.3,92.89 47.1333333,82.67 37.4,72.23 Z" id="Shape"></path>
                <path d="M107.25,64.26 C105.79,61.8266667 104.18,59.1333333 102.42,56.18 L96.87,46.87 C94.9233333,43.6166667 93.0733333,40.5133333 91.32,37.56 C89.5666667,34.6066667 87.9766667,31.94 86.55,29.56 C85.13,27.2066667 84.0466667,25.43 83.3,24.23 C84.3466667,24.3833333 85.3766667,24.5133333 86.39,24.62 C88.440507,24.8451086 90.509493,24.8451086 92.56,24.62 C93.5666667,24.5066667 94.5966667,24.3766667 95.65,24.23 C99.0166667,30.7366667 102.44,37.1333333 105.92,43.42 C109.4,49.7066667 113.093333,56.26 117,63.08 C118.72,60.4133333 120.516667,57.4566667 122.39,54.21 C124.263333,50.9633333 126.133333,47.6733333 128,44.34 C129.866667,41.0066667 131.663333,37.62 133.39,34.18 C135.116667,30.74 136.726667,27.43 138.22,24.25 C141.08871,24.9979947 144.10129,24.9979947 146.97,24.25 C143.376667,29.71 140.16,34.6466667 137.32,39.06 C134.48,43.4733333 131.973333,47.4733333 129.8,51.06 C127.626667,54.6533333 125.72,57.89 124.08,60.77 C122.44,63.65 121.02,66.25 119.82,68.57 C119.82,71.3366667 119.84,74.2933333 119.88,77.44 C119.92,80.5866667 119.976667,83.6733333 120.05,86.7 C120.123333,89.7266667 120.216667,92.5333333 120.33,95.12 C120.443333,97.7066667 120.573333,99.7833333 120.72,101.35 C119,101.196667 117.166667,101.123333 115.22,101.13 C113.273333,101.136667 111.44,101.21 109.72,101.35 C110.166667,97.4633333 110.43,92.75 110.51,87.21 C110.59,81.67 110.626667,75.8733333 110.62,69.82 C109.833333,68.5466667 108.71,66.6933333 107.25,64.26 Z M129,0.8 C129.876354,0.847034355 130.717333,1.16109305 131.41,1.7 C132.276056,2.31341645 132.763867,3.33063494 132.7,4.39 C132.760711,5.60657922 132.263764,6.7845272 131.35,7.59 C130.499301,8.34082851 129.600744,9.03562363 128.66,9.67 L112.16,20.22 L107.45,20.22 L123.95,3.5 C125.723333,1.7 127.406667,0.8 129,0.8 Z" id="Shape"></path>
                <path d="M163.14,90.86 C164.187077,92.2839099 165.433116,93.5501549 166.84,94.62 C170.175796,97.1522674 174.262317,98.4968419 178.45,98.44 C180.741873,98.4760884 183.016359,98.0368538 185.13,97.15 C188.966115,95.5487892 191.957558,92.4159327 193.38,88.51 C194.134949,86.4821358 194.514468,84.3337865 194.5,82.17 C194.65702,79.2082497 193.717143,76.2924965 191.86,73.98 C190.011095,71.9114371 187.784657,70.214457 185.3,68.98 C182.55318,67.5784345 179.724768,66.3428827 176.83,65.28 C173.86235,64.1879724 171.022309,62.7763345 168.36,61.07 C165.751168,59.3963473 163.517526,57.2001597 161.8,54.62 C160.04,52 159.16,48.4833333 159.16,44.07 C159.120985,41.124627 159.693022,38.2031506 160.84,35.49 C161.947566,32.9269356 163.615031,30.6444224 165.72,28.81 C167.976946,26.8678272 170.588234,25.3805137 173.41,24.43 C176.664155,23.3413161 180.07892,22.8105061 183.51,22.86 C186.661835,22.7981753 189.80372,23.2335169 192.82,24.15 C195.470977,25.0336231 197.940602,26.3886988 200.11,28.15 C199.431371,29.4303457 198.869112,30.7690573 198.43,32.15 C197.983333,33.57 197.533333,35.3666667 197.08,37.54 L195.73,37.54 C195.301033,36.3685945 194.796644,35.2262032 194.22,34.12 C193.552725,32.8466365 192.681162,31.6913085 191.64,30.7 C190.501736,29.6159123 189.194657,28.7242616 187.77,28.06 C186.075148,27.3072972 184.23385,26.9417706 182.38,26.99 C180.408171,26.9642933 178.448579,27.303323 176.6,27.99 C174.893141,28.630809 173.32983,29.602781 172,30.85 C170.695118,32.0954864 169.67217,33.6060406 169,35.28 C168.275973,37.0608761 167.912292,38.9676522 167.93,40.89 C167.93,44.4033333 168.81,47.17 170.57,49.19 C172.420509,51.2857734 174.645091,53.0186417 177.13,54.3 C179.861559,55.7335889 182.692107,56.9700737 185.6,58 C188.547778,59.0520992 191.384798,60.3918962 194.07,62 C196.653883,63.5423794 198.888031,65.606242 200.63,68.06 C202.39,70.5266667 203.27,73.82 203.27,77.94 C203.289104,81.2822489 202.660876,84.5965793 201.42,87.7 C200.209028,90.7176895 198.371963,93.4443159 196.03,95.7 C193.557328,98.0508242 190.61185,99.8474292 187.39,100.97 C183.657082,102.257339 179.728152,102.883396 175.78,102.82 C171.933169,102.968712 168.095228,102.350018 164.49,101 C161.895738,99.9338708 159.459757,98.5173684 157.25,96.79 C157.858427,95.2828312 158.327065,93.7229389 158.65,92.13 C158.91,90.75 159.153333,88.9733333 159.38,86.8 L160.73,86.8 C161.388066,88.2344531 162.195886,89.595344 163.14,90.86 Z" id="Shape"></path>
                <path d="M221.83,87.21 C222.016667,82.4233333 222.11,77.56 222.11,72.62 L222.11,53.32 C222.11,48.38 222.016667,43.5366667 221.83,38.79 C221.643333,34.0433333 221.436667,29.2 221.21,24.26 C222.183333,24.4133333 223.12,24.5433333 224.02,24.65 C225.809586,24.875573 227.620414,24.875573 229.41,24.65 C230.31,24.5366667 231.246667,24.4066667 232.22,24.26 C231.993333,29.2 231.786667,34.0433333 231.6,38.79 C231.413333,43.5366667 231.32,48.38 231.32,53.32 L231.32,59.49 C231.32,60.09 231.54,60.39 231.99,60.39 C232.44,60.39 232.81,60.05 233.56,59.39 C236.18,57.1433333 238.93,54.6 241.81,51.76 C244.69,48.92 247.59,45.9633333 250.51,42.89 C253.43,39.8233333 256.31,36.7 259.15,33.52 C261.99,30.34 264.72,27.2533333 267.34,24.26 C268.16,24.4133333 268.946667,24.5433333 269.7,24.65 C270.444706,24.7627397 271.196808,24.8195652 271.95,24.82 C272.849326,24.8192329 273.747732,24.7624563 274.64,24.65 C275.54,24.5366667 276.436667,24.4066667 277.33,24.26 C274.71,26.5066667 271.753333,29.1733333 268.46,32.26 C265.166667,35.3466667 261.856667,38.49 258.53,41.69 C255.196667,44.91 252.016667,48.07 248.99,51.17 C245.963333,54.27 243.44,56.9833333 241.42,59.31 C247.48,66.1166667 253.596667,73.0566667 259.77,80.13 C265.943333,87.2033333 272.21,94.2933333 278.57,101.4 C277.452865,101.251243 276.326994,101.177744 275.2,101.18 L268.75,101.18 C267.716054,101.179042 266.683381,101.252565 265.66,101.4 C262.993333,98.3333333 260.02,94.8166667 256.74,90.85 C253.46,86.8833333 250.28,83.05 247.2,79.35 C244.093333,75.65 241.286667,72.3166667 238.78,69.35 C236.273333,66.3833333 234.423333,64.3066667 233.23,63.12 C232.63,62.52 232.18,62.22 231.88,62.22 C231.51,62.22 231.32,62.44 231.32,62.89 L231.32,72.65 C231.32,77.59 231.413333,82.4533333 231.6,87.24 C231.786667,92.0266667 231.993333,96.74 232.22,101.38 C230.5,101.226667 228.666667,101.153333 226.72,101.16 C224.773333,101.166667 222.94,101.24 221.22,101.38 C221.44,96.72 221.643333,91.9966667 221.83,87.21 Z" id="Shape"></path>
                <path d="M290.28,46 C292.208009,41.2150869 295.156544,36.9083153 298.92,33.38 C302.755168,29.8591149 307.285981,27.1815065 312.22,25.52 C323.268886,21.9290498 335.171114,21.9290498 346.22,25.52 C351.154019,27.1815065 355.684832,29.8591149 359.52,33.38 C363.282721,36.9089456 366.231137,41.2155441 368.16,46 C372.274428,56.9599102 372.274428,69.0400898 368.16,80 C364.297516,89.74169 356.230319,97.209546 346.22,100.31 C335.136515,103.675477 323.303485,103.675477 312.22,100.31 C302.209681,97.209546 294.142484,89.74169 290.28,80 C286.165572,69.0400898 286.165572,56.9599102 290.28,46 L290.28,46 Z M357.89,46.9 C356.530844,42.7339218 354.293858,38.9078567 351.33,35.68 C348.584459,32.767904 345.208023,30.5237886 341.46,29.12 C333.554209,26.2786639 324.905791,26.2786639 317,29.12 C313.251652,30.5231518 309.87508,32.7673574 307.13,35.68 C304.165388,38.9072998 301.928301,42.7335377 300.57,46.9 C297.42617,57.4065284 297.42617,68.6034716 300.57,79.11 C301.927444,83.2768471 304.164632,87.1032583 307.13,90.33 C309.877019,93.2450087 313.25741,95.4894786 317.01,96.89 C324.915791,99.7313361 333.564209,99.7313361 341.47,96.89 C345.222427,95.4891584 348.602749,93.2447339 351.35,90.33 C354.314612,87.1027002 356.551699,83.2764623 357.91,79.11 C361.052663,68.6033006 361.052663,57.4066994 357.91,46.9 L357.89,46.9 Z M314.13,6.3 C316.057113,4.38580948 319.068481,4.10062947 321.320665,5.61903589 C323.572848,7.13744231 324.43777,10.0359898 323.385958,12.5403024 C322.334147,15.0446151 319.658927,16.456303 316.997961,15.9111869 C314.336996,15.3660707 312.432361,13.0161696 312.45,10.3 C312.439427,8.79302635 313.046554,7.3474858 314.13,6.3 Z M336.24,6.3 C338.167113,4.38580948 341.178481,4.10062947 343.430665,5.61903589 C345.682848,7.13744231 346.54777,10.0359898 345.495958,12.5403024 C344.444147,15.0446151 341.768927,16.456303 339.107961,15.9111869 C336.446996,15.3660707 334.542361,13.0161696 334.56,10.3 C334.546809,8.79450642 335.150232,7.34918309 336.23,6.3 L336.24,6.3 Z" id="Shape"></path>
                <path d="M389.48,38.79 C389.293333,34.0433333 389.086667,29.2 388.86,24.26 C390.653333,24.4133333 392.466667,24.5433333 394.3,24.65 C396.133333,24.7566667 397.946667,24.8133333 399.74,24.82 C400.64,24.82 401.74,24.82 402.99,24.71 C404.24,24.6 405.55,24.58 406.86,24.54 C408.17,24.5 409.42,24.45 410.62,24.37 C411.82,24.29 412.83,24.26 413.62,24.26 C414.74,24.26 416.123333,24.2966667 417.77,24.37 C419.527003,24.4444286 421.275583,24.6550607 423,25 C424.863042,25.3841388 426.684777,25.9467336 428.44,26.68 C430.258151,27.4438721 431.914289,28.5468331 433.32,29.93 C434.846836,31.4501938 436.050909,33.2631052 436.86,35.26 C437.828474,37.7814985 438.287323,40.4700153 438.21,43.17 C438.21,48.11 437.143333,52.11 435.01,55.17 C432.981953,58.1402236 430.291118,60.5982641 427.15,62.35 C424.080358,64.0595617 420.743055,65.23624 417.28,65.83 C414.224166,66.3900958 411.126496,66.6911653 408.02,66.73 C406.3,66.73 404.73,66.71 403.31,66.67 C401.89,66.63 400.43,66.5366667 398.93,66.39 L398.93,72.56 C398.93,77.5 399.023333,82.3633333 399.21,87.15 C399.396667,91.9366667 399.603333,96.65 399.83,101.29 C398.11,101.136667 396.276667,101.063333 394.33,101.07 C392.383333,101.076667 390.55,101.15 388.83,101.29 C389.056667,96.6233333 389.263333,91.91 389.45,87.15 C389.636667,82.39 389.73,77.5266667 389.73,72.56 L389.73,53.26 C389.75,48.3666667 389.666667,43.5433333 389.48,38.79 Z M406.93,62.64 C409.344366,62.6283365 411.750856,62.3635556 414.11,61.85 C416.536395,61.3482106 418.842354,60.380319 420.9,59 C423.009536,57.5311119 424.726403,55.5670164 425.9,53.28 C428.284484,47.826676 428.506128,41.6706863 426.52,36.06 C425.726837,34.1722073 424.425173,32.5416658 422.76,31.35 C420.987499,30.1637216 418.97735,29.3787739 416.87,29.05 C414.272955,28.6156413 411.643027,28.4081915 409.01,28.43 L399,28.43 L399,61.76 C401.600963,62.3546922 404.261969,62.6466311 406.93,62.63 L406.93,62.64 Z" id="Shape"></path>
                <path d="M513.31,36.15 C513.329667,32.1763094 513.142748,28.2042829 512.75,24.25 C513.57,24.4033333 514.356667,24.5333333 515.11,24.64 C515.854706,24.7527397 516.606808,24.8095652 517.36,24.81 C518.504151,24.7835124 519.638772,24.5949701 520.73,24.25 C520.503333,26.87 520.28,29.9933333 520.06,33.62 C519.84,37.2466667 519.653333,41.1366667 519.5,45.29 C519.346667,49.4433333 519.196667,53.7066667 519.05,58.08 C518.903333,62.4533333 518.79,66.7 518.71,70.82 C518.710071,75.4077152 517.932386,79.962244 516.41,84.29 C515.072395,88.0600483 512.948816,91.5027682 510.18,94.39 C507.394554,97.2160955 503.997216,99.3646637 500.25,100.67 C495.900825,102.158142 491.32605,102.878872 486.73,102.8 C475.51,102.8 467.356667,100.256667 462.27,95.17 C457.183333,90.0833333 454.64,82.04 454.64,71.04 C454.64,67.5266667 454.733333,64.4033333 454.92,61.67 C455.106667,58.9366667 455.2,56.15 455.2,53.31 C455.2,47.0233333 455.126667,41.45 454.98,36.59 C454.833333,31.73 454.683333,27.6166667 454.53,24.25 C455.43,24.4033333 456.403333,24.5333333 457.45,24.64 C458.419627,24.7484447 459.39434,24.8051917 460.37,24.81 C461.176348,24.8105609 461.981715,24.7537508 462.78,24.64 C463.566667,24.5266667 464.37,24.3966667 465.19,24.25 C465.036667,25.8966667 464.886667,28.0466667 464.74,30.7 C464.593333,33.3533333 464.443333,36.3533333 464.29,39.7 C464.136667,43.0333333 464.023333,46.66 463.95,50.58 C463.876667,54.5 463.84,58.54 463.84,62.7 C463.84,65.2466667 463.876667,67.8833333 463.95,70.61 C464.0183,73.2923383 464.282335,75.9661114 464.74,78.61 C465.178925,81.1568608 465.913907,83.6437193 466.93,86.02 C467.925053,88.3548224 469.396419,90.4562867 471.25,92.19 C473.292049,94.0504522 475.700116,95.4639566 478.32,96.34 C481.726596,97.4336109 485.293406,97.9441212 488.87,97.85 C492.414957,97.9544561 495.944779,97.3457489 499.25,96.06 C501.859249,94.9994326 504.211766,93.3935837 506.15,91.35 C507.957791,89.3865821 509.385317,87.1045747 510.36,84.62 C511.379715,82.0412294 512.114088,79.3585866 512.55,76.62 C512.998316,73.8740701 513.262239,71.1011996 513.34,68.32 C513.413333,65.5533333 513.45,63.01 513.45,60.69 C513.43,50.09 513.383333,41.91 513.31,36.15 Z" id="Shape"></path>
                <path d="M580.75,72.23 C571.023333,61.7966667 561.296667,51.4166667 551.57,41.09 C551.496667,43.1833333 551.423333,45.99 551.35,49.51 C551.276667,53.03 551.24,57.8166667 551.24,63.87 C551.24,65.4433333 551.26,67.39 551.3,69.71 C551.34,72.03 551.376667,74.46 551.41,77 C551.443333,79.5466667 551.5,82.1266667 551.58,84.74 C551.66,87.3533333 551.733333,89.7833333 551.8,92.03 C551.873333,94.2766667 551.946667,96.24 552.02,97.92 C552.093333,99.6 552.166667,100.74 552.24,101.34 C550.935872,101.184759 549.623307,101.111282 548.31,101.12 C546.923544,101.111677 545.537805,101.185138 544.16,101.34 C544.306667,100.593333 544.473333,99.21 544.66,97.19 C544.846667,95.17 545.013333,92.7566667 545.16,89.95 C545.306667,87.1433333 545.473333,84.0933333 545.66,80.8 C545.846667,77.5066667 545.996667,74.2166667 546.11,70.93 C546.223333,67.6366667 546.316667,64.42 546.39,61.28 C546.463333,58.14 546.5,55.3333333 546.5,52.86 C546.5,45.68 546.48,39.5066667 546.44,34.34 C546.4,29.1733333 546.306667,25.32 546.16,22.78 L548,22.78 L562.64,38.66 C567.84,44.3066667 573.003333,49.88 578.13,55.38 C583.256667,60.88 588.116667,66.0866667 592.71,71 C597.31,75.9 601.33,80.07 604.77,83.51 L604.77,68.25 C604.77,60.3966667 604.713333,52.7466667 604.6,45.3 C604.486667,37.8533333 604.243333,30.8533333 603.87,24.3 C605.116301,24.6390284 606.39883,24.8270432 607.69,24.86 C608.904385,24.8137138 610.109212,24.6257743 611.28,24.3 C611.126667,25.9466667 610.96,28.4166667 610.78,31.71 C610.6,35.0033333 610.413333,38.52 610.22,42.26 C610.033333,46 609.866667,49.6666667 609.72,53.26 C609.573333,56.8533333 609.5,59.7333333 609.5,61.9 L609.5,68.63 C609.5,71.1766667 609.52,73.8433333 609.56,76.63 C609.6,79.4166667 609.636667,82.2033333 609.67,84.99 C609.71,87.7966667 609.746667,90.4166667 609.78,92.85 C609.813333,95.2833333 609.833333,97.3966667 609.84,99.19 L609.84,102.89 L608.27,102.89 C599.65,92.89 590.476667,82.67 580.75,72.23 Z" id="Shape"></path>
                <path d="M695.1,101.35 C694.106609,101.204463 693.103995,101.130938 692.1,101.13 L686.15,101.13 C685.146001,101.130833 684.14338,101.204359 683.15,101.35 C682.623333,99.63 681.913333,97.5533333 681.02,95.12 C680.126667,92.6866667 679.126667,90.1433333 678.02,87.49 L674.71,79.41 C673.59,76.6766667 672.543333,74.0766667 671.57,71.61 C669.176667,71.5366667 666.746667,71.48 664.28,71.44 C661.813333,71.4 659.343333,71.38 656.87,71.38 C654.55,71.38 652.27,71.4 650.03,71.44 C647.79,71.48 645.506667,71.5366667 643.18,71.61 C640.786667,77.4433333 638.616667,82.9966667 636.67,88.27 C634.723333,93.5433333 633.263333,97.9 632.29,101.34 C629.531421,101.040825 626.748579,101.040825 623.99,101.34 C630.05,88.2466667 635.96,75.23 641.72,62.29 C647.48,49.35 653.276667,36.1833333 659.11,22.79 L661.24,22.79 L667.07,36.87 C669.163333,41.9166667 671.296667,47.0233333 673.47,52.19 C675.643333,57.3566667 677.813333,62.48 679.98,67.56 C682.146667,72.6466667 684.186667,77.38 686.1,81.76 C688.013333,86.14 689.733333,90.05 691.26,93.49 C692.846667,96.9366667 694.126667,99.5566667 695.1,101.35 Z M645.39,66.45 C647.336667,66.45 649.356667,66.4866667 651.45,66.56 C653.543333,66.6333333 655.563333,66.67 657.51,66.67 C659.603333,66.67 661.696667,66.65 663.79,66.61 C665.883333,66.57 667.976667,66.5133333 670.07,66.44 L657.61,37.94 L645.39,66.45 Z" id="Shape"></path>
                <path d="M710.53,38.79 C710.343333,34.0433333 710.136667,29.2 709.91,24.26 C712.076667,24.4133333 714.21,24.5433333 716.31,24.65 C718.41,24.7566667 720.543333,24.8133333 722.71,24.82 C724.876667,24.82 727.01,24.7266667 729.11,24.54 C731.21,24.3533333 733.343333,24.26 735.51,24.26 C738.533106,24.2468078 741.54937,24.5484341 744.51,25.16 C747.160704,25.6903594 749.690111,26.7075474 751.97,28.16 C754.06419,29.52806 755.783,31.3981255 756.97,33.6 C759.623951,39.2397846 759.41574,45.8095831 756.41,51.27 C754.8808,53.7655027 752.880226,55.9393012 750.52,57.67 C748.237166,59.3349838 745.724161,60.6588589 743.06,61.6 C740.714658,62.4573987 738.289162,63.0771731 735.82,63.45 C736.72,64.57 737.953333,66.14 739.52,68.16 C741.086667,70.18 742.843333,72.4066667 744.79,74.84 C746.736667,77.2733333 748.756667,79.8166667 750.85,82.47 C752.943333,85.1233333 754.963333,87.6666667 756.91,90.1 C758.856667,92.5333333 760.69,94.76 762.41,96.78 C764.13,98.8 765.513333,100.333333 766.56,101.38 C765.442865,101.231243 764.316994,101.157744 763.19,101.16 L756.57,101.16 C755.4828,101.155547 754.396681,101.229069 753.32,101.38 C752.2,99.8066667 750.496667,97.45 748.21,94.31 C745.923333,91.17 743.396667,87.8033333 740.63,84.21 C737.863333,80.6166667 735.04,77.0433333 732.16,73.49 C729.28,69.9366667 726.643333,66.9366667 724.25,64.49 L720,64.49 L720,72.68 C720,77.62 720.093333,82.4833333 720.28,87.27 C720.466667,92.0566667 720.673333,96.77 720.9,101.41 C719.18,101.256667 717.346667,101.183333 715.4,101.19 C713.453333,101.196667 711.62,101.27 709.9,101.41 C710.126667,96.7433333 710.333333,92.03 710.52,87.27 C710.706667,82.51 710.8,77.6466667 710.8,72.68 L710.8,53.38 C710.806667,48.4066667 710.716667,43.5433333 710.53,38.79 Z M723.44,60.17 C724.673333,60.2433333 726.04,60.28 727.54,60.28 C729.974096,60.2666352 732.400302,60.0018972 734.78,59.49 C737.225132,58.9906081 739.561674,58.0593775 741.68,56.74 C743.800316,55.4058843 745.586157,53.6029369 746.9,51.47 C748.370399,48.9362817 749.091667,46.0373423 748.98,43.11 C749.072983,40.5962161 748.511304,38.1013962 747.35,35.87 C746.332789,34.0396887 744.888494,32.4821835 743.14,31.33 C741.432995,30.2140925 739.529072,29.4335177 737.53,29.03 C735.572432,28.6246142 733.579091,28.4169047 731.58,28.41 C728.96,28.41 726.79,28.4666667 725.07,28.58 C723.35,28.6933333 721.89,28.8233333 720.69,28.97 C720.536667,33.0833333 720.386667,37.16 720.24,41.2 C720.093333,45.24 720.02,49.28 720.02,53.32 L720.02,59.72 C721.146988,59.9562211 722.290265,60.1066523 723.44,60.17 L723.44,60.17 Z" id="Shape"></path>
                <path d="M781.9,38.79 C781.713333,34.0433333 781.506667,29.2 781.28,24.26 C782.253333,24.4133333 783.19,24.5433333 784.09,24.65 C785.879586,24.875573 787.690414,24.875573 789.48,24.65 C790.38,24.5366667 791.316667,24.4066667 792.29,24.26 C792.063333,29.2 791.856667,34.0433333 791.67,38.79 C791.483333,43.5366667 791.39,48.38 791.39,53.32 C791.39,62.7466667 791.426667,70.92 791.5,77.84 C791.573333,84.76 791.646667,90.95 791.72,96.41 C797.053333,96.41 802.14,96.3533333 806.98,96.24 C812.236223,96.0958977 817.480677,95.6652583 822.69,94.95 C822.355906,96.0438093 822.167614,97.1769239 822.13,98.32 C822.168998,99.3419998 822.357672,100.352755 822.69,101.32 C819.25,101.166667 815.81,101.093333 812.37,101.1 L791.67,101.1 C788.336667,101.1 784.876667,101.173333 781.29,101.32 C781.516667,96.6533333 781.723333,91.94 781.91,87.18 C782.096667,82.42 782.19,77.5566667 782.19,72.59 L782.19,53.29 C782.183333,48.3766667 782.086667,43.5433333 781.9,38.79 Z" id="Shape"></path>
                <path d="M903,101.35 C902.006609,101.204463 901.003995,101.130938 900,101.13 L894.05,101.13 C893.046001,101.130833 892.04338,101.204359 891.05,101.35 C890.523333,99.63 889.813333,97.5533333 888.92,95.12 C888.026667,92.6866667 887.026667,90.1433333 885.92,87.49 L882.61,79.41 C881.49,76.6766667 880.443333,74.0766667 879.47,71.61 C877.076667,71.5366667 874.646667,71.48 872.18,71.44 C869.713333,71.4 867.243333,71.38 864.77,71.38 C862.45,71.38 860.17,71.4 857.93,71.44 C855.69,71.48 853.406667,71.5366667 851.08,71.61 C848.686667,77.4433333 846.516667,82.9966667 844.57,88.27 C842.623333,93.5433333 841.163333,97.9 840.19,101.34 C837.431421,101.040825 834.648579,101.040825 831.89,101.34 C837.95,88.2466667 843.86,75.23 849.62,62.29 C855.38,49.35 861.176667,36.1833333 867.01,22.79 L869.14,22.79 L874.97,36.87 C877.063333,41.9166667 879.196667,47.0233333 881.37,52.19 C883.543333,57.3566667 885.713333,62.48 887.88,67.56 C890.046667,72.6466667 892.086667,77.38 894,81.76 C895.913333,86.14 897.633333,90.05 899.16,93.49 C900.773333,96.9366667 902.053333,99.5566667 903,101.35 Z M853.29,66.45 C855.236667,66.45 857.256667,66.4866667 859.35,66.56 C861.443333,66.6333333 863.463333,66.67 865.41,66.67 C867.503333,66.67 869.596667,66.65 871.69,66.61 C873.783333,66.57 875.876667,66.5133333 877.97,66.44 L865.51,37.94 L853.29,66.45 Z" id="Shape"></path>
                <path d="M954.44,72.23 C944.713333,61.7966667 934.986667,51.4166667 925.26,41.09 C925.186667,43.1833333 925.113333,45.99 925.04,49.51 C924.966667,53.03 924.93,57.8166667 924.93,63.87 C924.93,65.4433333 924.95,67.39 924.99,69.71 C925.03,72.03 925.066667,74.46 925.1,77 C925.133333,79.5466667 925.19,82.1266667 925.27,84.74 C925.35,87.3533333 925.423333,89.7833333 925.49,92.03 C925.563333,94.2766667 925.636667,96.24 925.71,97.92 C925.783333,99.6 925.856667,100.74 925.93,101.34 C924.625872,101.184759 923.313307,101.111282 922,101.12 C920.613544,101.111677 919.227805,101.185138 917.85,101.34 C917.996667,100.593333 918.163333,99.21 918.35,97.19 C918.536667,95.17 918.703333,92.7566667 918.85,89.95 C918.996667,87.1433333 919.163333,84.0933333 919.35,80.8 C919.536667,77.5066667 919.686667,74.2166667 919.8,70.93 C919.913333,67.6366667 920.006667,64.42 920.08,61.28 C920.153333,58.14 920.19,55.3333333 920.19,52.86 C920.19,45.68 920.17,39.5066667 920.13,34.34 C920.09,29.1733333 919.996667,25.32 919.85,22.78 L921.65,22.78 L936.29,38.66 C941.49,44.3066667 946.653333,49.88 951.78,55.38 C956.906667,60.88 961.77,66.08 966.37,70.98 C970.97,75.88 974.99,80.05 978.43,83.49 L978.43,68.25 C978.43,60.3966667 978.373333,52.7466667 978.26,45.3 C978.146667,37.8533333 977.903333,30.8533333 977.53,24.3 C978.776301,24.6390284 980.05883,24.8270432 981.35,24.86 C982.564385,24.8137138 983.769212,24.6257743 984.94,24.3 C984.786667,25.9466667 984.62,28.4166667 984.44,31.71 C984.26,35.0033333 984.073333,38.52 983.88,42.26 C983.693333,46 983.526667,49.6666667 983.38,53.26 C983.233333,56.8533333 983.16,59.7333333 983.16,61.9 L983.16,68.63 C983.16,71.1766667 983.18,73.8433333 983.22,76.63 C983.26,79.4166667 983.296667,82.2033333 983.33,84.99 C983.37,87.7966667 983.406667,90.4166667 983.44,92.85 C983.473333,95.2833333 983.493333,97.3966667 983.5,99.19 L983.5,102.89 L981.93,102.89 C973.31,92.89 964.146667,82.67 954.44,72.23 Z" id="Shape"></path>
                <path d="M1008.58,38.79 C1008.39333,34.0433333 1008.18667,29.2 1007.96,24.26 C1010.8,24.4133333 1013.62333,24.5433333 1016.43,24.65 C1019.23667,24.7566667 1022.06,24.8133333 1024.9,24.82 C1027.74,24.82 1030.56333,24.7266667 1033.37,24.54 C1036.17667,24.3533333 1039,24.26 1041.84,24.26 C1047.57756,24.1256726 1053.2942,24.9989072 1058.73,26.84 C1063.08566,28.3563693 1067.02462,30.8738764 1070.23,34.19 C1073.30354,37.5119167 1075.55396,41.509235 1076.8,45.86 C1078.24564,50.9112279 1078.94635,56.1463949 1078.88,61.4 C1078.88,68.88 1077.59,75.1833333 1075.01,80.31 C1072.67912,85.1234067 1069.30789,89.3587948 1065.14,92.71 C1061.22449,95.8101668 1056.72011,98.0827704 1051.9,99.39 C1047.38904,100.66792 1042.72822,101.340478 1038.04,101.39 C1035.49333,101.39 1032.98667,101.353333 1030.52,101.28 C1028.05333,101.206667 1025.54667,101.17 1023,101.17 L1015.48,101.17 C1013.01333,101.17 1010.50667,101.243333 1007.96,101.39 C1008.18667,96.7233333 1008.39333,92.01 1008.58,87.25 C1008.76667,82.49 1008.86,77.6266667 1008.86,72.66 L1008.86,53.36 C1008.86,48.4 1008.76667,43.5433333 1008.58,38.79 Z M1018.74,96.41 C1020.84789,96.858045 1022.98788,97.1389182 1025.14,97.25 C1027.80667,97.4366667 1030.57333,97.53 1033.44,97.53 C1037.59607,97.5242036 1041.73732,97.0342342 1045.78,96.07 C1049.84147,95.1224452 1053.62538,93.2390528 1056.83,90.57 C1060.32643,87.5651071 1063.06692,83.7798104 1064.83,79.52 C1066.88333,74.8533333 1067.91333,68.8133333 1067.92,61.4 C1067.92,54.8933333 1067.11667,49.56 1065.51,45.4 C1064.15819,41.5936186 1061.88366,38.1818191 1058.89,35.47 C1056.00854,33.021465 1052.5777,31.306046 1048.89,30.47 C1044.6668,29.4707706 1040.33975,28.9773058 1036,29 C1032.63333,29 1029.49,29.1133333 1026.57,29.34 C1023.65,29.5666667 1021.03,29.83 1018.71,30.13 C1018.48333,33.7233333 1018.31667,37.4833333 1018.21,41.41 C1018.10333,45.3366667 1018.04667,49.3366667 1018.04,53.41 L1018.04,72.71 C1018.05333,80.73 1018.28667,88.63 1018.74,96.41 Z" id="Shape"></path>
                <path d="M1098.69,38.79 C1098.50333,34.0433333 1098.29667,29.2 1098.07,24.26 C1099.04333,24.4133333 1099.98,24.5433333 1100.88,24.65 C1102.66959,24.875573 1104.48041,24.875573 1106.27,24.65 C1107.17,24.5366667 1108.10667,24.4066667 1109.08,24.26 C1108.85333,29.2 1108.64667,34.0433333 1108.46,38.79 C1108.27333,43.5366667 1108.18,48.38 1108.18,53.32 L1108.18,72.62 C1108.18,77.56 1108.27333,82.4233333 1108.46,87.21 C1108.64667,91.9966667 1108.85333,96.71 1109.08,101.35 C1107.36,101.196667 1105.52667,101.123333 1103.58,101.13 C1101.63333,101.136667 1099.8,101.21 1098.08,101.35 C1098.30667,96.6833333 1098.51333,91.97 1098.7,87.21 C1098.88667,82.45 1098.98,77.5866667 1098.98,72.62 L1098.98,53.32 C1098.99333,48.3866667 1098.89667,43.5433333 1098.69,38.79 Z" id="Shape"></path>
                <path d="M1132.69,38.79 C1132.50333,34.0433333 1132.29667,29.2 1132.07,24.26 C1134.91,24.4133333 1137.73333,24.5433333 1140.54,24.65 C1143.34667,24.7566667 1146.17,24.8133333 1149.01,24.82 C1151.85,24.82 1154.67333,24.7266667 1157.48,24.54 C1160.28667,24.3533333 1163.11,24.26 1165.95,24.26 C1171.68756,24.1256726 1177.4042,24.9989072 1182.84,26.84 C1187.19566,28.3563693 1191.13462,30.8738764 1194.34,34.19 C1197.41354,37.5119167 1199.66396,41.509235 1200.91,45.86 C1202.35902,50.910728 1203.0631,56.1459044 1203,61.4 C1203,68.88 1201.71,75.1833333 1199.13,80.31 C1196.79912,85.1234067 1193.42789,89.3587948 1189.26,92.71 C1185.34449,95.8101668 1180.84011,98.0827704 1176.02,99.39 C1171.50904,100.66792 1166.84822,101.340478 1162.16,101.39 C1159.61333,101.39 1157.10667,101.353333 1154.64,101.28 C1152.17333,101.206667 1149.66667,101.17 1147.12,101.17 L1139.6,101.17 C1137.13333,101.17 1134.62667,101.243333 1132.08,101.39 C1132.30667,96.7233333 1132.51333,92.01 1132.7,87.25 C1132.88667,82.49 1132.98,77.6266667 1132.98,72.66 L1132.98,60.17 L1127.71,60.17 C1126.89,60.17 1125.99333,60.19 1125.02,60.23 C1124.04667,60.27 1123.04667,60.3266667 1122.02,60.4 C1122.09668,60.0098112 1122.15342,59.6159667 1122.19,59.22 C1122.23,58.8066667 1122.25,58.4133333 1122.25,58.04 C1122.25,57.6666667 1122.23,57.2933333 1122.19,56.92 C1122.15,56.5466667 1122.09333,56.1733333 1122.02,55.8 C1123.06667,55.8733333 1124.06667,55.93 1125.02,55.97 C1125.97333,56.01 1126.87,56.03 1127.71,56.03 L1133,56.03 L1133,53.34 C1133,48.3933333 1132.89667,43.5433333 1132.69,38.79 Z M1142.85,96.41 C1144.95789,96.858045 1147.09788,97.1389182 1149.25,97.25 C1151.91667,97.4366667 1154.68333,97.53 1157.55,97.53 C1161.70607,97.5242036 1165.84732,97.0342342 1169.89,96.07 C1173.95147,95.1224452 1177.73538,93.2390528 1180.94,90.57 C1184.43643,87.5651071 1187.17692,83.7798104 1188.94,79.52 C1190.99333,74.8533333 1192.02333,68.8133333 1192.03,61.4 C1192.03,54.8933333 1191.22667,49.56 1189.62,45.4 C1188.26819,41.5936186 1185.99366,38.1818191 1183,35.47 C1180.11854,33.021465 1176.6877,31.306046 1173,30.47 C1168.80652,29.502175 1164.51354,29.0322632 1160.21,29.07 C1156.84333,29.07 1153.7,29.1833333 1150.78,29.41 C1147.86,29.6366667 1145.24,29.9 1142.92,30.2 C1142.69333,33.7933333 1142.52667,37.5533333 1142.42,41.48 C1142.31333,45.4066667 1142.25667,49.4066667 1142.25,53.48 L1142.25,56 C1145.84333,56 1149.47,55.98 1153.13,55.94 C1156.79,55.9 1160.34333,55.8066667 1163.79,55.66 C1163.56173,56.4257759 1163.44717,57.2209293 1163.45,58.02 C1163.45714,58.8906862 1163.57133,59.7571898 1163.79,60.6 C1160.35,60.4533333 1156.79667,60.34 1153.13,60.26 C1149.46333,60.18 1145.83667,60.1433333 1142.25,60.15 L1142.25,72.61 C1142.20333,80.6966667 1142.40333,88.63 1142.85,96.41 L1142.85,96.41 Z" id="Shape"></path>
            </g>
            <rect id="Rectangle-path" fill="#F05663" x="656" y="566.87" width="608" height="8"></rect>
        </g>
    </g>
</svg>
