<svg id="Layer_1" data-name="Layer 1" xmlns="http://www.w3.org/2000/svg" xmlns:xlink="http://www.w3.org/1999/xlink" viewBox="0 0 1920 1080"><defs><style>.cls-1{fill:url(#linear-gradient);}.cls-2{opacity:0.03;}.cls-3,.cls-5{fill:#fff;}.cls-4{fill:#f05663;}.cls-5{font-size:36px;font-family:Optima-Bold, Optima;font-weight:700;letter-spacing:0.03em;}.cls-6{letter-spacing:0.01em;}.cls-7{letter-spacing:0.02em;}</style><linearGradient id="linear-gradient" x1="210" y1="-3509.28" x2="1710" y2="-2009.28" gradientTransform="matrix(1, 0, 0, -1, 0, -2219.28)" gradientUnits="userSpaceOnUse"><stop offset="0" stop-color="#1c1c1c"/><stop offset="1" stop-color="#19292b"/></linearGradient></defs><title>iconArtboard 16</title><rect class="cls-1" width="1920" height="1080"/><g class="cls-2"><path class="cls-3" d="M1020.61,163.33l-2,1.46-1.82-2.84-.32-4.3,1.1-.65,2.59,3.46.8.47ZM1059.38,891l-.65,2.88-1.75,2.74-.67.17.76-1,.57-1.45-.24-1.43-.93-.78-1.23.18-4.95,1.85.28-2.08,3.39-3.57,1.92-1.31.84-.18,1.63.29.91,1.58ZM983.55,307l-1.38,1-1.24-.47-.92-1-.66-1.59-.24-1.91-.65-3.18-1-3.65.61-1,2,2.37,1,1.58,1,1.42,1.56,3.33ZM1221,157.64l9,8.34,5,1.67-1.28,2.46-1.54,1.19-1.26,1.66-.45,3.85,1.05-.05h.35l.08,1.59-2,2,.58.77,1.12,2,.57.61-1.1,2.45,1.42.25,3.65-1.13,4.16.75,1.77-1-.13,1.28-.14,2.88-.1,1.28,9.82-.5,1.88.54,1.78,1.66,1.08,2.34-.11,2.24.08,1.59,2.42,7.05-3.86,8.34-2.27,3.31-3,2.87,1.6,3.59,1.18-1.5,1.29.73,1.52,1.36,3.48,1.41.44,1.73-.3,2.89-.65,3.54,1.68,1.35,7.59-.08L1271,233l1.24.25.58,1.24,1.16,1.69h.45l.58-.51.93-1.17.37,2.69.77,2.19,1.15,1.53,3,1.27,3.28,3.33L1288,248l2.26,3.38,2.15,2.11,2.32-2.37-.86-.43-.35-.46-.37-.94,1.75-1.54,1.19-2.78.6-4.18v-4.95l-.72-5.22-.66-3.63.57-2.43,2.91-1.92,12.72-.76,7.07-3.14.46-1.94-.05-2.39.46-1.94,7-5.38,1-3.09.48-4,1.53-3.13,3.72-4.55,2.62-2.08,8.72-2.17,2.46.48,4.17,3.08,2.5,1L1373,188l-4.46,5.9-17.68,9.66-7.74,6.74-9.31,3-3.09,2.91-2.21,4.77,2.59.79,1.33,1.19.64,2,.58.44,2.54,4.47.49,1.08.83,1.38-.29,3.05-1,4.37-.71,2-9.33,10.17-1.68,1.06-6.39.71-2.58,2.71-1.56,5.84,3.35,2.35,1.62.54,6.19.1,1.44,1.83.89,4.89-1,.86-1.79,2-1.2,1,2.26,1.46,11.79-.26,7,2.74,4.69-.78,8-8.35,5.28-1,2.41,1.11,2.23,2.24,1.71,3.71,1,5.84.88,3,1.52.85,1.51.21.71.91.47,3,1.43,5.65.32,2.69-.21,1.13-1.27,1.37-.41,1.14v1.28l.35,2.69v1.12l-2,6.52-.27,1.77-1.12,1.19-6.22,8.88-7.35,6.4-2.14,3.17.49,4.44-1.84,4-4.91,6.07,3.12-.36,2.66-2.41,4.46-6.84-1.28,5.35-2.63,5.92-.94,4.69L1359,358l3.73-1.21,7.94-5.48,22.16-7.77,7.8-5,4.22-1.43,3.63,3.41-3.74,11.13-2.42,2.89.41,2,.91,2.17.53.92.54.6,2.51,1.57,7,4.11,2.15,2.39-5.6,2.17-2.9,2.61-2.1,6.86-5,6.91-1.78,5.56-7.37,10.26-1.38,3.45-1,3.9-.29,4.33,1.21-2.16,1.88-5.72,1.07-1.19,1.16-.88,3.29-3.91,1-1.67,1.64-4.27,11.65-20.81,2.18-1.76,2.9.42,8.87,5.72-1.86-2.41-3.27-3.11-1.35-2.61,24.29,12.19,3,.24,11.37-4,2,.16,1.35,1.17,1,3,.34,2.53-.44,2-1.34.59.13,1.59,3.3-.43,1.52.35,1.11,1.51.24,1.74-.07,2.4-.25,3.06.88,1.84,1,1.35,2.05,1.59,4.32-7.87,2.57-2.13,3.25.53.65,1.07.27,1.57.1,1.59.2.78.67.1,1.5-.61.65.27,4.1,3.81.77,1.21.67,5.54-1.2,3.78-1.78,2.55-.92,2.48L1487,419l1.64,4.81.22,2.22-.61,1-3.44,3,1.22,1.49.13,1.91-.16,2.41.27,2.85-3.38,3-9.83-.78-4,2.73,2.8,2,8.57,2.33.69,4.26-2.18,3.06-3.3,1.71-5.3.59-2.24.82-4.25,3.22-8.83,2.46-2.62,2,1.88,2.25,16.46-7.72,5.22,0,10.13-3.56,3.3.68L1495,461l3,2.62,1.23,2.61.69,1.38-2.38,2.28-3.76,7.35-2.24,1.63-13.3,4.63-14.36,1.17-6.14,2.09-6.6.52,3.51,2.44L1467,486l16.69.55,7.24-2.52,4-.34,1.18.86-.39,1.79-1.43,3-.13,1.61.21,1.26.08,1-.47,1.16-3.91,2.25-3.56.78-3.3,1.55.16,1.9,8.2-2.45,2.08,1.58.13,1.59-1,.41-.87.87-.77,1.18-.72,1.5,3.34-.28,1.12.54.93,1,.73,1.06.47.44,1-.89,1.41-3.63.83-.87.15-1,2.61-6.46,4-5.62.63,3.78.4,5.4.12,5.26-.37,3.07.17,1.9,2.14,1.41.78,2.33-.44,3.08-1.56,3.81-2,2.1-4.43,1.82-2,1.93,2.24,3.33,1.19,2.46-.17,1.13-1.64.94-3,3.93-1.6,1.09-8-1.25-6.62,1.67-2.31-.93-1.25-2.45L1478,532l-1.4-3.08-1.79-1.29-1.82-.33L1469.2,525l-5.82-1.45-6.46-5.4-3.42-1.2.93,2.8,1.27,2,1.45,1.32,1.27.7-3.55,4.59-22,2.49.13,2.1,34.41.51,1.16,1,1.66,1.78,1.55,2.43.78,2.49,1,1.2,5.46,4.35,11.59,4.15,2.47,3.63-4.22,3.87-5.39-.35-9.87-3.83L1463,557l-6.91-2.49-1.76,1.26,6.79,4.1,15.86,2.4,7.49,5.3,1,1.36,1.21,2.3.56,2.19-1.1,1-1.69.94-2.44,3.87-1.35.91-11.74-3.52-3,3.12,12.18,3.81,2.16,1.9.29,2.69-3,1.21-12.49.52-3.6-1.15-.59,1.17-.84,1-2.09,1.6.15,1.9,3.68,3.86,2,2.72,1.94,3.36-1.71.78-4.66,5-23.94,7.1-4-1L1429,615l-1.58-1.48-3.86-9.77-3-2.82-3.37-5.66-1.72-1.15-8.7-1.29,1.18,1.35,1.19.39,2.61-.19,1.57,1,.06,2.71-.54,2.91-.1,1.92,1.85,2.1,5.75,2.62h1.81l.13,1.75.06,3.19,1.8,4,2.33,3.34,1.53,1.33,5.71,1.49,2.21,2.07-1,3,.88,1.69L1417,624.7l-5.33,4.85,1.93,2.1,4.58,1.91,2.3,2.39,1.26,2.78v2.39l-1,2.15-2,1.58-14.67,1-1.24,1.84,1.6,3.24,2.38,2.71,1.16-.08,1.32,2.62,2.47,1.42H1414l.31-1.94,4.45-1.6,6.05-10.66,3.22-2.79.81,1.22-1.49,3-9.2,13.12-1.2,3-.21,2.41v5.42l-.31,1.94-3.17,6.77-.32,2.26.22,1.58.2.94.36,1.73v1l-.49.83-.58.52-.46.83-.09,1.6-.2,1.13-.92,4-.39.83-11.42,2.07-7.78,3.4-2.8,1.47,4.55-4.14,9.7-3.54,4.9-2.42-3-1.71-12.42-1.06-.87.38-.06,1.12.44,3.48-.37.66-.78.69-2.21,2.54-1.31.57-.46.83-1.95,4.44-1.18,1.51-5.9,4.38-2.35,2.71-2.07,3.33-1.21,3.27.39-3.06.3-1.3.49-1-.11-1.75h-.76l-.59,2.59-1.58,2.33-1.79,1.71-1.27.72-.36.82.47,1.88.94,1.7,1.2.88,2.39-.47,1-.7,1-1,.74,3.46,1.23,3.43h-2.5l-3,4.66-2.14,1.25-5.19-.31-2.35-1-2.28-1.61-3.79-4.07-2.26-1.77-2.33-.65-1,.7-1.86,3.46-1,1.18-1.4-.23-1.3-.88-1.34-.4-1.34,1.84,1.56,1.82-1.14,1.19-1.25.55-2.76.17,1.78-7.29-.09-1.43-3.53,1.17-1.77,0-.83-1.71-.75-3.94-1.4-2.63-1.54-.87-1.23,1.51.1,1.75,1,1.06.7,1.39.59,1.72.46,2.52-1.54-.87-3.24-.93-1.56-1.18-.09-1.59.89-3.72-2-5.31-3.07-4.77-2.5-2.09-2.4-2.26-4.51-1.66-2.86-.64,2,1.48,3.91,1.37,2.34,1.14,1.36,2.63,2.39,6.24,1.08,2-.85,1.48-.94.53-1-.42-1-1.38.12,2.07,2.35,1.78.64,4-.67,4.66-1.52,3.75-2.65,1.59-6.31-1.4-2.42,2,1.63,1.19,1.73.54,3.66-.2-2.71,2.38-7,3.1-6.37,1-6.61,2.9-2.82,2.54-.59-1.24-.79-1.23-.33-1.1-2.89,4.46-9.49,8.62,9.16-3.66,2.26,1.47-3.58,3.38-28.57,10.34-3.86,3.85,5.25-.25.08,1.59-6.83,6.54-2.36.91-1.05.69-3.65,4.79-2.56,2-1,1.32-.77,2.26-1.3-2.49L1234,792l-1.11,1-1.13,2,.08,1.75,1.53-.07.07,1.59-6.55,5.07-2.41.74.54-3.69-5.91,4.88-2.75,3.62-1.6,4.37,1.86.08,1.41-1.49,1.09-1.48-2.69,6L1215,818.7,1207.2,826l-5.08,8.81-3.43,2,1.37-.85,1.38-1.33,1.08-2,.51-3-16.48,14.82-15,5-2.31-.56-2-2.16.93,1.56,1,1.08,1,.6,1.13.12-2.06,1.35-1.81.54.48,2.69.06,3.66-.49,3-1.23,1.16-.59-.78-.27-1.74-.12-3.5-.31-.79-2.1-1.84-4.45-5.74-1.19-1.08-1.85-.57-.89.83-.24,2.24.09,3.82.51,4.76.08,3.34-.66,1.46-1.54-.75-.32-2.38.39-6.39-.46-2.37-.91-3-.9-1.56-.29,1.76.26,6.84-.11,3.19-.47,2.88,1.62,2.34-.51,1.77-1.76,1.17L1147,867l1.12-5.77V858.7l-.74-2.21.42-2.24.25-1,.41-.49,1-.67V850.5l-.42-1.1-.36-.15.44-6.86v-3.82l-.37-1.58-.42-.94-1.3-2L1145.7,833l-.58,1.45-.07,6.69.26,2.7,1,2.2-1.77,1.81-2.14-.09-1.85.37-1.09,3.22L1141,854l.69,2.85.83,2.84,2,1.85-1.95,3.09-4.19,1.09-8.14-.07-1.74-.43-4.17-3.06-1.51,1.16-1.5,1.8h-1.16l-.51-4.44-13.76,9.14-15.47,5.65-10.55,2.79,1.23-1.78.65-2.24-.1-2.86-.69-2.53-.76,3.68-1.32,2.58-1.61.67-1.69-1.71.28,1.43v.64l.08.63.51.79v1.91l-14.63,11,1-5.76,2.86-3.24,3.64-1.51,3.2-.39v-1.91L1065,874l-2.78-3.13-.49,3.51.14,1.43.5,2.06-2.88,2.13-2.8-.42-2.85-1.38-3.1-.1,2.36,1.87v1.59l-2.86,0-1.3.5-1.17,1.46-1.89-.92-2,1.47-1.64,2.89-.62,2.88-.55,4.63-1.47,3-2,.83-2.16-2.35L1034,898.3l-.53,2.4.63,1.74,1.89.77,1.4-.66,2.26-2.43,1.72-.51,9,.8,3.09-1-4.74,9.64-2.93,2.6-3-1.54.34-.48h.14l.07-.16.2-1-4.67.08.18,2.39-3.19-.27-1.75,1.46,1.45-.34,1,.78.38,1.74-.3,3,8.5-.62,1.6-1.46-2.68,8.65-4,8-5.16,6-11.65,5.44-7.43,5.84-7.17,1.85-3.8-5.21,1.4-1.93,3.22-1.16,1.23-1.45,1.49-2.88,1.44-1.29,3.62-.21v-1.75L1014,935l-6.12,2h-3.09l-7.91-4.85-2.32-.45.7,1.9-.85.33-.35.48-.34,1,1.12,1.58,2.5,4.27.83,1,1.12,1.58.58,3.65.36,3.5.45,1.74,4.77.26h2.71l1.93.29-24.54,4.1-14.2,7L947.06,971l-5.86-.14L919.14,964l-9.31,2.54-3.35-1,1.29-.16.5-.48.57-1-4.1-1-2-1.12-1.71-1.6-2.32,3.34-15.46-3.4-1.46-.64-6-4.65-9.39-2-13.4-9-18.37-5.28L831,935.34l1.57-.3.86-1-.09-1.28L832,931.69l-1.38-.18-1.94,1.57-1.43.46-11-2,.3,1.28,11.4,2.54-30.2-2.5-1.94-3.22-.5.15-.29.47-.29.47-.43.47-.51-1.12-.35-.32-.74-.17.72,3.51h-8.78l-4.28-1.19-17.09-15-1.69-2.11,1.6,1.47,1.83.68,1.89-.44,1.8-1.56-1.48-.35-2.56-1.33-1.48-.19.65-4,.23-1.11L762,911l-1.9,1.23-2-.68-2.5-2.13v-1.59l3.86,1.68-1.44-4-2-2.27-2.19-2-2-2.43-1.74-4.5-.92-3-1.3-1.62-2.83.25v1.59l3.83,5.67,2.23,4.35,1.46,4.17-7.41-7-3.39-4.7-2-6.1.43-.31,1.17-1.57-.82-1.13L739,880.64l3.26-3.59,3.64-2,7.67-1.1,3.55,1.83,6.16,6.82,3.73.56-1.82-2.43-2.68-4.83L761,874.14l-8.55-5.29,3.56-6.29.58-2.54-.34-3.51-1.24-1-1,.77.3,2.08V860l-1.39,2.52-5.07,6.25-3.25,3.59-2.24,2.34-2.77.73-.94,1.09-.16,2.38v2.87l-.31,2.54-.94,2.52-.58.62-5-3.15-4.89-4.59L723,877.81l-7.79-6.58,7.43.2,1.28.83,2.68,2.62,1.72.2.25-1.43,1.53-.44,3.76.26v-1.75l-3.17-.08v-1.75h.39l.8.18.43-.15v-1.59l-8.15,1.86-2.84-.56V868l4-5,1.33-7.77-1.37-6.57L721,847v1.59l3.16,1.52-.44,3.49-2.25,4.08-4.38,5.61-2.77,2-3.08.71-3-2,1.11,4.33.36,1-4.43-5.07-10-7.15L681,851.23l-4.79-3.83L673.51,846l-2.67-2.16-2.18-4.06.73-1.89-.09-2.55-1-6.09,8.77.94,4.9-1,3.39-2.91-8.47-.28-5.29-3.21-1.94-.54-5.86,1.39-1.23,1.07-1.07,1.4-3.67,3.69-1.33.91-.06,1.59,5.69,2.75,2.82,2.65,1.3,3.87-2.3-1.36-5.09-1-5.28.45-3.2,1.16-1.93,2.64,1.31,4.51-.53.14-.37.46-.3.63-.47.46L614.72,853l-3.88-3-3.62-4.14-3.4-2.7-3.73-.8-19.16,6.14-4.61-.06-1.61-.24-5.92,1.63-30.24-8.55L536.09,843l-2.28,3-2.18,2-2.36-1.88,1.71-1.66-2.67-.14-4.4,2.63-3.68.92-2.3,2.1-1.31.72-1.25.25L504.5,849l-2.55.81-.61.76-.66,1.08-.76.91L499,853l-1.32-.87-1.53-3.44-1.22-.87.89-2.5,1-1.7.77-1.71.34-2.85-.33-2.73-.84-1.33-1.16-1.18-1.17-2.14,1.9-2.44,2.82-9.25,1.13-2,5,.29.81-.75-.33-2.73-1.15-.07-2.69,1.6-2.14-.6-2.3-2-1.73-3.45-.49-4.81,2-4.82.54-2,.31-2.85.14-5.41.17-2.38v-2.07l.79-2.19,1.29-1.68,1.48-.87,1.56.73,3.19,4,3.74,2.93,2.8,4.78,2.37,6.35,1.16,6.76-1.61-.09,1.7,2.81,2.67,1.11,11,1.08,2.76-.49,1.84-1.66-1.15-2,.77-2,1.63-1.67,1.43-1.2,1.72-.71,5.38-.67,4.24-3,1.28-.41,1.4.71,2.77,2.53,1.47.71,3-1,5.71-4.5,9.47-1.45,3.16-1.92,2.85-4.17.87,1.48.72.35.66-.61.75-1.08.08-1.59-1.85-2.16-2.62-2-2.64-.92-1.93,1,1.38-4.08,2.88-1.93,3.11-.17,2.1,1.37-.92.28-2.16,1.49,2,1.21,2.25.42,2.25-.37,2-.87.09-1.91-2.29-.11,1.67-1.36.71-.29-6.68-6.85L579,767.81l-3.88-.34,3.53-2.54,16.65,4,.79,1,.54,1.14.58,1,3.39,2.06,1.81-.08,1.74-1.68-1.29.1-1.17-.21-1.12-.69-1-1.16,1.41-2,.87-.76,1-.59-2.21-1.85,3-1,3.9,1.45,1.5-.09,2.26.1,2.58-5-4,2.06-2.09.07-.83-1.63.93-3,1.84-1.51,3.61-1.6-2.19-1.53-3.34-.62-3.48.33-2.49,1.32.89-4.42-1.19-2-2.19-.58-3.12-.14-1.09.43-1,.59-.85,1.24-4.15-1,3.39-2.71,1.21-2.18-.39-3.68,7-4.62,3.52-3.67,2.64-4.19,2.17-5.32,1.1-1.39,1.94-1,2.47-.53,4.9,1,2.07.09L619,719.25l-.93-.84h-.9l4.67-3.63,2.46-1.17,2.67-.37L642.08,718l2.6-.38,2-3.11,1.28-2-5.1,2.67-2.6-1.37.06-1.59,1.06.2.91-.44,1.81-1.36.11-1.11-.16-.33h-.28l-.3-.33h.69l-20.11-2.08-9.56,1.83-8.71,7.4-.46.94-.44,1.42-.59,1.57-1,1.39-1,.59-2.17.7H599l-1.8.72-5.2,3.43-1.65,2-4.4,3.36-5.25-.88-9.83-4.3L571,725l4.83-2.63,4.61-3.92,4-5.07,2.45-1.48,2.34,1.54,2.13-2,5-1.36,2.21-1.49-9.87-1.41-3.07.81-2.24,1.49-1.74.4L580,708.57,578.15,704l1.63-2.31.39-3,.21-3.65,1-3.93.77-.28.86.84.75.19.79-4.42.68-2,1.61-3.59.26-2.7,2.9-2.41,12.73-6,6.6-.34-.42-2.25-1-1.32-1.35-.54-1.59.25.07-1.59,2.1-1.82,4.46-5.54,3.77-1.59,1.9-2,1.1-.91,1.48-.26,4.63.51-.64,4.6,2.19.89,2.84.12,1.29,2.76,1.33,1.81,9.17,1L638.9,663l-3.88.32-1.89-.71-1.54-1.81-2.26-4.08-1.93-1.35,4.59-1.72.07-1.59-11.37-.47.08-1.91,6.47-3.55,2.14-2.14,1.83-.4,8.64,1.78.08-1.91-8.48-2.25h-2.7l-7.34,6.39-2.81.2.08-1.75,3-2.58,1.14-1.86.75-2.52-4.6,4.58-1.33.74-1,1.23-1,6-1.42,1.21-1.13.75-4.77,4.25-5.84,2-1.77,1.35.53,3.53L598,663.5l-3.12.66-6.69,5.27-2.78,3-1.8,1-1.71-.88-1-2.44.26-2.54,2-5.64-2.33.68-1.2,2.81-.5,4-.23,4-.46,1.09-2.91,4.8L575,681.7l-.09,1.75-.25,1.58-1,1.39-4-.2-.66.92-.46.93-1,.75-1.12.42-.9.11-1.74-.88L562,686.16l-1.55-3.43-.78-4.18-1,1.54-.91.91-.92.59-1.08.26,1.74-3.1,1.54-3.91.65-4-1-2.92.46-.3,1.13-1.38-.81-1-.86-.68-.94-.37-1.06,0,.49-.77,1.27-2.64.08-1.59-5.29,3.55-3.2,1.43-2.38-.44-1.86-3.13-.56-4.34.62-4,1.68-2.62.08-1.59-1.86-.42-1.3-2-.84-2.28-.56-1-1.36-.87-1.51-1.84-1.37-2.47-1-2.29,2.69,1.42,2.71,3,2.8,1.9,3-2.08-2.35-.13.83-2.83,1.16-1.85,1.36-1.2,1.55-.87-1-1.49-.46-.34.09-1.75,13-5.7,3.37-4,.09-1.75-7.1,5.54-3.74,1.72-3.54.61-3.08,2-3.56,3.48-3.22,2.06-2.08-2.5,1.49-1,3.29-4.13,2.37-2.27,1.35-1.68,1.23-2.65-.76-1.79,1-.43.65-.76,1.54-2.15-2.33-3L546.87,609l-7-.06,1.75-3.41-2.24-.12.93-2.66,2.27-4.82,1.11-3-1.13.26-1,.9-1,1.7-.87,2.18-.55-2.42-.83-1-1.07.26L536,598.06l-.1,1.75-5.9-2.09-1.74.7-3.42,3.48-1.84.69-.11,1.91.84.21,2,1.71-10.18,1.33-2.5-2.06,2.56.47,1.3-.08,1-1.06-.26-1.45-1-2.13-1.24-2-.9-.85-11.59-.68,1.61,2,5.52,3.84-.1,1.75-2.91-.33-4.88-4.91-3.09-.67h.75l-13.64-2.11-13-.82-15-2.09-5.91-7.25-6-.73-10.72,1.66-.11.63-2.14,3.36-.82,1.06-1.23,1L430,595l-1.34.22-12.41-4.88,1.23-1,1.37-.54,1.38-.22-1.78-.77-4.36,1.92-3.6,4-.85,5-2.48,5.88L404,606.94l-8.13-.29-2.39.46-5,2.33-2.23.15-7.55-5.21-1.5-2.67-1.51-.76-1.07-1.2-.09-4.48L374.1,593l-4.1-7.82-1.7-4.29-1.3-4.42-2.11-11,.86-1.85,2,2.4,2.13-.79,4.39-4.44,2.17-1.26,12.08-2.42,2.27.49,8.33,6.38,11.8,3.11,1.07-.72,2.22-3,1.13-1,4.47.48,1.19-1,4.4-6.07,4.58-1.11,9.71,2.44.13-1.91-.55-.84-.28-.82-.15-.81-.33-1.14H443l1.43,1.37-1.08,4.4,1.35,1,1-1.21,1-1.69,1.2.24.24,2.41L448,561.7l.42,1.79,2.19-2.4,1.58,1.7,2-.82L456,559.7l.84-2.5-.22-2.73-.62-3.39-.33-3.69.57-3.47,3.23-3.93,4.59-.49,8.75,1.85-1,3-1.47,1.82L467,548.29l.24,1,.34,2.58-1.29.08-1,.89-.86,1.7-1,2.17,5.42,9.29-.38-4,.14-3.18.65-2.67,1.21-2.47.75-.59,2.07-.18.92-.58L475,551l.92-3.29.57-1.56,3.25-3.78,3.14-.12,2.76,2.73,2.2,4.76,1.88-2.6,2.36-1.61,6.75-1.18,6.72-4.06L504,539l-8,.64.13-2.07,4.62-.68,8.59-7.94,4.32-.86-.67,1.08-.84.59,1.91.75,1.74,1.38-.28,1.9-.09.31h.07l.11,1L514,537.4,510.6,539l-1.3,1.52,1.43.4,1.82,0,1.89-.69,1.66-1.34.41,5.13.79,2.12,3.53,2,4.59,4.73,1.77.9.09-1.59-1.29-1-1.15-1.66-2.38-4.92,3.14-3.65,1.68-1.18h2.19l.39-3.33,2.1-.84,9,1,9-1.75,14.48,3.79,9.45,5.58,1.15-.74,1.76-2.14,1-.75,8.13.4,2.16,1.22,2.24,1.86,2.24,1.06.22-.31,2-1.66,2.73,2.2,12.13-1.52,3-2.26.24-3.18-1.8-2.63-3.26-.78,1.26-3.29,1.32-1.06L612,530l2-1.82,1.5-2.8,5.1-13,.75-8.73-3.28-3.81-4.7.27-3.38,3-.08,1.75h.8l-.09,1.91L593.69,520l-5.54,2.13-30.47-7.59-7.42-6.77-1.13-.7-.51.13L547,508.4l-9.91.89-2.84-1.43-1.9-2.5,1.7-1,3.24-.94,2.56-2.09.76,1.48.78.52,2,.11.1-1.91-2.28-1.88-2.72-.47L533.2,501l1.32-3.75,2.14-3.55,3.9-4.57,5.13-2.11,2-2.12-.08-4.15,1.63-.55,3.83.84,1-.9,3.52-6,3-2.08,12.11-2.72,10.5-7.45,4.12-4.58,7-3.33,2.58-2.59-.25-.33-.27.15-.15-.33.09-1.11,1.58.23,2.48,3.14,1.62.23-.78-4-.44-1.3,6.8-3.51,14.07-3.84,4.14-2.21,2.62-1.48L618,439.89h-3.75l-7.53-2.09-6.41,1.62-2.08-.26,2.27-3.88,2.46-3-3.69-4L598,425.37l-.35-3.84-1.46.89-1.48.57-1.53.25-1.51-.23.46,3.53-1,1.23-1.5-.55-1.08-.85-.84-2.43L586,417.78l-1.28-2.14L585,420l-.44,3.65-1.08,3.13-1.69,2.79-2,2.29-1.14.9-1,.27-.45,1.09-.78,2.35-1,2.34-1.08,1.06-4,.11-1.75-.73L566,434.46l-6-6-4.37-2.62-.48-2.26,2.3-4,2.4-1.63,11.93-1.9,5.12-3.25,2.58-.67,1.24-1,.43-2.69.18-3,.34-2.22,1-1.86,1.25-1.21,2.4-1.8-3.16.64L574.78,410,571,412.72l-3.54,1.41-7.55.24.09-1.75,4.69-3.1,1.47-1.68.1-1.91H564l-1.66,1.35-3,3.67-2.22.68-1.3-1-1.18-1.5-1.86-.42-.1,1.91,1.22,2-.69,2.35-1.65,1.83-6,2.06-1.54-.88-.87-4.51.14-4.3L544,406l.14-3.18L543,398.45l-1.53-9.18-1.11-3.09-1.45,2.31v1.28l-.23,2.86v2.71l1.41,5.5-.11,2.07-.71,2L537,409.25,535.64,411l-1.36.08-1.41-2.47-1.76-5-.87-.37-1,6.64-.93,1.86-1.21.89-1.35-.08-.76-1.16-.74-2.12-2-8.25-.22-4.16,1-4.25,2.68-4.63-.9-1.49-.54.29-.58.92-1,.1L520,385.67l-1.77-.1-.64.28L517,387.4v1.44l.62,5.62.83,3.24,1.75,19.73-1.58,1.5-1.79-.58L515,417.27l-2-.27.1-1.59.73-2.19-.39-1.78-1.15-1.19-1.4-.4-3.59.9-1.13-.39V408l-.9.1-2.66-.32.12-1.91,2.73-2.54,5.13-6.23,2.9-1.1-.88-2.92L511,391l-3.6-2.61-.94,5.68L504,398.74l-2.85,2.38-2.07-1.72-.51-2.9-.29-3.21-.47-2.58-1.06-1-.41,1.73-1,7.92-.46,2.52-2.45,2.72L486,405.75l-3.11,1.56-5.67-3.4-2.92-3.38.57-3.63.1-1.59-3.08,1.55-2.14,4.81-.51,5.71,1.79,3.47-.13,1.91-1.48,1.34-2.67,3.81-1.51,1.34-1.75.36-7-1.27-2.85-1.47-1.69-.44-1.6-.91-1.12-2-1-2.46-.64.11-.7.11-.55.28-1.17,1,.47.35.27.34.65,1.16-3.12,1.06-5.93,4.21-14.61,2-3.13-2.15-.29,3-.53.92-.75.26-1,.89-4.55,6.69-20,4.07-4.91-1-4-3.36.15-1.91.76-2-.31-1.94-.93-1.67L382.26,422l1.9.31.79.54.8,1.18.67-4.74-1.76-2.53-2.48.28-1.35,3.25-2.24-4-15.76-8.15-30.58.61-3.8-1-1.93-4.48,4.92-2.45,2.54-2.18,1.24-2.45,1.5-1.63,6.52-3.43,2.06-2.06.8-3.93.36-4.6.91-3.76,3.47-1.94,2-2.38,1.55-.35,2.65.7,9.8,6.88,2.9.88,1.71,1.26,5.21,7.93,4,2.87,7.27,2.65,1.56,2.52,1.31,3.14,1.66,2.52,3.07,1.84,3.11.08,6.27-2.72-4.85-.21-2.45-.83-1.92-1.27-1.56-2.52-1.24-3.13-1.44-2.7-2-1.28-4.76-6.29-2.48-5.31-3-4.71-1.57-3.8,15.7,4.6,9.9,6.84,3.2,1.36-1.7-4.12-2.6-3.55-2.83-2.61L394.8,371l-5.18-4.08-4.74-2.13-2.17-2.57-3.34-5.54-3.58-9.4-.1-3.2.39-3.16.15-3-.86-3.11,4.78-3.61,4.47.68,42.5,28.49.9,1.18,1.62,4,2.68,2.59.66,1.32.76,4.53-.67,2.83-1.34,2.62-1.14,3.91,1.83,1.09,2.57-1.73,4.76-5.73.34,1.3,1.51,2.34,1.33-2.46,5.63,2,2.62-.62.12-1.75-.87-.7-.39-.51-.65-2.44h1.85l5-3,1.73-.2,1.65.43,1.66-.21,1.58-1.49-12.62.25-5.61-2.15-4-3.15-1.36-1.69-1.65-3.15-.84-2.93L438,355.4l6.75-2.55,1.39.74,1.53,1.54,8.71-.51,2.89-2.36,2.23-.49L466,354l2.24.31,2.3-1.92-1.3-1.38-.62-.52-.88-.06.11-1.59,5.2-3.16,1.63-1.81-5.84.57-3.42,1.2-4.79,3.83-28.33-2.63L426.87,344l-3.4-3.76-5.7,1.65-1.19-1.21-1.24-2.65-5.6-7.45-2.86-7.09-1.6-8.59,1-7.75,4.83-4.74h2.09l5.63,4.1,7.69,2.33,1.86,1.41,3,4.37,1.83,1.73,2,.46,6.74-1.59,12.57,6.15,4.32.3,7.07,6.07,4,2,3.77-1.66-8.5-3.45-2.6-3.67-8.63-1.39-2.59-1.78L446.77,313l-10.66-3.32-2.26-2.08-5.11-8.2-2.77-1.8-1.22-2.48-2.2-1.12-4.41-5-3.81-6.36-.78-2.14.6-7.94.89-4.09,1.78-2.9,4.41-1.26,5.29,1.67,18,12.81,5.41,2,3.87-2,.21,4,1,3.59,1.65,2.51,2,.94.11-1.59-1.56-2.82-2.65-8.17-2-1.9-2.32-.64L445.72,272l-2.45-.66-1.09-1-2.85-4.52-5.69-6-3.12-5.18,3.56-2.61,9.1-.14,6.78,1.6,8.68,8.27-2.28-2.55-3.62-7-2.25-1.6-10-.56-2.32-1.93.14-1.91,1.13-1.83,1.68-2.27,1.9-1.78,1-.4.76-.27h4.33l1.71-1.32.4-3.33,2.43-1.11,16,5.9,10,8.5,3.07,1,2,1.73,2.35,4.14,1.5,4.73-.67,3.79.35,5.61,5.65-7.78,2.09-.82,1.09.71.9,1.65,1.22,3.27,1.73,2.82.14,1.45-.2,3.66.29,4.17V281l-.8,1.87-2,3.23-.45.45-5.23,8.6-1.2,2.48h.65l2.5-3.51,6.14-6.63,2.32-3.36.71-2,.6-2.36.8-1.87,1.17-.57,1.18.87.69,2,1.15,6.13-.55,1.08-.28.78,1.58-1.34,1.84-2.44,1.74-1.33,1.48,1.84L513,290.79l-2.82,5.73-3.32,4.74-3.59,2.17,4.2-.06,2-.84,1.89-2.12,2.41-6.4,1.73-3.88,1.21-.72,1,7.08-1.1,7-1.31,6,.33,3.69L520,300.94l.15-5.74.81-6.49,1.24-6.15,1.36-4.23,1-1.86.61-.44,7,1,.66.84v3.51l.55,2.27.83,1.32,3.73,4.52,3.38,7.37.56,1V299l-.77,5.54-.62,2.84-.78,2.35-.88,1.23.21,1,.42.66-6.26,14.8-1.38,4.71.62,2.27,1.4-.4,3-9.72,8-18.37,1-5,.11-1.91,2.26-.35,1.29,2.62,1,3.72,1.45,3.27.74.2.65-.6H554l.72,2.27-.18,2.06-.67,2-.19,1.74,1.37,1.19.26-1.26.62-2.52.82-1.87.72.52-.1,1.75-1.19,8.71-1,2.82-2.71,4.8-1.17,2.81-.09,1.59,4.16-2,4.84-14.09,3.49-2.52.1-1.91-2-2.5-.94-5-.45-5.61-.66-4.66-1.32-3.74-1.78-3.61-2.06-2.66L552.43,285l1.25-3.28.63-3.16.77-2.83,1.62-2.46,2-.85h2.07l1.89-.86,1.38-3.43-2.13-.11-5.28,2.43-2.07,1.8-2,.69-8.47-4.94-5.46-6.37-24-12.28-6.78-8.24-3.6-11.56,5-2.88,15.6-3.2,3.23.35,10.8,4.13,2.85.16,1.07.38.51,1.15.25,1.29.43,1,2.6,3,1.46.4,1.49-1.35-.65-1-.42-1.14-.74-3.39,5.1.29,2.67-.65,4.75-3.41,5.18-.2,2.47-1.78-14.15,1.47-4.17-2.47-1.89-2.34.43-.29,1.67-.07,1.76-1.66,1.2-2L554.4,214l1.75-.86,1.69.25.1-1.91L555.73,210l-1.37.4L550,214.61l-5.41,2.57-6.12.29-4.77-1.39-.87-.53v-2.87l1-1.7,2.29-2.42.46-1.89.87-5.06L538,200l1.5-1.51,5-1.94-4.52.7-3.53,2.35-8.66,8.27-2,1-4.33.54-1.18-1.67.91-3.3L523,201l1.52-1.82.11-1.91-3.6,1.22-1.84,1.32-1.9,2.28-4.57,7.06-.84.59-2.67,2.71-16.07-5.33L489,204.5l-2.56-4-1.56-1.7-.59-1.8,1.52-2.13,4-.06L494.7,197l4.44-.35,2.74-7.81-2.87-.66-3-2.72-2.76-3.85-1.94-4.12,3.32-2.34,3.11,1.8,3,3.07,3,1.79-.58-2.91-.47-1.15L502,176.3l11.37-1,.72.2.54,1.15.66,3.23.58,1,2.16.77,1-1.85-.2-2.57-1.6-1.54-1.65-.74L510.84,170l10.23.63,1.76.91,3.4,3.88,4.53,2.19,3.43,4.67,2,1.55,2.66-.16,4.3-4.7,2.52-1.61-.18-.81-.26-2.73,4.12-1.2,3.15,2.89,3,4,6.91,3.89,1.58-.23.62-3.16-.6-2.43-2.6-2.06-.62-2.59,3.24.81,3,3.35,2.15,5.22.6,6.09,1.62,3.91,8.12,5.05,2.36,5.07-1.6,2.47,1.24,1.5,4.32,1.34-.09,1.75-1.85-.73-.86,1.07-.23,2.06-.15,2.86.45,1.3.81,1.8.1,1.92-1.7,1.83-.1,1.91,1.26,1.82,1.49-1.52,1.7-1.19,1.77-.71L590,222l.91,1.16.75,1.79,1,.84.89-1.71,1.7-3.27,1.69-.4.84,1.8L597,226l7.41-.44,1.85.88,1-1.71h.9l.83.84.76,1,.53,1,3.44,6.22-1.08,1.7-6.31,5,1.3,1,1.39-.73,1.44-1.21,1.61-.72,1.5.39,4.66,4.36,1.2,2,.8.83h1l2.15-1.18,1.14-.27,6.34,3.79-.33.94-.59,2.37,1.75,1.19.9,3.07-.17,3.18L631,260.87l.32,1.61.76,2.58.11,1.28v4.14l.34,5,.6,1.78,1.37,1.33,1.5-.25,1.89-1,1.8-.4,1.24,2v3.51l-1,3.14-1.39,3-1,2.67,1.37-.26,1.7-1.2,1.45-1.37.67-1.41.2-4.14V280.7L641,275.51l1.35-1.38,3.76-1.76,4.66-.13.74.83L652,275l.38,1.93.38,1,1.9,1-1.34,1.86L651,282.62l-1,.28-.78,2.36.38,1.93,1.87,3.58L654,293.1l11.42-2.74,3,.91,2.41,1.52,1.77,3.09,1.1,5.46-14.81.88L656,304.5l-11.16,2.74-1.56-.06,1.77,3.74,2.94-.36,6-3,9.87-1.37,3,1.87-1.35,2.18-4.63,3-.07,1.75,11.42-2.76,2.67,2.49,1.34,5.15.16,4.47-1.39,3.3-3.2,1.8,4.89,3.68-.07,1.91L671,347.15l-2,3.27-3.24,2.75-10.85,3.73-.08,1.91,2.28.41,4-.64,1.75.54,5.49,3.87,1.61,1.65-9.07,10.18-3.21,2.27-14.3-1.2-1-1.16-1.63-3.41-.43-.66-2-1.68-1.76-3.42-1.12-3.71-.07-2.23-2.49-3.77L629.72,354h-3.37l-3.15,1.62,2,.41,4.83,3.56,1.6,1.66.2.81,2,4.23.41.34.16,3.19-.41,2.06-.93,1.71-1.42,1.85,1.63,1.82.83,1.47.34,1.29.42,3.36,1.1,2.12,1.21,1,.49.82,1.84,1.67,17.69.23,3,1.87,1.25,3.39-1.16,2.83-5.83,8.54-2.23,2.3-.07,1.75,5.25-2.67,6.75-5.8,5.61-1.07,1.93,11.23-2.58,9.31-5.65,8.71L657,436l-5.21,1.87-.07,1.75,10.91-3.73,4.28-3.66,2.38-.71,2.36.56,1.5,1.49,2.83,5.2,3.94,4,1,2.58-.94,4.27,1.46,1,.17,1.92-.36,2.7v3.19l.43,5.75-.1,4-.67,5.07v2.55l3.7,13.67,1.38,2.6-.45.46-.11.16V493l-.26.63,2,2.46,2.07,4.21,1,5.13L689,509.82l0,1.59,1.72,1.65.69-.61,1.13-.76,1-3.63-1.37-6.26-.16-4.15-.27-1.92-.85-2.58-1.77-4-.76-2.25,1.66-2.81.66-.78-.29-2.24.72-1.57,1.15-1.39.85-1.57.73-4V469l-1.59-19.49-.16-8.13,1.48-3.62,3.25,2,2.14,4.53,2.9,11.09,3,6.31.37,1.92.68,1.77,3.62,1.39,1.46,1.32.86-1.89-2.61-6-2.28-8-1.66-8.5-.63-7.51-.21-6.06.1-4.14.55-3.81.51-1.42,1.36-2.35.53-1.26,1.32-7.45.41-1.58,3.42-6.27,12.25-9,6.75-8.57,2-1.06,2-.58,1.51-1.07.43-2.54,1.42-.12,1,.82,1.89,2.92.46.17,1.39-.28.36.17.24,2.24-.32.79-.53.15-.28.63-1,10.17L742,402l.76,3.84-1.4,4.26-.18,4.46,1.08,2.74,2.4-.89-1-4.8.27-4.13,1.43-1.88,2.45,2.13.88,1.61.07,1.12-.1,1.43.35,3-.48,1.9-.28,1.75v1.43l.37-.15,2,1.32.61.65.68,2.09.35,1.76.49,1.61,1.15,1.62,1.17,1,1.27.67,1.32.19,1.36-.13.37-.31,2-1.39,1-2.69.62-4,1.38-5.38-1.2-1.14-1.54-3.54-1.2-.67-3.67.23-1.74-.52-1.44-1.79,3.56-1.35,3.36-.08,1.43-.6,3-2.32,1.53-.44,1.3,2.42L767,418.48l1.47,3.7-.31-4.15,1.06-3.16L770,412l-1.2-3.85,1.29-3.48,3.53-4.86,1.68-3,.43-1.9.22-4.14.57-1.9,1-1.09,1.93.2,2.21-.59-2.35-.69-1.38-3.06-.12-3.67,1.48-1.72,1.4-.93,1.07-2.53.73-3.65.31-4.3-.72-6.54-1.94-6.09-2.48-4.83-2.46-2.76v-1.91l2.86-2.49-.89-7.5-2.56-8.34-3.77-9.16-.7-2.4-.48-8.93-.55-4.31L768,298.37l-1.46-2.74-1.76-2.27,1.68-2.51,1.54-3.79.58-4.13-1.28-3.38,2.14-1.86,2.5-.42,4.32.73,1.08-.46,1.92-2.19,1-.78,1.4-.45,3.67.55,2-1.08,3.84-4.71,1.67-1.08,5.06,2h1.13l1.19.18,2.26-2,.46,5.43,1.3,3.21,2,2.11,2.43,1.63-.74,1.9,1.08,1,.74,2.08.91,3.84L812,293l4.28,8.51.58,2.24.33,2.08.53,1.6,1.25,1.13-.4.79-.65,1.9-.37.79,2,3.53,2.66,2.75,1.9,3.37-.29,4.61,1.86,1.94,5.65,1,4.17,2.76h1.27l1.14.17,1.28,2.25.61.64,1.34-.14.55.33.66,1.92.24,1.76.14,1.91.31,1.6,2.26,5.12.6,1.92.42,3.19.52,7,.69,2.87,2.23,3.21,5.39,1.64,2.1,3.2.7-5.41.77-1.9,3.24.35.39.48,1.46,2.24.75.64,1.17.49,3-.14-1,.47-.76,1-.34,1.11.38,2.07H868l1.94-1.26,1.12-1.43,1-3.66,1.23-7.32.8-7.48.11-6.37-.68-6.06L872,332l-2.9-8.94-.28-1.59-6.12-7v-1.75l.47-2.54.89-1.9,1.31-1,1.92-.46,2.09-1.26,2-2.06,1.58-3-1.12-1.44-1-2.08-.79-2.55-1-5.42v-1l.46-.63,1-2.06,1.89-2.38,6-3.15,13.94-2.32,4.87,3.84,2.58.48-.22-4.3.81-1,.84-.64.91-.32,1,.32-.29,1-.43,2.55,2.1.8L908,284l2.13.64-1.29-1.28-1-1.43-.68-1.91-.55-2.39h.71V276l-.58-.48-1-1-.58-.48v-1.59l1-1.75,1.14-6,.68-2.71,1-1.59,3.58-3.18,9.3-3.51,3.28,1.59-.73,8.28,2-.8,1.38-2.23,2.37-5.58-.49-2.55-.29-1,1.89-1.6,2.8.47,5.22,2.69-.79,3.83-1.75,5.58-.31,3.82,1.16-.16,7.45-7.83,3.06.62,2.53,3.17,2.15,3.33,1.94,1.58,1,1.75-1.17,4.15-2.94,6.55,1.33.15,1.48-.49,1.42-1,1.06-1.44,1.19-1,1.39,1.11,1.34,1.58,1.17,1,1.63,1.9,1.07,4.45.85,5.25,1.16,4-1.89,7.66-.78,4.62.27,1.91,7.52,1.85L976.7,314l7.78,1,1,.79,1.16,2.06,1.8,4.12L991,324l.84,2.7.55,3,1,3.33.21,1.11.37.79.85.31,1.92-.34,1,.31.73,1,1.08,3.17.32,2.07-.14,7.17.46,2.86,2,4.59.61,1.9.11,10.83.38,1.59.93.78,3.14,4.58,5.06,5-.51,3.51.59,4.61,1.33,3.64,1.72.61,1.3-3.36-.17-4.62-1-4.61-1.13-3-.87-1.1-2.22-1.56-.64-1.11-.5-2.86.31-1.6.54-1.28.34-1.44-.1-2.39-.25-1.75-.12-1.75.35-2.87.54-1,1.77-1.62.51-1,.55-4.79-.39-4L1011,333.3l-.08-.8V329l-.27-1H1010l-.74.33-.56-.31-2.14-4.43-.79-.94-.1-.32-.17-.48-.3-.47-.56-.31-.51.64-.85,2.4-.35.48-1.45-.94-3.27-4.1-1.09-1.9.93-3.67-.43-3.34L996.29,308l-3-1.88-2.17-5.39-1.36-2.37v-1.75h.78V294.7l-2.93-7.14-1.42-11.93.42-12.11,2.72-7.36,1.34-.65,9.35.53,1.43.78L1004,259l1.46.46,4.44-.54,1.62.45-.21,1v.32l-.06.16-.48.48,3.93,2.17,10.21-2.87,4.48,2,.87,1.9,1.18,5.08.94,1.89,1.14.62,4.22-.71,1.83,1.08,3.45,4.71,2,1.08,1.41,1.25,4.23,6.29,1.35,2.84,1.83,7.29,1.27,3.48,3.42,2.48,1.84,2.51,2.81,5.2,3.78,10.59,1.61,3.31.31-5-1-3.8-1.47-3.31-1.16-3.8,2,.11,2.39-.69,2.31-1.33,1.84-1.8-9.59.7-2.61-2,16.66-.71,1.23,1.24.78,2.85,1.61,4.74h.65L1083,309v-2l-.43-1.74-1-1.57V302.1l1.33-1.15,1.1-2,.58-2.72-.41-3.34,1.63-2,.61-1.29.5-1.92V286.3l-.36-4,.11-3.35,1.2-3.54,2.56-3.57,3-2.63,2.56-1,1.09-1.46.53-3v-3l-.45-1.26-1.18-.76.46-1.92,2-3.56,2.75-3.1,6.27-2.57,1-4.49,2.81,2.47,10.45.8,2.79,1.82.1.16,2.17,4.39,4.38,10.85-.08,1.44v.48l.08.48.11,1.27h-1.45l.06,1.75,1.26,1.07,1.34.43,1.29-.2,1.18-1.47-.71-.14-1.57-1.54,3.61-3,13-4.11,3.88,1.14-1.68-.1-1.62.7-1.54,1.17-1.42,2,1.36.91,2,3.6.73-.35,1.91-5.17,1.18-2.12,1.2-.68,3,2.76,2.32,4.38,2.44,3.89,3.45.67-.06-1.59L1163,269l-1.72-1.85-1.2-1.87-.93-3.31-.13-2.55-.49-1.89-2-1.84,4.6-3.68,7-2.65,4.17-2.87,2.41-.09-9,5.77-2.75,3.29,9-4,2.2.07,2.6,2.13,4.3,6,2.73.37-.08-1.91-3.83-3.67-1.95-2.79-.92-2.83.26-4,.93-3.38,1.47-2.61,1.76-1.67v-1.28l-.17-.31.3-1.29.82-1.95.6-2.58.16-2.4-.42-4-.79-2-1.07-1.71-1.79-3.91-.54-.78-.6-.46-.65-.13-.58-.93-.28-2.22-.19-2.38-.24-1.27-2.94-2.27-.78-2,.55-4.65h-1.4l.32-.81.6-1.94.34-1-.76-.61-.56-1.09-1.06-3.31,2.17-.08-.07-1.75-1.88-2.32-2.3-8.2-3-3.23.78-3.7,2-3.11,2.2-.56.67,1.57.14,1.91.35,1.58,1.16.27.24-1.13.31-2.56.67-2.42L1175,165l2.84-1.39,1.66.09.12,2.07-.39,2.89.45,2.37.93,1.72,1.11.75-.24-1.27-.15-1.27-.14-1.11-.44-1.42,1.59-.7,2.91-2.67.93-.52,1.58,1.37,1.19,1.86,1.31,1.54,1.79.24-1.36,1.65-.66.35,1.85,1.52,1.89-.4,2-1,.59-.34-.08-1.91,1.07-1.8.94-2.59,1.14-1.64.22.63.83,3,1.23.42,1-1.64.65-4.81.83-1.31,2.2-1.22,2.82-.13,6,2.28,1.15-.69ZM770.1,966.38l-1.18,1.73-.8-1-.49-2.4-.71-1.93-.83-3,.42-2.86,2.3-1.07,2.75-.26.2.48-.6,1.26.44,1,.55,3-.91,2.69Z"/></g><path class="cls-3" d="M397.4,477.23q-14.59-15.65-29.18-31.14-.11,3.14-.22,8.42t-.11,14.36q0,2.36.06,5.84t.11,7.29q.06,3.82.17,7.74t.22,7.29q.11,3.37.22,5.89t.22,3.42a31.46,31.46,0,0,0-3.93-.22,35.26,35.26,0,0,0-4.15.22q.22-1.12.5-4.15t.5-7.24q.22-4.21.5-9.15t.45-9.87q.17-4.94.28-9.65t.11-8.42q0-10.77-.06-18.52t-.28-11.56h1.79l14.64,15.88q7.8,8.47,15.49,16.72T409.35,476q6.9,7.35,12.06,12.51V473.25q0-11.78-.17-23t-.73-21a16.1,16.1,0,0,0,3.81.56,15.61,15.61,0,0,0,3.59-.56q-.23,2.47-.5,7.41t-.56,10.55q-.28,5.61-.5,11t-.22,8.64v6.73q0,3.82.06,8t.11,8.36q.06,4.21.11,7.86t.06,6.34v3.7H424.9Q412,492.89,397.4,477.23Z"/><path class="cls-3" d="M467.25,469.26l-4.83-8.08-5.55-9.31q-2.92-4.88-5.55-9.31t-4.77-8q-2.13-3.53-3.25-5.33,1.57.23,3.09.39a28.27,28.27,0,0,0,6.17,0q1.51-.17,3.09-.39,5.05,9.76,10.27,19.19T477,468.08q2.58-4,5.39-8.87t5.61-9.87q2.8-5,5.39-10.16t4.83-9.93a17.34,17.34,0,0,0,8.75,0q-5.39,8.19-9.65,14.81t-7.52,12q-3.26,5.39-5.72,9.71t-4.26,7.8q0,4.15.06,8.87t.17,9.26q.11,4.54.28,8.42t.39,6.23q-2.58-.23-5.5-.22t-5.5.22q.67-5.83.79-14.14t.11-17.39Q469.44,472.91,467.25,469.26ZM489,405.8a4.3,4.3,0,0,1,2.41.9,3.07,3.07,0,0,1,1.29,2.69,4,4,0,0,1-1.35,3.2,26.21,26.21,0,0,1-2.69,2.08l-16.5,10.55h-4.71L484,408.5Q486.61,405.8,489,405.8Z"/><path class="cls-3" d="M523.14,495.86a18.47,18.47,0,0,0,3.7,3.76,18.78,18.78,0,0,0,11.61,3.82,16.59,16.59,0,0,0,6.68-1.29,14.88,14.88,0,0,0,8.25-8.64,17.83,17.83,0,0,0,1.12-6.34,12.06,12.06,0,0,0-2.64-8.19,21.82,21.82,0,0,0-6.56-5,77.12,77.12,0,0,0-8.47-3.7,43.6,43.6,0,0,1-8.47-4.21,22.43,22.43,0,0,1-6.56-6.45q-2.64-3.93-2.64-10.55a21.31,21.31,0,0,1,1.68-8.58,18.7,18.7,0,0,1,4.88-6.68,23.09,23.09,0,0,1,7.69-4.38,30.45,30.45,0,0,1,10.1-1.57,30,30,0,0,1,9.31,1.29,23.21,23.21,0,0,1,7.29,4,24.2,24.2,0,0,0-1.68,4q-.67,2.13-1.35,5.39h-1.35a28.88,28.88,0,0,0-1.51-3.42,13.15,13.15,0,0,0-2.58-3.42,14.49,14.49,0,0,0-3.87-2.64,12.48,12.48,0,0,0-5.39-1.07,16,16,0,0,0-5.78,1,13.83,13.83,0,0,0-4.6,2.86,12.63,12.63,0,0,0-3,4.43,14.54,14.54,0,0,0-1.07,5.61q0,5.27,2.64,8.3a22.52,22.52,0,0,0,6.56,5.11,64.73,64.73,0,0,0,8.47,3.7,47.68,47.68,0,0,1,8.47,4,21.66,21.66,0,0,1,6.56,6.06q2.64,3.7,2.64,9.88a25.89,25.89,0,0,1-1.85,9.76,23,23,0,0,1-5.39,8,24,24,0,0,1-8.64,5.27,33.94,33.94,0,0,1-11.61,1.85A29,29,0,0,1,524.49,506a30.71,30.71,0,0,1-7.24-4.21,26.53,26.53,0,0,0,1.4-4.66q.39-2.07.73-5.33h1.35A22.4,22.4,0,0,0,523.14,495.86Z"/><path class="cls-3" d="M581.83,492.21q.28-7.18.28-14.59v-19.3q0-7.41-.28-14.53t-.62-14.53q1.46.23,2.81.39a21.55,21.55,0,0,0,5.39,0q1.35-.17,2.81-.39-.34,7.41-.62,14.53t-.28,14.53v6.17c0,.6.22.9.67.9s.82-.34,1.57-1q3.93-3.37,8.25-7.63t8.7-8.87q4.38-4.6,8.64-9.37t8.19-9.26q1.23.23,2.36.39a15.09,15.09,0,0,0,2.25.17,21.66,21.66,0,0,0,2.69-.17q1.35-.17,2.69-.39-3.93,3.37-8.87,8t-9.93,9.43q-5,4.83-9.54,9.48t-7.57,8.14q9.09,10.21,18.35,20.82t18.8,21.27a25.15,25.15,0,0,0-3.37-.22h-6.45a21.53,21.53,0,0,0-3.09.22q-4-4.6-8.92-10.55t-9.54-11.5q-4.66-5.55-8.42-10t-5.55-6.23q-.9-.9-1.35-.9c-.37,0-.56.22-.56.67v9.76q0,7.41.28,14.59t.62,14.14q-2.58-.23-5.5-.22t-5.5.22Q581.55,499.39,581.83,492.21Z"/><path class="cls-3" d="M650.28,451a35.47,35.47,0,0,1,8.64-12.62,37.24,37.24,0,0,1,13.3-7.86,55,55,0,0,1,34,0,37.24,37.24,0,0,1,13.3,7.86A35.5,35.5,0,0,1,728.16,451a48.37,48.37,0,0,1,0,34,34.62,34.62,0,0,1-21.94,20.31,58.51,58.51,0,0,1-34,0A34.62,34.62,0,0,1,650.28,485,48.37,48.37,0,0,1,650.28,451Zm67.61.9a30.64,30.64,0,0,0-6.56-11.22,26.19,26.19,0,0,0-9.87-6.56,36.16,36.16,0,0,0-24.46,0,26.17,26.17,0,0,0-9.87,6.56,30.61,30.61,0,0,0-6.56,11.22,56.18,56.18,0,0,0,0,32.21,30.58,30.58,0,0,0,6.56,11.22,26.13,26.13,0,0,0,9.88,6.56,36.16,36.16,0,0,0,24.46,0,26.14,26.14,0,0,0,9.88-6.56,30.61,30.61,0,0,0,6.56-11.22,56.2,56.2,0,0,0,0-32.21Zm-43.76-40.6a5.69,5.69,0,1,1-1.68,4A5.51,5.51,0,0,1,674.13,411.3Zm22.11,0a5.69,5.69,0,1,1-1.68,4,5.51,5.51,0,0,1,1.67-4Z"/><path class="cls-3" d="M749.48,443.79q-.28-7.12-.62-14.53,2.69.23,5.44.39t5.44.17c.9,0,2,0,3.25-.11s2.56-.13,3.87-.17,2.56-.09,3.76-.17,2.21-.11,3-.11q1.68,0,4.15.11A34,34,0,0,1,783,430a29.64,29.64,0,0,1,5.44,1.68,15.54,15.54,0,0,1,4.88,3.25,16,16,0,0,1,3.54,5.33,20.43,20.43,0,0,1,1.35,7.91q0,7.41-3.2,12a23.2,23.2,0,0,1-7.86,7.18,31.08,31.08,0,0,1-9.87,3.48,55.19,55.19,0,0,1-9.26.9q-2.58,0-4.71-.06t-4.38-.28v6.17q0,7.41.28,14.59t.62,14.14q-2.58-.23-5.5-.22t-5.5.22q.34-7,.62-14.14t.28-14.59v-19.3Q749.76,450.92,749.48,443.79Zm17.45,23.85a34.54,34.54,0,0,0,7.18-.79A19.15,19.15,0,0,0,780.9,464a15.71,15.71,0,0,0,5-5.72,23.45,23.45,0,0,0,.62-17.22,11.06,11.06,0,0,0-3.76-4.71,14.65,14.65,0,0,0-5.89-2.3,45.37,45.37,0,0,0-7.86-.62H759v33.33a34.61,34.61,0,0,0,7.93.87Z"/><path class="cls-3" d="M873.31,441.15a114.66,114.66,0,0,0-.56-11.9q1.23.23,2.36.39a15.09,15.09,0,0,0,2.25.17,12.11,12.11,0,0,0,3.37-.56q-.34,3.93-.67,9.37t-.56,11.67q-.23,6.23-.45,12.79t-.34,12.74a40.59,40.59,0,0,1-2.3,13.47,28.23,28.23,0,0,1-6.23,10.1,25.91,25.91,0,0,1-9.93,6.28,39.66,39.66,0,0,1-13.52,2.13q-16.83,0-24.46-7.63T814.64,476q0-5.27.28-9.37t.28-8.36q0-9.43-.22-16.72t-.45-12.34q1.35.23,2.92.39a27.49,27.49,0,0,0,2.92.17,17,17,0,0,0,2.41-.17q1.18-.17,2.41-.39-.23,2.47-.45,6.45t-.45,9q-.23,5-.34,10.88t-.11,12.12q0,3.82.11,7.91a55.13,55.13,0,0,0,.79,8,33.18,33.18,0,0,0,2.19,7.41,18.24,18.24,0,0,0,4.32,6.17,19.84,19.84,0,0,0,7.07,4.15,31.78,31.78,0,0,0,10.55,1.51,26.48,26.48,0,0,0,10.38-1.79,19.77,19.77,0,0,0,6.9-4.71,21.56,21.56,0,0,0,4.21-6.73,38,38,0,0,0,2.19-8,62.32,62.32,0,0,0,.79-8.3q.11-4.15.11-7.63Q873.42,449.79,873.31,441.15Z"/><path class="cls-3" d="M940.75,477.23q-14.59-15.65-29.18-31.14-.11,3.14-.22,8.42t-.11,14.36q0,2.36.06,5.84t.11,7.29q0,3.82.17,7.74t.22,7.29q.11,3.37.22,5.89t.22,3.42a31.48,31.48,0,0,0-3.93-.22,35.26,35.26,0,0,0-4.15.22q.22-1.12.5-4.15t.5-7.24q.22-4.21.5-9.15t.45-9.87q.17-4.94.28-9.65t.11-8.42q0-10.77-.06-18.52t-.28-11.56H908l14.64,15.88q7.8,8.47,15.49,16.72L952.71,476q6.9,7.35,12.06,12.51V473.25q0-11.78-.17-23t-.73-21a16.12,16.12,0,0,0,3.82.56,15.61,15.61,0,0,0,3.59-.56q-.23,2.47-.5,7.41t-.56,10.55q-.28,5.61-.5,11t-.22,8.64v6.73q0,3.82.06,8t.11,8.36q.06,4.21.11,7.86t.06,6.34v3.7h-1.57Q955.34,492.89,940.75,477.23Z"/><path class="cls-3" d="M1055.1,506.35a20.83,20.83,0,0,0-3-.22h-5.95a20.8,20.8,0,0,0-3,.22q-.79-2.58-2.13-6.23t-3-7.63l-3.31-8.08q-1.68-4.1-3.14-7.8-3.59-.11-7.29-.17t-7.41-.06q-3.48,0-6.84.06t-6.85.17q-3.59,8.75-6.51,16.66t-4.38,13.07a38.49,38.49,0,0,0-8.3,0q9.09-19.64,17.73-39t17.39-39.5h2.13l5.83,14.08q3.14,7.57,6.4,15.32t6.51,15.37q3.25,7.63,6.12,14.2t5.16,11.73Q1053.64,503.66,1055.1,506.35Zm-49.71-34.9q2.92,0,6.06.11t6.06.11q3.14,0,6.28-.06t6.28-.17l-12.46-28.5Z"/><path class="cls-3" d="M1070.53,443.79q-.28-7.12-.62-14.53,3.25.23,6.4.39t6.4.17q3.25,0,6.4-.28t6.4-.28a43.55,43.55,0,0,1,9,.9,21.87,21.87,0,0,1,7.46,3,15,15,0,0,1,5,5.44,19.46,19.46,0,0,1-.56,17.67,22.54,22.54,0,0,1-5.89,6.4,29.12,29.12,0,0,1-7.46,3.93,37.31,37.31,0,0,1-7.24,1.85q1.35,1.68,3.7,4.71t5.27,6.68q2.92,3.65,6.06,7.63t6.06,7.63q2.92,3.65,5.5,6.68t4.15,4.6a25.15,25.15,0,0,0-3.37-.22h-6.62a22.74,22.74,0,0,0-3.25.22q-1.68-2.36-5.11-7.07t-7.58-10.1q-4.15-5.39-8.47-10.72t-7.91-9H1080v8.19q0,7.41.28,14.59t.62,14.14q-2.58-.23-5.5-.22t-5.5.22q.34-7,.62-14.14t.28-14.59v-19.3Q1070.81,450.92,1070.53,443.79Zm12.91,21.38q1.85.11,4.1.11a35.35,35.35,0,0,0,7.24-.79,21,21,0,0,0,6.9-2.75,16.37,16.37,0,0,0,5.22-5.27,15.48,15.48,0,0,0,2.08-8.36,14.52,14.52,0,0,0-1.63-7.24,13,13,0,0,0-4.21-4.54,16.06,16.06,0,0,0-5.61-2.3,29.85,29.85,0,0,0-5.95-.62q-3.93,0-6.51.17t-4.38.39q-.23,6.17-.45,12.23t-.22,12.12v6.4a22.78,22.78,0,0,0,3.42.45Z"/><path class="cls-3" d="M1141.9,443.79q-.28-7.12-.62-14.53,1.46.23,2.81.39a21.55,21.55,0,0,0,5.39,0q1.35-.17,2.81-.39-.34,7.41-.62,14.53t-.28,14.53q0,14.14.11,24.52t.22,18.57q8,0,15.26-.17a144.63,144.63,0,0,0,15.71-1.29,13,13,0,0,0-.56,3.37,10.46,10.46,0,0,0,.56,3q-5.16-.23-10.32-.22h-20.7q-5,0-10.38.22.34-7,.62-14.14t.28-14.59v-19.3Q1142.18,450.92,1141.9,443.79Z"/><path class="cls-3" d="M1263,506.35a20.83,20.83,0,0,0-3-.22h-5.95a20.8,20.8,0,0,0-3,.22q-.79-2.58-2.13-6.23t-3-7.63l-3.31-8.08q-1.68-4.1-3.14-7.8-3.59-.11-7.29-.17t-7.41-.06q-3.48,0-6.84.06t-6.85.17q-3.59,8.75-6.51,16.66t-4.38,13.07a38.49,38.49,0,0,0-8.3,0q9.09-19.64,17.73-39t17.39-39.5h2.13l5.83,14.08q3.14,7.57,6.4,15.32t6.51,15.37q3.25,7.63,6.12,14.2t5.16,11.73Q1261.58,503.66,1263,506.35Zm-49.71-34.9q2.92,0,6.06.11t6.06.11q3.14,0,6.28-.06t6.28-.17l-12.46-28.5Z"/><path class="cls-3" d="M1314.44,477.23q-14.59-15.65-29.18-31.14-.11,3.14-.22,8.42t-.11,14.36q0,2.36.06,5.84t.11,7.29q0,3.82.17,7.74t.22,7.29q.11,3.37.22,5.89t.22,3.42a31.48,31.48,0,0,0-3.93-.22,35.26,35.26,0,0,0-4.15.22q.22-1.12.5-4.15t.5-7.24q.22-4.21.5-9.15t.45-9.87q.17-4.94.28-9.65t.11-8.42q0-10.77-.06-18.52t-.28-11.56h1.8l14.64,15.88q7.8,8.47,15.49,16.72t14.59,15.6q6.9,7.35,12.06,12.51V473.25q0-11.78-.17-23t-.73-21a16.12,16.12,0,0,0,3.82.56,15.61,15.61,0,0,0,3.59-.56q-.23,2.47-.5,7.41t-.56,10.55q-.28,5.61-.5,11t-.22,8.64v6.73q0,3.82.06,8t.11,8.36q.06,4.21.11,7.86t.06,6.34v3.7h-1.57Q1329,492.89,1314.44,477.23Z"/><path class="cls-3" d="M1368.58,443.79q-.28-7.12-.62-14.53,4.26.23,8.47.39t8.47.17q4.26,0,8.47-.28t8.47-.28a49.07,49.07,0,0,1,16.89,2.58,29.47,29.47,0,0,1,11.5,7.35,28.9,28.9,0,0,1,6.57,11.67,54,54,0,0,1,2.08,15.54q0,11.22-3.87,18.91a36.1,36.1,0,0,1-9.87,12.4,36.88,36.88,0,0,1-13.24,6.68,52.9,52.9,0,0,1-13.86,2q-3.82,0-7.52-.11t-7.52-.11h-7.52q-3.7,0-7.52.22.34-7,.62-14.14t.28-14.59v-19.3Q1368.86,450.92,1368.58,443.79Zm10.16,57.62a40.93,40.93,0,0,0,6.4.84q4,.28,8.3.28a53.51,53.51,0,0,0,12.34-1.46,26.77,26.77,0,0,0,11.05-5.5,29.39,29.39,0,0,0,8-11q3.08-7,3.09-18.12,0-9.76-2.41-16a24.43,24.43,0,0,0-6.62-9.93,23.45,23.45,0,0,0-10-5A54.74,54.74,0,0,0,1396,434q-5.05,0-9.43.34t-7.86.79q-.34,5.39-.5,11.28t-.17,12v19.3Q1378.06,489.74,1378.74,501.41Z"/><path class="cls-3" d="M1458.69,443.79q-.28-7.12-.62-14.53,1.46.23,2.81.39a21.55,21.55,0,0,0,5.39,0q1.35-.17,2.81-.39-.34,7.41-.62,14.53t-.28,14.53v19.3q0,7.41.28,14.59t.62,14.14q-2.58-.23-5.5-.22t-5.5.22q.34-7,.62-14.14t.28-14.59v-19.3Q1459,450.92,1458.69,443.79Z"/><path class="cls-3" d="M1492.69,443.79q-.28-7.12-.62-14.53,4.26.23,8.47.39t8.47.17q4.26,0,8.47-.28t8.47-.28a49.07,49.07,0,0,1,16.89,2.58,29.47,29.47,0,0,1,11.5,7.35,28.9,28.9,0,0,1,6.57,11.67A54,54,0,0,1,1563,466.4q0,11.22-3.87,18.91a36.1,36.1,0,0,1-9.87,12.4,36.88,36.88,0,0,1-13.24,6.68,52.9,52.9,0,0,1-13.86,2q-3.82,0-7.52-.11t-7.52-.11h-7.52q-3.7,0-7.52.22.34-7,.62-14.14t.28-14.59V465.17h-5.27q-1.23,0-2.69.06t-3,.17a11.72,11.72,0,0,0,.17-1.18q.06-.62.06-1.18a10.5,10.5,0,0,0-.06-1.12q-.06-.56-.17-1.12,1.57.11,3,.17t2.69.06H1493v-2.69Q1493,450.92,1492.69,443.79Zm10.16,57.62a40.93,40.93,0,0,0,6.4.84q4,.28,8.3.28a53.51,53.51,0,0,0,12.34-1.46,26.77,26.77,0,0,0,11.05-5.5,29.39,29.39,0,0,0,8-11q3.08-7,3.09-18.12,0-9.76-2.41-16a24.43,24.43,0,0,0-6.62-9.93,23.45,23.45,0,0,0-10-5,54.74,54.74,0,0,0-12.79-1.4q-5.05,0-9.43.34t-7.86.79q-.34,5.39-.5,11.28t-.17,12V461q5.39,0,10.88-.06t10.66-.28a8.16,8.16,0,0,0-.34,2.36,10.62,10.62,0,0,0,.34,2.58q-5.16-.22-10.66-.34t-10.88-.11v12.46Q1502.18,489.74,1502.85,501.41Z"/><rect class="cls-4" x="656" y="566.87" width="608" height="8"/><text class="cls-5" transform="translate(546.51 685.5)">Samfélag sem <tspan class="cls-6" x="235.04" y="0">b</tspan><tspan class="cls-7" x="255.31" y="0">yggir á sjálfbæru, samkeppnishæfu</tspan><tspan x="169.9" y="56">og nýsköpunardrifnu hagkerfi</tspan></text></svg>